<svg width="161" height="53" viewBox="0 0 161 53" fill="none" xmlns="http://www.w3.org/2000/svg">
<g clip-path="url(#clip0_153_283)">
<mask id="mask0_153_283" style="mask-type:luminance" maskUnits="userSpaceOnUse" x="10" y="-1" width="150" height="30">
<path d="M152.049 22.882C155.173 26.0781 156.742 29.8254 148.314 27.6147C139.886 25.4039 132.423 20.9758 132.423 20.9758C132.423 20.9758 135.053 19.9839 138.565 20.2303L138.603 20.2368L139.765 20.3664C139.48 20.2368 139.155 20.1071 138.794 19.9775C138.781 19.9775 138.762 19.971 138.749 19.9645C130.932 17.2351 107.057 15.4587 97.867 17.2156C90.6458 12.1782 75.2765 2.40805 57.3979 3.09527C55.0482 3.18604 52.8442 3.44536 50.7802 3.83435C50.774 3.83435 50.774 3.83435 50.7674 3.83435C36.7063 6.45356 29.2946 14.8492 29.2946 14.8492C22.1813 14.8492 13.2581 11.6142 10.47 7.95764C13.3533 10.2462 42.2571 1.56523 55.0162 0.463091C62.2312 -0.165777 66.9055 -0.554772 74.2791 2.04498C79.9508 4.0418 87.2229 7.80851 98.4767 14.5964C104.301 14.2398 109.872 14.2075 115.117 14.4084C141.601 15.4003 159.753 22.2077 159.753 22.2077C156.38 22.9468 152.049 22.882 152.049 22.882Z" fill="white"/>
</mask>
<g mask="url(#mask0_153_283)">
<path d="M152.049 22.882C155.173 26.0781 156.742 29.8254 148.314 27.6147C139.886 25.4039 132.423 20.9758 132.423 20.9758C132.423 20.9758 135.053 19.9839 138.565 20.2303L138.603 20.2368L139.765 20.3664C139.48 20.2368 139.155 20.1071 138.794 19.9775C138.781 19.9775 138.762 19.971 138.749 19.9645C130.932 17.2351 107.057 15.4587 97.867 17.2156C90.6458 12.1782 75.2765 2.40805 57.3979 3.09527C55.0482 3.18604 52.8442 3.44536 50.7802 3.83435C50.774 3.83435 50.774 3.83435 50.7674 3.83435C36.7063 6.45356 29.2946 14.8492 29.2946 14.8492C22.1813 14.8492 13.2581 11.6142 10.47 7.95764C13.3533 10.2462 42.2571 1.56523 55.0162 0.463091C62.2312 -0.165777 66.9055 -0.554772 74.2791 2.04498C79.9508 4.0418 87.2229 7.80851 98.4767 14.5964C104.301 14.2398 109.872 14.2075 115.117 14.4084C141.601 15.4003 159.753 22.2077 159.753 22.2077C156.38 22.9468 152.049 22.882 152.049 22.882Z" fill="white"/>
</g>
<mask id="mask1_153_283" style="mask-type:luminance" maskUnits="userSpaceOnUse" x="0" y="14" width="74" height="13">
<path d="M73.9298 22.4078C56.0579 30.4858 35.8742 23.9961 20.0917 19.6978C20.0854 19.6978 20.0791 19.6913 20.0727 19.6913C11.8988 17.474 4.91268 15.8403 0.0286865 17.111C0.333539 16.91 7.57375 12.3653 24.4549 16.5016C32.1398 18.3882 39.8754 20.0025 47.3951 21.1046C56.7504 22.4855 65.7688 23.0755 73.9298 22.4078Z" fill="white"/>
</mask>
<g mask="url(#mask1_153_283)">
<path d="M73.9298 22.4078C56.0579 30.4858 35.8742 23.9961 20.0917 19.6978C20.0854 19.6978 20.0791 19.6913 20.0727 19.6913C11.8988 17.474 4.91268 15.8403 0.0286865 17.111C0.333539 16.91 7.57375 12.3653 24.4549 16.5016C32.1398 18.3882 39.8754 20.0025 47.3951 21.1046C56.7504 22.4855 65.7688 23.0755 73.9298 22.4078Z" fill="white"/>
</g>
<mask id="mask2_153_283" style="mask-type:luminance" maskUnits="userSpaceOnUse" x="0" y="19" width="16" height="6">
<path d="M0.0155413 21.3028C3.04882 18.207 11.4665 19.8654 15.6081 21.3028C8.23577 26.9691 -0.416332 24.8549 0.0155413 21.3028Z" fill="white"/>
</mask>
<g mask="url(#mask2_153_283)">
<path d="M0.0155413 21.3028C3.04882 18.207 11.4665 19.8654 15.6081 21.3028C8.23577 26.9691 -0.416332 24.8549 0.0155413 21.3028Z" fill="white"/>
</g>
<mask id="mask3_153_283" style="mask-type:luminance" maskUnits="userSpaceOnUse" x="107" y="23" width="36" height="9">
<path d="M107.354 30.3931C115.306 19.5494 131.583 22.1712 142.08 31.4687C129.779 25.6429 114.837 26.2562 107.354 30.3931Z" fill="white"/>
</mask>
<g mask="url(#mask3_153_283)">
<path d="M107.354 30.3931C115.306 19.5494 131.583 22.1712 142.08 31.4687C129.779 25.6429 114.837 26.2562 107.354 30.3931Z" fill="white"/>
</g>
<mask id="mask4_153_283" style="mask-type:luminance" maskUnits="userSpaceOnUse" x="155" y="24" width="6" height="22">
<path d="M160.413 24.0249C162.277 32.016 158.673 39.5845 155.07 45.2923C157.947 32.925 157.214 27.6295 155.846 24.458C158.037 24.3925 160.413 24.0249 160.413 24.0249Z" fill="white"/>
</mask>
<g mask="url(#mask4_153_283)">
<path d="M160.413 24.0249C162.277 32.016 158.673 39.5845 155.07 45.2923C157.947 32.925 157.214 27.6295 155.846 24.458C158.037 24.3925 160.413 24.0249 160.413 24.0249Z" fill="white"/>
</g>
<mask id="mask5_153_283" style="mask-type:luminance" maskUnits="userSpaceOnUse" x="10" y="-1" width="65" height="16">
<path d="M74.2791 2.04498C64.5048 0.0870612 58.8969 1.33832 50.7802 3.83435C50.774 3.83435 50.774 3.83435 50.7674 3.83435C36.7063 6.45355 29.2946 14.8493 29.2946 14.8493C22.1813 14.8493 13.2581 11.6142 10.47 7.95768C13.3533 10.2462 42.2571 1.56523 55.0162 0.463092C62.2312 -0.165777 66.9055 -0.554774 74.2791 2.04498Z" fill="white"/>
</mask>
<g mask="url(#mask5_153_283)">
<path d="M74.2791 2.04498C64.5048 0.0870612 58.8969 1.33832 50.7802 3.83435C50.774 3.83435 50.774 3.83435 50.7674 3.83435C36.7063 6.45355 29.2946 14.8493 29.2946 14.8493C22.1813 14.8493 13.2581 11.6142 10.47 7.95768C13.3533 10.2462 42.2571 1.56523 55.0162 0.463092C62.2312 -0.165777 66.9055 -0.554774 74.2791 2.04498Z" fill="white"/>
</g>
<mask id="mask6_153_283" style="mask-type:luminance" maskUnits="userSpaceOnUse" x="115" y="14" width="45" height="15">
<path d="M152.049 22.8822C155.174 26.0784 156.742 29.8257 148.314 27.6149C139.886 25.4042 132.423 20.9761 132.423 20.9761C132.423 20.9761 135.053 19.9842 138.565 20.2306L138.603 20.2371L139.766 20.3667C139.442 20.2371 139.118 20.1074 138.794 19.9777C138.781 19.9777 138.762 19.9713 138.749 19.9648C126.574 15.2386 115.117 14.4087 115.117 14.4087C141.601 15.4006 159.753 22.208 159.753 22.208C156.38 22.947 152.049 22.8822 152.049 22.8822Z" fill="white"/>
</mask>
<g mask="url(#mask6_153_283)">
<path d="M152.049 22.8822C155.174 26.0784 156.742 29.8257 148.314 27.6149C139.886 25.4042 132.423 20.9761 132.423 20.9761C132.423 20.9761 135.053 19.9842 138.565 20.2306L138.603 20.2371L139.766 20.3667C139.442 20.2371 139.118 20.1074 138.794 19.9777C138.781 19.9777 138.762 19.9713 138.749 19.9648C126.574 15.2386 115.117 14.4087 115.117 14.4087C141.601 15.4006 159.753 22.208 159.753 22.208C156.38 22.947 152.049 22.8822 152.049 22.8822Z" fill="white"/>
</g>
<mask id="mask7_153_283" style="mask-type:luminance" maskUnits="userSpaceOnUse" x="20" y="19" width="54" height="8">
<path d="M73.93 22.4078C56.058 30.4858 35.8744 23.9961 20.092 19.6978C30.26 22.4661 30.3744 20.4498 47.3953 21.1046C56.7506 22.4855 65.769 23.0755 73.93 22.4078Z" fill="white"/>
</mask>
<g mask="url(#mask7_153_283)">
<path d="M73.93 22.4078C56.058 30.4858 35.8744 23.9961 20.092 19.6978C30.26 22.4661 30.3744 20.4498 47.3953 21.1046C56.7506 22.4855 65.769 23.0755 73.93 22.4078Z" fill="white"/>
</g>
<path d="M23.426 40.4792L22.7543 42.3901C22.4876 43.1487 22.0256 43.596 21.3682 43.7321C21.5206 43.771 21.6445 43.8829 21.7398 44.0676C21.8446 44.2524 21.897 44.4615 21.897 44.6949C21.897 44.831 21.8731 44.9672 21.8255 45.1033L20.7395 48.3125C20.4441 49.178 19.9011 49.6108 19.1104 49.6108H8.59302L12.6371 37.9848H21.6112C22.1923 37.9848 22.6638 38.1258 23.0259 38.4078C23.3974 38.6801 23.5832 39.074 23.5832 39.5894C23.5832 39.8617 23.5308 40.1583 23.426 40.4792ZM20.025 41.3107C20.0345 41.2718 20.0393 41.2329 20.0393 41.194C20.0393 40.8828 19.8011 40.7272 19.3248 40.7272H14.7949L14.2804 42.2151H18.9104C19.2438 42.2151 19.482 42.1762 19.6249 42.0984C19.7392 42.0303 19.8249 41.9039 19.8821 41.7191L20.025 41.3107ZM18.5102 45.716C18.5293 45.6479 18.5388 45.5798 18.5388 45.5118C18.5388 45.1228 18.3292 44.9283 17.9101 44.9283H13.3373L12.6656 46.8684H17.167C17.7862 46.8684 18.172 46.6544 18.3245 46.2265L18.5102 45.716ZM38.2404 41.0627L35.6539 48.5313C35.5205 48.9106 35.2776 49.1975 34.9251 49.392C34.6489 49.5378 34.3488 49.6108 34.0249 49.6108H25.751C24.6078 49.6108 24.0362 49.1099 24.0362 48.1083C24.0362 47.661 24.1458 47.1407 24.3649 46.5475L24.6078 45.9348L26.9514 39.0788C27.0752 38.6996 27.3134 38.4127 27.6658 38.2182C27.9516 38.0626 28.2565 37.9848 28.5804 37.9848H36.8543C37.9879 37.9848 38.5548 38.4856 38.5548 39.4873C38.5548 39.9054 38.45 40.4306 38.2404 41.0627ZM34.9108 41.6316C34.949 41.5343 34.968 41.4371 34.968 41.3398C34.968 40.9314 34.7965 40.7272 34.4536 40.7272H30.3095C29.7569 40.7272 29.3806 41.0189 29.1806 41.6024L27.6944 45.964C27.6563 46.0612 27.6373 46.1633 27.6373 46.2703C27.6373 46.669 27.8087 46.8684 28.1517 46.8684H32.2958C32.6387 46.8684 32.9007 46.7809 33.0817 46.6058C33.1961 46.4891 33.3056 46.2898 33.4104 46.0077L34.9108 41.6316ZM53.7954 41.0627L51.209 48.5313C51.0756 48.9106 50.8326 49.1975 50.4802 49.392C50.2039 49.5378 49.9038 49.6108 49.5799 49.6108H41.3058C40.1626 49.6108 39.591 49.1099 39.591 48.1083C39.591 47.661 39.7006 47.1407 39.9197 46.5475L40.1626 45.9348L42.5062 39.0788C42.63 38.6996 42.8682 38.4127 43.2207 38.2182C43.5065 38.0626 43.8113 37.9848 44.1352 37.9848H52.4093C53.543 37.9848 54.1098 38.4856 54.1098 39.4873C54.1098 39.9054 54.005 40.4306 53.7954 41.0627ZM50.4659 41.6316C50.504 41.5343 50.523 41.4371 50.523 41.3398C50.523 40.9314 50.3516 40.7272 50.0086 40.7272H45.8643C45.3118 40.7272 44.9355 41.0189 44.7354 41.6024L43.2493 45.964C43.2112 46.0612 43.1921 46.1633 43.1921 46.2703C43.1921 46.669 43.3636 46.8684 43.7065 46.8684H47.8508C48.1938 46.8684 48.4558 46.7809 48.6368 46.6058C48.7511 46.4891 48.8606 46.2898 48.9654 46.0077L50.4659 41.6316ZM66.2334 49.6254H63.1611L65.8761 41.6462C65.9142 41.5489 65.9333 41.4468 65.9333 41.3398C65.9333 40.9411 65.7618 40.7418 65.4189 40.7418H61.2891C60.7365 40.7418 60.3555 41.0432 60.1459 41.6462L57.4308 49.6254H54.3156L58.2882 37.9994H76.6365C77.7701 37.9994 78.337 38.4954 78.337 39.4873C78.337 39.9054 78.2274 40.4306 78.0083 41.0627L75.036 49.6254H71.9637L74.6788 41.6462C74.7169 41.5489 74.7359 41.4468 74.7359 41.3398C74.7359 40.9411 74.5644 40.7418 74.2215 40.7418H70.0917C69.5391 40.7418 69.1581 41.0432 68.9485 41.6462L66.2334 49.6254ZM88.2504 42.3464L87.4644 44.5928H79.2477L80.048 42.3464H88.2504ZM103.364 40.3042L100.149 49.6108H90.5606C90.0366 49.6108 89.646 49.4357 89.3888 49.0856C89.1792 48.7842 89.0744 48.4049 89.0744 47.9478C89.0744 47.6366 89.1221 47.3498 89.2173 47.0872L90.4463 43.4842C90.7416 42.6089 91.3465 42.1713 92.2611 42.1713H99.6061L99.8205 41.4857C99.849 41.3982 99.8633 41.3155 99.8633 41.2377C99.8633 40.8974 99.649 40.7272 99.2203 40.7272H91.3751L92.3183 37.9848H101.978C102.988 37.9848 103.493 38.5002 103.493 39.531C103.493 39.8033 103.45 40.061 103.364 40.3042ZM98.663 44.9283H93.7472C93.2995 44.9283 93.0042 45.1325 92.8613 45.541L92.6755 46.0369C92.6374 46.1633 92.6183 46.28 92.6183 46.387C92.6183 46.7079 92.7803 46.8684 93.1042 46.8684H97.9914L98.663 44.9283ZM117.927 37.9848L108.61 49.6108H103.223L107.138 37.9848H110.154L107.095 46.8684L113.797 37.9848H117.927ZM122.491 49.6108H119.376L122.448 40.7418H117.761L118.733 37.9702H131.065L130.108 40.7418H125.563L122.491 49.6108ZM144.878 41.0627L142.291 48.5313C142.158 48.9106 141.915 49.1975 141.562 49.392C141.286 49.5378 140.986 49.6108 140.662 49.6108H132.388C131.245 49.6108 130.673 49.1099 130.673 48.1083C130.673 47.661 130.783 47.1407 131.002 46.5475L131.245 45.9348L133.589 39.0788C133.712 38.6996 133.951 38.4127 134.303 38.2182C134.589 38.0626 134.894 37.9848 135.218 37.9848H143.491C144.625 37.9848 145.192 38.4856 145.192 39.4873C145.192 39.9054 145.087 40.4306 144.878 41.0627ZM141.548 41.6316C141.586 41.5343 141.605 41.4371 141.605 41.3398C141.605 40.9314 141.434 40.7272 141.091 40.7272H136.947C136.394 40.7272 136.018 41.0189 135.818 41.6024L134.332 45.964C134.294 46.0612 134.274 46.1633 134.274 46.2703C134.274 46.669 134.446 46.8684 134.789 46.8684H138.933C139.276 46.8684 139.538 46.7809 139.719 46.6058C139.833 46.4891 139.943 46.2898 140.048 46.0077L141.548 41.6316Z" fill="white"/>
</g>
<defs>
<clipPath id="clip0_153_283">
<rect width="161" height="53" fill="white"/>
</clipPath>
</defs>
</svg>
