<svg width="18" height="19" viewBox="0 0 18 19" fill="none" xmlns="http://www.w3.org/2000/svg">
<path d="M10.7872 3.54667C10.7872 3.37778 10.734 3.24056 10.6277 3.135C10.5213 3.02944 10.383 2.97667 10.2128 2.97667H4.21277C4.04255 2.97667 3.90426 3.02944 3.79787 3.135C3.69149 3.24056 3.6383 3.37778 3.6383 3.54667V8.29667C3.6383 8.46556 3.69149 8.61333 3.79787 8.74C3.90426 8.86667 4.04255 8.93 4.21277 8.93H10.2128C10.383 8.93 10.5213 8.86667 10.6277 8.74C10.734 8.61333 10.7872 8.46556 10.7872 8.29667V3.54667ZM9.57447 7.72667H4.78723V4.18H9.57447V7.72667ZM17.6809 4.18L15.2553 3.04C15.1277 2.95555 14.9787 2.93444 14.8085 2.97667C14.6383 3.01889 14.5213 3.11389 14.4574 3.26167C14.3936 3.40944 14.383 3.56778 14.4255 3.73667C14.4681 3.90556 14.5745 4.01111 14.7447 4.05333L15.6383 4.56L15.5745 4.75C15.5745 5.13 15.6915 5.46778 15.9255 5.76333C16.1596 6.05889 16.4468 6.27 16.7872 6.39667V13.6167C16.7872 13.7856 16.7234 13.9333 16.5957 14.06C16.4681 14.1867 16.3298 14.25 16.1809 14.25C16.0319 14.25 15.8936 14.1867 15.766 14.06C15.6383 13.9333 15.5745 13.7856 15.5745 13.6167V8.86667C15.5745 8.19111 15.3298 7.57889 14.8404 7.03C14.3511 6.48111 13.8085 6.14333 13.2128 6.01667V2.34333C13.2128 1.71 12.9787 1.16111 12.5106 0.696667C12.0426 0.232222 11.4894 0 10.8511 0H3.6383C3 0 2.43617 0.232222 1.94681 0.696667C1.45745 1.16111 1.21277 1.71 1.21277 2.34333V15.6433L0.382979 16.0867C0.12766 16.2133 0 16.3822 0 16.5933V18.3667C0 18.5356 0.0638298 18.6833 0.191489 18.81C0.319149 18.9367 0.468085 19 0.638298 19H13.7872C13.9574 19 14.0957 18.9367 14.2021 18.81C14.3085 18.6833 14.3617 18.5356 14.3617 18.3667V16.5933C14.3617 16.3822 14.2553 16.2133 14.0426 16.0867L13.2128 15.6433V7.22C13.5106 7.34667 13.7766 7.56833 14.0106 7.885C14.2447 8.20167 14.3617 8.52889 14.3617 8.86667V13.6167C14.3617 14.1233 14.5426 14.5561 14.9043 14.915C15.266 15.2739 15.6915 15.4533 16.1809 15.4533C16.6702 15.4533 17.0957 15.2739 17.4574 14.915C17.8191 14.5561 18 14.1233 18 13.6167V4.75C18 4.49667 17.8936 4.30667 17.6809 4.18ZM13.2128 17.7967H1.21277V16.9733L2.10638 16.53C2.31915 16.4456 2.42553 16.2767 2.42553 16.0233V2.34333C2.42553 2.04778 2.54255 1.78389 2.7766 1.55167C3.01064 1.31944 3.29787 1.20333 3.6383 1.20333H10.8511C11.1489 1.20333 11.4149 1.31944 11.6489 1.55167C11.883 1.78389 12 2.04778 12 2.34333V16.0233C12 16.2767 12.1064 16.4456 12.3191 16.53L13.2128 16.9733V17.7967Z" fill="#202020"/>
</svg>
