<svg width="19" height="15" viewBox="0 0 19 15" fill="none" xmlns="http://www.w3.org/2000/svg">
<path d="M19 9.13843C19 11.2237 18.3667 13.0841 17.1 14.7196C16.9733 14.8832 16.8044 14.9752 16.5933 14.9956C16.3822 15.0161 16.1922 14.965 16.0233 14.8423C15.8544 14.7196 15.7594 14.5663 15.7383 14.3823C15.7172 14.1983 15.77 14.0245 15.8967 13.861C16.9944 12.4708 17.5433 10.8966 17.5433 9.13843C17.5433 7.74825 17.1844 6.46028 16.4667 5.27453C15.7489 4.08879 14.7672 3.14837 13.5217 2.45327C12.2761 1.75818 10.9356 1.41063 9.5 1.41063C8.06444 1.41063 6.72389 1.75818 5.47833 2.45327C4.23278 3.14837 3.25111 4.08879 2.53333 5.27453C1.81556 6.46028 1.45667 7.74825 1.45667 9.13843C1.45667 10.8966 2.00556 12.4708 3.10333 13.861C3.23 14.0245 3.28278 14.1983 3.26167 14.3823C3.24056 14.5663 3.14556 14.7196 2.97667 14.8423C2.80778 14.965 2.61778 15.0161 2.40667 14.9956C2.19556 14.9752 2.02667 14.8832 1.9 14.7196C0.633333 13.0841 0 11.2237 0 9.13843C0 7.50292 0.422222 5.97985 1.26667 4.56922C2.11111 3.15859 3.26167 2.04439 4.71833 1.22664C6.175 0.408879 7.76889 0 9.5 0C11.2311 0 12.825 0.408879 14.2817 1.22664C15.7383 2.04439 16.8889 3.15859 17.7333 4.56922C18.5778 5.97985 19 7.50292 19 9.13843ZM14.1867 4.84521C14.3556 4.96787 14.44 5.13143 14.44 5.33587C14.44 5.5403 14.3556 5.70386 14.1867 5.82652L11.78 8.21846C11.9911 8.58645 12.0967 8.97488 12.0967 9.38376C12.0967 10.0789 11.8433 10.6717 11.3367 11.1624C10.83 11.653 10.2178 11.8984 9.5 11.8984C8.78222 11.8984 8.17 11.653 7.66333 11.1624C7.15667 10.6717 6.90333 10.0789 6.90333 9.38376C6.90333 8.68867 7.15667 8.09579 7.66333 7.60514C8.17 7.11449 8.78222 6.86916 9.5 6.86916C9.92222 6.86916 10.3233 6.97138 10.7033 7.17582L13.1733 4.84521C13.3 4.68166 13.4689 4.59988 13.68 4.59988C13.8911 4.59988 14.06 4.68166 14.1867 4.84521ZM10.64 9.38376C10.64 9.09755 10.5239 8.85222 10.2917 8.64778C10.0594 8.44334 9.79556 8.34112 9.5 8.34112C9.20444 8.34112 8.94056 8.44334 8.70833 8.64778C8.47611 8.85222 8.36 9.09755 8.36 9.38376C8.36 9.66998 8.47611 9.92553 8.70833 10.1504C8.94056 10.3753 9.20444 10.4877 9.5 10.4877C9.79556 10.4877 10.0594 10.3753 10.2917 10.1504C10.5239 9.92553 10.64 9.66998 10.64 9.38376Z" fill="#202020"/>
</svg>
