<svg width="18" height="17" viewBox="0 0 18 17" fill="none" xmlns="http://www.w3.org/2000/svg">
<path d="M14.52 1.30333H13.86V0.68C13.86 0.49111 13.79 0.330555 13.65 0.198334C13.51 0.0661106 13.34 0 13.14 0C12.94 0 12.77 0.0661106 12.63 0.198334C12.49 0.330555 12.42 0.49111 12.42 0.68V1.30333H5.58V0.68C5.58 0.49111 5.51 0.330555 5.37 0.198334C5.23 0.0661106 5.06 0 4.86 0C4.66 0 4.49 0.0661106 4.35 0.198334C4.21 0.330555 4.14 0.49111 4.14 0.68V1.30333H3.48C2.84 1.30333 2.26 1.45444 1.74 1.75667C1.22 2.05889 0.8 2.45555 0.48 2.94667C0.16 3.43778 0 3.98555 0 4.59V13.7133C0 14.3178 0.16 14.8656 0.48 15.3567C0.8 15.8478 1.22 16.2444 1.74 16.5467C2.26 16.8489 2.84 17 3.48 17H14.52C15.16 17 15.74 16.8489 16.26 16.5467C16.78 16.2444 17.2 15.8478 17.52 15.3567C17.84 14.8656 18 14.3178 18 13.7133V4.59C18 3.98555 17.84 3.43778 17.52 2.94667C17.2 2.45555 16.78 2.05889 16.26 1.75667C15.74 1.45444 15.16 1.30333 14.52 1.30333ZM3.48 2.66333H4.14V3.91C4.14 4.09889 4.21 4.25944 4.35 4.39167C4.49 4.52389 4.66 4.59 4.86 4.59C5.06 4.59 5.23 4.52389 5.37 4.39167C5.51 4.25944 5.58 4.09889 5.58 3.91V2.66333H12.42V3.91C12.42 4.09889 12.49 4.25944 12.63 4.39167C12.77 4.52389 12.94 4.59 13.14 4.59C13.34 4.59 13.51 4.52389 13.65 4.39167C13.79 4.25944 13.86 4.09889 13.86 3.91V2.66333H14.52C15.08 2.66333 15.57 2.85222 15.99 3.23C16.41 3.60778 16.62 4.06111 16.62 4.59V5.21333H1.38V4.59C1.38 4.06111 1.59 3.60778 2.01 3.23C2.43 2.85222 2.92 2.66333 3.48 2.66333ZM14.52 15.6967H3.48C2.92 15.6967 2.43 15.4983 2.01 15.1017C1.59 14.705 1.38 14.2422 1.38 13.7133V6.57333H16.62V13.7133C16.62 14.2422 16.41 14.705 15.99 15.1017C15.57 15.4983 15.08 15.6967 14.52 15.6967ZM6.24 9.18C6.24 9.36889 6.17 9.52 6.03 9.63333C5.89 9.74667 5.72 9.80333 5.52 9.80333H4.14C3.94 9.80333 3.78 9.74667 3.66 9.63333C3.54 9.52 3.48 9.36889 3.48 9.18C3.48 8.99111 3.54 8.83055 3.66 8.69833C3.78 8.56611 3.94 8.5 4.14 8.5H5.52C5.72 8.5 5.89 8.56611 6.03 8.69833C6.17 8.83055 6.24 8.99111 6.24 9.18ZM14.52 9.18C14.52 9.36889 14.46 9.52 14.34 9.63333C14.22 9.74667 14.06 9.80333 13.86 9.80333H12.48C12.28 9.80333 12.11 9.74667 11.97 9.63333C11.83 9.52 11.76 9.36889 11.76 9.18C11.76 8.99111 11.83 8.83055 11.97 8.69833C12.11 8.56611 12.28 8.5 12.48 8.5H13.86C14.06 8.5 14.22 8.56611 14.34 8.69833C14.46 8.83055 14.52 8.99111 14.52 9.18ZM10.38 9.18C10.38 9.36889 10.31 9.52 10.17 9.63333C10.03 9.74667 9.86 9.80333 9.66 9.80333H8.28C8.12 9.80333 7.97 9.74667 7.83 9.63333C7.69 9.52 7.62 9.36889 7.62 9.18C7.62 8.99111 7.69 8.83055 7.83 8.69833C7.97 8.56611 8.12 8.5 8.28 8.5H9.66C9.86 8.5 10.03 8.56611 10.17 8.69833C10.31 8.83055 10.38 8.99111 10.38 9.18ZM6.24 13.09C6.24 13.2789 6.17 13.4394 6.03 13.5717C5.89 13.7039 5.72 13.77 5.52 13.77H4.14C3.94 13.77 3.78 13.7039 3.66 13.5717C3.54 13.4394 3.48 13.2789 3.48 13.09C3.48 12.9011 3.54 12.7406 3.66 12.6083C3.78 12.4761 3.94 12.41 4.14 12.41H5.52C5.72 12.41 5.89 12.4761 6.03 12.6083C6.17 12.7406 6.24 12.9011 6.24 13.09ZM14.52 13.09C14.52 13.2789 14.46 13.4394 14.34 13.5717C14.22 13.7039 14.06 13.77 13.86 13.77H12.48C12.28 13.77 12.11 13.7039 11.97 13.5717C11.83 13.4394 11.76 13.2789 11.76 13.09C11.76 12.9011 11.83 12.7406 11.97 12.6083C12.11 12.4761 12.28 12.41 12.48 12.41H13.86C14.06 12.41 14.22 12.4761 14.34 12.6083C14.46 12.7406 14.52 12.9011 14.52 13.09ZM10.38 13.09C10.38 13.2789 10.31 13.4394 10.17 13.5717C10.03 13.7039 9.86 13.77 9.66 13.77H8.28C8.12 13.77 7.97 13.7039 7.83 13.5717C7.69 13.4394 7.62 13.2789 7.62 13.09C7.62 12.9011 7.69 12.7406 7.83 12.6083C7.97 12.4761 8.12 12.41 8.28 12.41H9.66C9.86 12.41 10.03 12.4761 10.17 12.6083C10.31 12.7406 10.38 12.9011 10.38 13.09Z" fill="#202020"/>
</svg>
