<svg width="53" height="54" viewBox="0 0 53 54" fill="none" xmlns="http://www.w3.org/2000/svg">
<path fill-rule="evenodd" clip-rule="evenodd" d="M41.1416 0.00144593C42.3984 -0.00911304 42.7636 0.0331228 43.8271 0.297097C44.5038 0.455481 45.4706 0.77225 45.9754 0.98343C46.4803 1.19461 47.2967 1.63809 47.8015 1.97597C48.3064 2.3033 49.1013 2.9474 49.5847 3.42255C50.0573 3.88715 50.7448 4.7213 51.11 5.27037C51.486 5.81944 51.9371 6.63248 52.1197 7.06539C52.3023 7.49831 52.5709 8.31135 52.7213 8.86042C52.9576 9.73681 53.0005 10.0747 53.0005 11.6058C53.0005 13.0734 52.9683 13.4958 52.7535 14.2983C52.6246 14.8157 52.3668 15.6076 52.1842 16.0405C51.9908 16.4734 51.6149 17.2126 51.3356 17.6772C51.0563 18.1418 50.5192 18.8809 50.1325 19.3138C49.7458 19.7467 49.0905 20.3697 48.6716 20.6865C48.2527 21.0032 47.6082 21.4467 47.243 21.6579C46.867 21.8796 46.5018 22.0908 46.4158 22.133C46.2869 22.207 46.2977 22.3231 46.4481 22.9038C46.5447 23.284 46.6844 24.0653 46.7488 24.6461C46.8455 25.4486 46.8455 25.9659 46.7596 26.8107C46.6844 27.4231 46.5018 28.3523 46.3514 28.8697C46.1903 29.3871 45.868 30.2001 45.6317 30.6647C45.3954 31.1293 44.9979 31.7945 44.7401 32.1429C44.493 32.4914 44.0312 33.051 43.7089 33.3995C43.3866 33.7373 42.7421 34.3075 42.2695 34.656C41.7969 35.0044 40.9697 35.5007 40.4434 35.7435C39.917 35.997 39.0684 36.3137 38.5636 36.4616C38.0587 36.5988 37.1457 36.7678 36.5226 36.8311C35.8996 36.8945 35.1047 36.9262 34.7502 36.8945C34.3958 36.8522 33.719 36.7572 33.2464 36.6727C32.6663 36.5671 32.3011 36.546 32.1185 36.6094C31.9359 36.6727 29.809 39.3969 25.5768 44.9826C22.1286 49.5336 19.1961 53.3665 19.078 53.4932C18.8739 53.6938 18.659 53.736 17.1874 53.8627C16.2744 53.9366 15.168 54 13.9327 54L13.417 51.7298C13.127 50.4839 12.9229 49.3646 12.9444 49.2485C12.9766 49.1323 13.1055 48.9317 13.2452 48.805C13.3848 48.6783 14.0186 48.4249 14.7705 48.2031C15.705 47.9286 16.1455 47.7385 16.3603 47.5274C16.5214 47.369 16.704 47.1261 16.7685 46.9783C16.8437 46.8093 16.8544 46.4187 16.8007 45.8696C16.747 45.405 16.704 44.9615 16.704 44.8771C16.704 44.7926 16.8222 44.687 16.9726 44.6448C17.123 44.6025 17.5956 44.4653 18.0253 44.3491C18.5409 44.2013 18.9276 44.0112 19.1854 43.7895C19.4002 43.5889 19.6043 43.2826 19.658 43.0715C19.7117 42.8392 19.701 42.3851 19.6258 41.8783C19.5506 41.4243 19.5184 41.0336 19.5506 41.023C19.5828 41.0019 20.0877 40.8435 20.6785 40.664C21.5271 40.4106 21.8171 40.2733 22.0857 39.9883C22.2683 39.7982 22.4509 39.492 22.4939 39.323C22.5368 39.1541 22.5153 38.6261 22.4509 38.1616C22.3864 37.697 22.3113 37.2218 22.2898 37.1057C22.2468 36.9578 22.7087 36.2821 23.8796 34.7299C24.7926 33.5367 25.5875 32.4597 25.6519 32.333C25.7271 32.1957 25.7808 31.9951 25.7808 31.879C25.7808 31.7628 25.5875 31.2982 25.3619 30.8547C25.1363 30.4007 24.8248 29.651 24.6744 29.1864C24.5241 28.7218 24.3522 27.9827 24.277 27.5498C24.1911 27.0641 24.1696 26.2405 24.2018 25.3852C24.234 24.4982 24.3307 23.7169 24.4811 23.1678C24.5993 22.7032 24.8356 22.0169 24.986 21.6368C25.1471 21.2566 25.4908 20.5914 25.7486 20.1585C26.0064 19.7256 26.5005 19.0393 26.8335 18.6275C27.1773 18.2262 27.8648 17.5716 28.3696 17.1703C28.8852 16.7585 29.7661 16.2095 30.4535 15.8716C31.1947 15.5126 32.0326 15.1958 32.7093 15.0269C33.386 14.8579 34.2346 14.7418 35.0188 14.6995C35.8996 14.6679 36.5549 14.6995 37.3068 14.8157C37.8761 14.9107 38.8214 15.1536 39.3907 15.3542C39.9708 15.5548 40.7764 15.9244 41.1953 16.1672C41.6143 16.3995 42.2373 16.8219 42.5918 17.0964C42.9462 17.3709 43.5263 17.8989 43.87 18.2685C44.2245 18.638 44.7294 19.2821 45.492 20.4647L46.0828 20.1585C46.4051 20.0001 47.0281 19.5883 47.4685 19.2399C47.9089 18.902 48.532 18.3001 48.865 17.8883C49.198 17.4871 49.6491 16.843 49.8639 16.4629C50.0788 16.0828 50.3903 15.4492 50.5407 15.0374C50.7018 14.6362 50.8952 13.9498 50.9811 13.538C51.067 13.1157 51.1315 12.2498 51.1315 11.6058C51.1315 10.9722 51.0563 10.1275 50.9704 9.73681C50.8952 9.33557 50.7233 8.75483 50.6159 8.43806C50.5085 8.12129 50.2077 7.47719 49.9606 7.0126C49.7243 6.54801 49.2624 5.86167 48.9509 5.48155C48.6394 5.10143 48.0378 4.51012 47.6189 4.16168C47.1892 3.81323 46.4695 3.32752 46.0076 3.08466C45.5457 2.84181 44.8798 2.5356 44.5253 2.41945C44.1708 2.29274 43.5585 2.1238 43.1611 2.04989C42.7529 1.96541 41.9043 1.8915 41.249 1.8915C40.5938 1.8915 39.713 1.96541 39.2833 2.04989C38.8644 2.13436 38.1769 2.32442 37.7579 2.4828C37.339 2.63063 36.6945 2.92628 36.3078 3.13746C35.9211 3.34864 35.3948 3.69708 35.1262 3.90826C34.8577 4.11944 34.3743 4.56292 34.052 4.89025C33.7298 5.22813 33.3001 5.72441 33.1068 5.98838C32.9027 6.26291 32.6019 6.75918 32.43 7.09707C32.2581 7.4244 32.1185 7.72005 32.1185 7.75173C32.1185 7.7834 32.2474 7.80452 32.4193 7.80452C32.5804 7.80452 33.1175 7.91011 33.6224 8.02626C34.1272 8.15297 34.9221 8.41694 35.3948 8.61756C35.8674 8.81818 36.6623 9.2511 37.1671 9.57843C37.672 9.90576 38.4347 10.5287 38.8643 10.9405C39.2833 11.3629 39.9278 12.1548 40.2823 12.6933C40.6367 13.2213 40.916 13.6753 40.9053 13.6964C40.8838 13.7175 40.3467 13.5697 39.6915 13.3691C39.0362 13.1685 38.1769 12.9362 37.7579 12.8623C37.3175 12.7778 36.3508 12.7144 35.3948 12.725C34.2669 12.725 33.5149 12.7884 32.8704 12.9151C32.3656 13.0207 31.5492 13.2529 31.0443 13.4219C30.5395 13.6014 29.8198 13.897 29.4331 14.0871C29.0464 14.2877 28.4556 14.6256 28.1226 14.8474C27.7896 15.0691 27.188 15.5126 26.8013 15.8293C26.4146 16.1461 25.7916 16.7585 25.4264 17.1809C25.0611 17.6032 24.4811 18.3846 24.1374 18.9231C23.7936 19.4511 23.3317 20.3697 23.0954 20.9504C22.8698 21.5312 22.5798 22.492 22.4616 23.0939C22.3327 23.6852 22.2253 24.6778 22.2146 25.3113C22.1931 25.9343 22.2146 26.8423 22.3435 28.2361L13.6319 33.3572C8.84104 36.1765 4.8451 38.4889 4.74842 38.51C4.65175 38.5311 3.5346 38.2038 2.28855 37.8025C1.03176 37.3907 0.000549316 37.0423 0.000549316 37.0317C0.000549316 37.0106 0.172418 36.0286 0.376512 34.8355C0.580606 33.6423 0.806184 32.5336 0.881376 32.3647C0.956569 32.1957 1.14992 31.9951 1.31105 31.9212C1.54737 31.8051 1.80517 31.7945 2.5571 31.879C3.0727 31.9318 3.74943 31.9846 4.06095 31.9846C4.36172 31.9846 4.76991 31.9106 4.94177 31.8262C5.11364 31.7417 5.34996 31.5622 5.45738 31.4355C5.5648 31.2982 5.73667 30.8336 5.84408 30.4007C5.9515 29.9678 6.06966 29.5666 6.11263 29.5243C6.14485 29.4715 6.64972 29.4821 7.22978 29.5454C7.79909 29.6088 8.43286 29.6299 8.62621 29.5877C8.80882 29.5454 9.14181 29.3448 9.35665 29.1336C9.68965 28.8169 9.78632 28.6268 10.1515 27.0007L10.4738 27.0641C10.6564 27.0958 11.2042 27.1486 11.7091 27.1908C12.4288 27.2436 12.6866 27.2225 12.9444 27.0958C13.127 27.0113 13.3741 26.8212 13.503 26.684C13.6534 26.5361 13.8575 26.0293 14.3516 24.2237L16.8222 22.7666C18.1757 21.9747 19.325 21.2672 19.3895 21.2038C19.4539 21.1405 19.4969 20.2852 19.5076 19.1237C19.5184 17.3604 19.5399 17.0436 19.7869 16.1461C19.9373 15.597 20.2488 14.7418 20.4851 14.2455C20.7107 13.7492 21.1404 12.989 21.4304 12.5561C21.7312 12.1231 22.3113 11.4368 22.7194 11.025C23.1276 10.6238 23.7829 10.0641 24.1696 9.78961C24.5563 9.51507 25.3512 9.0716 25.942 8.79706C26.5328 8.52253 27.4781 8.1952 28.0366 8.05794C28.5952 7.93123 29.2934 7.7834 30.0883 7.64614L30.432 6.85422C30.6254 6.4213 31.0228 5.70329 31.3129 5.27037C31.6029 4.83745 32.2582 4.05609 32.763 3.54926C33.2679 3.03187 34.0413 2.36665 34.4817 2.071C34.9221 1.77535 35.7277 1.33188 36.2541 1.08902C36.7804 0.846163 37.629 0.539953 38.1339 0.413246C38.6388 0.286538 39.1973 0.149271 39.3692 0.0964766C39.5411 0.0542408 40.3467 0.0120049 41.1416 0.00144593ZM36.5226 18.6803C36.2863 18.7964 35.8781 19.1026 35.6096 19.3666C35.341 19.6306 35.008 20.0952 34.8577 20.4014C34.7073 20.7076 34.5569 21.2566 34.5247 21.6368C34.471 22.1436 34.5032 22.492 34.6428 22.9566C34.7502 23.3051 34.9329 23.7591 35.0725 23.9597C35.2014 24.1604 35.5129 24.5088 35.76 24.7305C35.9963 24.9417 36.383 25.2163 36.5978 25.3218C36.8234 25.4274 37.2961 25.5753 37.6505 25.6386C38.1124 25.7231 38.4669 25.7231 38.8858 25.6492C39.2081 25.5858 39.67 25.4486 39.9063 25.343C40.1426 25.2479 40.5293 24.9945 40.7549 24.7939C40.9912 24.5933 41.3135 24.2237 41.4854 23.9597C41.6572 23.6958 41.7861 23.4424 41.7861 23.379C41.7861 23.3156 41.3672 23.2734 40.7334 23.2734C39.8311 23.2734 39.6378 23.3051 39.3155 23.5057C39.1114 23.643 38.7677 23.7802 38.5636 23.8119C38.3595 23.8542 38.005 23.8225 37.7794 23.7591C37.5646 23.6958 37.2316 23.5163 37.0382 23.3579C36.8556 23.1889 36.6408 22.9038 36.5549 22.7243C36.4797 22.5343 36.4152 22.1964 36.4152 21.9852C36.4152 21.7635 36.5226 21.3728 36.6515 21.1194C36.8234 20.792 37.0382 20.5809 37.382 20.4014C37.6505 20.2641 38.048 20.1585 38.2628 20.1585C38.4884 20.1585 38.8429 20.243 39.0684 20.3486C39.2833 20.4436 39.5733 20.6759 39.713 20.8448C39.8526 21.0243 40.0137 21.225 40.0674 21.2989C40.1426 21.3834 40.4864 21.4256 41.0879 21.4256H42.001C41.8935 20.8976 41.7539 20.5281 41.625 20.2641C41.4961 20.0001 41.1094 19.5355 40.7764 19.2399C40.3038 18.7964 40.0245 18.638 39.4552 18.4691C39.047 18.3529 38.5099 18.2579 38.2413 18.2685C37.9728 18.2685 37.5753 18.3213 37.3605 18.374C37.1349 18.4268 36.759 18.5641 36.5226 18.6803ZM3.73869 34.9199C3.57757 35.0783 3.49163 35.279 3.49163 35.5324C3.49163 35.8069 3.56682 35.9758 3.7924 36.1659C3.95353 36.3032 4.21133 36.4193 4.3832 36.4193C4.57655 36.4193 7.14384 34.9727 12.3536 31.9212C16.5751 29.4504 20.1522 27.3069 20.3025 27.1697C20.4851 26.9902 20.5711 26.8001 20.5711 26.5572C20.5711 26.3179 20.4816 26.1067 20.3025 25.9237C20.1092 25.7231 19.9266 25.6492 19.658 25.6492C19.3573 25.6492 17.7245 26.5678 11.6339 30.1684C7.42313 32.6498 3.87834 34.7827 3.73869 34.9199ZM28.9712 34.2653C28.8852 34.3814 26.1031 38.0454 22.7839 42.4168C19.4647 46.7777 16.704 50.4627 16.6396 50.6C16.5751 50.7267 16.5536 50.959 16.5859 51.128C16.6181 51.2863 16.747 51.5081 16.8652 51.6242C16.9941 51.7509 17.2196 51.8354 17.456 51.8354C17.7138 51.8354 17.9286 51.7509 18.1434 51.5503C18.3153 51.3814 21.1834 47.6646 24.5026 43.2826C29.2827 36.9789 30.5609 35.2367 30.5932 34.9411C30.6254 34.6665 30.5717 34.4976 30.3891 34.2864C30.2494 34.128 30.0131 33.9802 29.8627 33.9485C29.7123 33.9168 29.4868 33.938 29.3579 33.9802C29.229 34.033 29.0571 34.1597 28.9712 34.2653Z" fill="#ED0000"/>
</svg>
