<svg width="47" height="43" viewBox="0 0 47 43" fill="none" xmlns="http://www.w3.org/2000/svg">
<path fill-rule="evenodd" clip-rule="evenodd" d="M14.7334 0.0183043L42.7314 0L43.4658 0.2105C43.8697 0.329478 44.4113 0.54913 44.6592 0.686413C44.9162 0.832847 45.3568 1.18978 45.6506 1.48265C45.9352 1.77552 46.2932 2.25143 46.44 2.5443C46.5869 2.82802 46.7705 3.31308 46.8531 3.61511C46.9816 4.10017 47 5.23504 47 13.0418C47 21.4161 46.9816 21.9469 46.8256 22.4228C46.7338 22.6974 46.5502 23.1458 46.4125 23.4112C46.284 23.6675 45.926 24.1343 45.623 24.4363C45.3201 24.7383 44.8336 25.1044 44.5398 25.2508C44.2553 25.3973 43.7871 25.5803 43.5117 25.6627C43.2271 25.745 42.6855 25.8091 41.4922 25.8091V33.9545L41.2627 34.1833C41.1342 34.3206 40.9322 34.4122 40.7854 34.4122C40.6477 34.4213 40.4273 34.3389 40.2988 34.2474C40.1703 34.1467 39.5186 33.4695 37.6367 31.3919V22.3954C37.6367 17.0596 37.6 13.0784 37.5449 12.6025C37.4898 12.1632 37.3797 11.5866 37.2879 11.3212C37.1961 11.065 36.9941 10.6074 36.8473 10.3236C36.7004 10.0308 36.3975 9.58232 36.1772 9.31691C35.9477 9.05149 35.5529 8.65795 35.3051 8.4383C35.048 8.21865 34.5064 7.88002 34.1025 7.67867C33.6986 7.48647 33.0836 7.26682 32.7256 7.18445C32.1748 7.07463 30.55 7.04717 10.8779 7.04717L10.9422 5.473C10.9881 4.26491 11.0432 3.75239 11.19 3.29478C11.291 2.9653 11.5297 2.45278 11.7316 2.15076C11.9244 1.84874 12.2916 1.41859 12.5395 1.19893C12.7873 0.988434 13.1545 0.723021 13.3564 0.613195C13.5584 0.512521 13.9531 0.33863 14.2285 0.219652L14.7334 0.0183043ZM18.3135 8.62134C30.2654 8.61219 31.9637 8.62134 32.4502 8.74947C32.7531 8.82269 33.2305 8.99658 33.5059 9.13386C33.7812 9.27115 34.2861 9.64639 34.6166 9.97586C34.9471 10.3053 35.3234 10.7813 35.452 11.0284C35.5805 11.2846 35.7641 11.7148 35.8559 11.9893C36.0211 12.4744 36.0303 12.9137 36.0303 21.4618C36.0303 30.0008 36.0211 30.4584 35.8559 30.9801C35.7641 31.2821 35.5713 31.7397 35.4244 31.9868C35.2867 32.2431 34.9287 32.6915 34.635 32.9844C34.3412 33.2773 33.8914 33.6342 33.6436 33.7623C33.3865 33.8905 32.9551 34.0827 32.6797 34.1742C32.1932 34.3481 31.8719 34.3572 18.3594 34.4122L14.8068 38.3293C12.8516 40.48 11.0799 42.4203 10.8596 42.6308C10.5199 42.9603 10.4189 43.0152 10.1252 42.9969C9.88652 42.9786 9.73965 42.9054 9.60195 42.7132C9.41836 42.4661 9.40918 42.3562 9.36328 34.4122H6.71953C4.61738 34.4122 3.9748 34.3847 3.53418 34.2657C3.23125 34.1925 2.75391 34.0095 2.47852 33.8722C2.20312 33.7349 1.72578 33.3688 1.42285 33.0759C1.11992 32.7739 0.743555 32.2797 0.5875 31.9868C0.422266 31.6848 0.229492 31.1723 0.146875 30.8428C0.0183594 30.3211 0 29.2137 0 21.3703C0 12.6849 0 12.4836 0.183594 11.9893C0.28457 11.7148 0.458984 11.3212 0.569141 11.1199C0.670117 10.9185 0.908789 10.5708 1.09238 10.3511C1.27598 10.1223 1.6707 9.76536 1.97363 9.54571C2.27656 9.32606 2.75391 9.06065 3.0293 8.95997C3.30469 8.8593 3.80039 8.74032 4.13086 8.70371C4.46133 8.6671 10.8412 8.62134 18.3135 8.62134ZM7.21523 16.7668C7.13262 16.8857 7.06836 17.0963 7.06836 17.2335C7.06836 17.38 7.16934 17.5813 7.29785 17.7094L7.52734 17.9382C17.01 17.9382 18.3502 17.9108 18.4695 17.8284C18.5521 17.7644 18.6623 17.5905 18.7266 17.4349C18.8 17.2244 18.8 17.1054 18.7082 16.9041C18.6439 16.7576 18.4787 16.5837 18.341 16.5105C18.1299 16.4098 17.1018 16.3915 12.925 16.3915C10.0793 16.3915 7.66504 16.4373 7.56406 16.4739C7.45391 16.5197 7.29785 16.6478 7.21523 16.7668ZM7.25195 21.4069C7.15098 21.5351 7.05918 21.7547 7.05918 21.8737C7.05918 22.0018 7.1418 22.2215 7.25195 22.3587L7.43555 22.6059C24.7668 22.6059 28.5213 22.5784 28.6406 22.5143C28.7416 22.4686 28.8609 22.3038 28.916 22.1482C28.9895 21.9469 28.9711 21.8005 28.8701 21.5534C28.76 21.3062 28.659 21.2147 28.3928 21.1507C28.1725 21.0866 24.3904 21.0591 17.9463 21.0683C12.3926 21.0774 7.75684 21.0957 7.64668 21.1232C7.53652 21.1415 7.35293 21.2696 7.25195 21.4069ZM7.29785 26.0379C7.16934 26.1752 7.07754 26.3765 7.06836 26.5413C7.06836 26.706 7.16016 26.9165 7.28867 27.0721L7.50898 27.3192C24.7301 27.365 28.1541 27.3467 28.3928 27.2826C28.6498 27.2094 28.76 27.1087 28.8701 26.8616C28.9436 26.6877 28.9803 26.4772 28.9527 26.3857C28.916 26.2942 28.8059 26.1294 28.6957 26.0196L28.5029 25.8091H7.51816L7.29785 26.0379Z" fill="#ED0000"/>
</svg>
