<svg width="132" height="43" viewBox="0 0 132 43" fill="none" xmlns="http://www.w3.org/2000/svg">
<g clip-path="url(#clip0_153_163)">
<mask id="mask0_153_163" style="mask-type:luminance" maskUnits="userSpaceOnUse" x="8" y="-1" width="123" height="24">
<path d="M124.661 18.5648C127.223 21.1579 128.509 24.1982 121.599 22.4045C114.689 20.6109 108.571 17.0183 108.571 17.0183C108.571 17.0183 110.727 16.2136 113.606 16.4135L113.637 16.4187L114.59 16.5239C114.357 16.4187 114.09 16.3135 113.794 16.2083C113.783 16.2083 113.768 16.2031 113.757 16.1978C107.348 13.9834 87.7738 12.5422 80.2388 13.9676C74.3184 9.88062 61.7174 1.9539 47.0592 2.51145C45.1327 2.58509 43.3257 2.79549 41.6335 3.11108C41.6284 3.11108 41.6284 3.11108 41.623 3.11108C30.0946 5.2361 24.018 12.0477 24.018 12.0477C18.186 12.0477 10.87 9.423 8.58411 6.4564C10.9481 8.31317 34.6456 1.2701 45.1065 0.375913C51.0219 -0.134301 54.8542 -0.4499 60.8997 1.65933C65.5497 3.27939 71.512 6.3354 80.7387 11.8426C85.5137 11.5533 90.081 11.527 94.3816 11.69C116.096 12.4948 130.978 18.0178 130.978 18.0178C128.212 18.6174 124.661 18.5648 124.661 18.5648Z" fill="white"/>
</mask>
<g mask="url(#mask0_153_163)">
<path d="M124.661 18.5648C127.223 21.1579 128.509 24.1982 121.599 22.4045C114.689 20.6109 108.571 17.0183 108.571 17.0183C108.571 17.0183 110.727 16.2136 113.606 16.4135L113.637 16.4187L114.59 16.5239C114.357 16.4187 114.09 16.3135 113.794 16.2083C113.783 16.2083 113.768 16.2031 113.757 16.1978C107.348 13.9834 87.7738 12.5422 80.2388 13.9676C74.3184 9.88062 61.7174 1.9539 47.0592 2.51145C45.1327 2.58509 43.3257 2.79549 41.6335 3.11108C41.6284 3.11108 41.6284 3.11108 41.623 3.11108C30.0946 5.2361 24.018 12.0477 24.018 12.0477C18.186 12.0477 10.87 9.423 8.58411 6.4564C10.9481 8.31317 34.6456 1.2701 45.1065 0.375913C51.0219 -0.134301 54.8542 -0.4499 60.8997 1.65933C65.5497 3.27939 71.512 6.3354 80.7387 11.8426C85.5137 11.5533 90.081 11.527 94.3816 11.69C116.096 12.4948 130.978 18.0178 130.978 18.0178C128.212 18.6174 124.661 18.5648 124.661 18.5648Z" fill="#010101"/>
</g>
<mask id="mask1_153_163" style="mask-type:luminance" maskUnits="userSpaceOnUse" x="0" y="11" width="61" height="11">
<path d="M60.6134 18.1799C45.9606 24.7338 29.4125 19.4685 16.4728 15.9812C16.4676 15.9812 16.4624 15.976 16.4572 15.976C9.75567 14.1771 4.02789 12.8516 0.0236206 13.8825C0.273561 13.7194 6.20964 10.0322 20.0501 13.3881C26.3507 14.9187 32.693 16.2284 38.8582 17.1226C46.5284 18.243 53.9224 18.7216 60.6134 18.1799Z" fill="white"/>
</mask>
<g mask="url(#mask1_153_163)">
<path d="M60.6134 18.1799C45.9606 24.7338 29.4125 19.4685 16.4728 15.9812C16.4676 15.9812 16.4624 15.976 16.4572 15.976C9.75567 14.1771 4.02789 12.8516 0.0236206 13.8825C0.273561 13.7194 6.20964 10.0322 20.0501 13.3881C26.3507 14.9187 32.693 16.2284 38.8582 17.1226C46.5284 18.243 53.9224 18.7216 60.6134 18.1799Z" fill="#010101"/>
</g>
<mask id="mask2_153_163" style="mask-type:luminance" maskUnits="userSpaceOnUse" x="0" y="15" width="13" height="6">
<path d="M0.012742 17.2833C2.49965 14.7716 9.40113 16.1172 12.7967 17.2833C6.75231 21.8805 -0.341341 20.1652 0.012742 17.2833Z" fill="white"/>
</mask>
<g mask="url(#mask2_153_163)">
<path d="M0.012742 17.2833C2.49965 14.7716 9.40113 16.1172 12.7967 17.2833C6.75231 21.8805 -0.341341 20.1652 0.012742 17.2833Z" fill="#010101"/>
</g>
<mask id="mask3_153_163" style="mask-type:luminance" maskUnits="userSpaceOnUse" x="88" y="18" width="29" height="8">
<path d="M88.0167 24.6586C94.5366 15.8609 107.881 17.988 116.488 25.5313C106.403 20.8047 94.1523 21.3022 88.0167 24.6586Z" fill="white"/>
</mask>
<g mask="url(#mask3_153_163)">
<path d="M88.0167 24.6586C94.5366 15.8609 107.881 17.988 116.488 25.5313C106.403 20.8047 94.1523 21.3022 88.0167 24.6586Z" fill="#010101"/>
</g>
<mask id="mask4_153_163" style="mask-type:luminance" maskUnits="userSpaceOnUse" x="127" y="19" width="5" height="18">
<path d="M131.519 19.4919C133.047 25.9753 130.092 32.1158 127.138 36.7466C129.497 26.7128 128.896 22.4165 127.774 19.8433C129.57 19.7902 131.519 19.4919 131.519 19.4919Z" fill="white"/>
</mask>
<g mask="url(#mask4_153_163)">
<path d="M131.519 19.4919C133.047 25.9753 130.092 32.1158 127.138 36.7466C129.497 26.7128 128.896 22.4165 127.774 19.8433C129.57 19.7902 131.519 19.4919 131.519 19.4919Z" fill="#010101"/>
</g>
<mask id="mask5_153_163" style="mask-type:luminance" maskUnits="userSpaceOnUse" x="8" y="-1" width="53" height="14">
<path d="M60.8997 1.65914C52.8859 0.070634 48.2882 1.08581 41.6335 3.11088C41.6284 3.11088 41.6284 3.11088 41.623 3.11088C30.0946 5.2359 24.018 12.0475 24.018 12.0475C18.186 12.0475 10.87 9.42283 8.58411 6.45623C10.9481 8.31296 34.6456 1.2699 45.1065 0.375715C51.0219 -0.134499 54.8542 -0.4501 60.8997 1.65914Z" fill="white"/>
</mask>
<g mask="url(#mask5_153_163)">
<path d="M60.8997 1.65914C52.8859 0.070634 48.2882 1.08581 41.6335 3.11088C41.6284 3.11088 41.6284 3.11088 41.623 3.11088C30.0946 5.2359 24.018 12.0475 24.018 12.0475C18.186 12.0475 10.87 9.42283 8.58411 6.45623C10.9481 8.31296 34.6456 1.2699 45.1065 0.375715C51.0219 -0.134499 54.8542 -0.4501 60.8997 1.65914Z" fill="#010101"/>
</g>
<mask id="mask6_153_163" style="mask-type:luminance" maskUnits="userSpaceOnUse" x="94" y="11" width="37" height="12">
<path d="M124.661 18.5648C127.223 21.1579 128.509 24.1982 121.599 22.4045C114.689 20.6109 108.571 17.0183 108.571 17.0183C108.571 17.0183 110.726 16.2136 113.606 16.4135L113.638 16.4187L114.59 16.5239C114.325 16.4187 114.059 16.3135 113.794 16.2083C113.783 16.2083 113.768 16.2031 113.757 16.1978C103.775 12.3633 94.3815 11.69 94.3815 11.69C116.096 12.4948 130.978 18.0178 130.978 18.0178C128.212 18.6174 124.661 18.5648 124.661 18.5648Z" fill="white"/>
</mask>
<g mask="url(#mask6_153_163)">
<path d="M124.661 18.5648C127.223 21.1579 128.509 24.1982 121.599 22.4045C114.689 20.6109 108.571 17.0183 108.571 17.0183C108.571 17.0183 110.726 16.2136 113.606 16.4135L113.638 16.4187L114.59 16.5239C114.325 16.4187 114.059 16.3135 113.794 16.2083C113.783 16.2083 113.768 16.2031 113.757 16.1978C103.775 12.3633 94.3815 11.69 94.3815 11.69C116.096 12.4948 130.978 18.0178 130.978 18.0178C128.212 18.6174 124.661 18.5648 124.661 18.5648Z" fill="#010101"/>
</g>
<mask id="mask7_153_163" style="mask-type:luminance" maskUnits="userSpaceOnUse" x="16" y="15" width="45" height="7">
<path d="M60.6134 18.1799C45.9606 24.7338 29.4126 19.4685 16.473 15.9812C24.8095 18.2272 24.9032 16.5914 38.8583 17.1226C46.5285 18.243 53.9224 18.7216 60.6134 18.1799Z" fill="white"/>
</mask>
<g mask="url(#mask7_153_163)">
<path d="M60.6134 18.1799C45.9606 24.7338 29.4126 19.4685 16.473 15.9812C24.8095 18.2272 24.9032 16.5914 38.8583 17.1226C46.5285 18.243 53.9224 18.7216 60.6134 18.1799Z" fill="#010101"/>
</g>
<path d="M19.2064 32.8418L18.6558 34.3921C18.4371 35.0075 18.0582 35.3705 17.5193 35.4809C17.6443 35.5125 17.7458 35.6032 17.8239 35.7531C17.9098 35.903 17.9528 36.0727 17.9528 36.262C17.9528 36.3725 17.9333 36.4829 17.8942 36.5934L17.0038 39.1971C16.7617 39.8993 16.3165 40.2504 15.6682 40.2504H7.04523L10.3608 30.818H17.7185C18.1949 30.818 18.5816 30.9324 18.8784 31.1612C19.183 31.3821 19.3353 31.7017 19.3353 32.1198C19.3353 32.3407 19.2923 32.5814 19.2064 32.8418ZM16.418 33.5163C16.4258 33.4848 16.4297 33.4532 16.4297 33.4217C16.4297 33.1692 16.2345 33.0429 15.8439 33.0429H12.13L11.7082 34.2501H15.5042C15.7775 34.2501 15.9728 34.2185 16.09 34.1554C16.1837 34.1002 16.254 33.9976 16.3008 33.8477L16.418 33.5163ZM15.1761 37.0905C15.1917 37.0352 15.1995 36.98 15.1995 36.9248C15.1995 36.6092 15.0277 36.4514 14.684 36.4514H10.9349L10.3843 38.0254H14.0748C14.5825 38.0254 14.8988 37.8518 15.0238 37.5047L15.1761 37.0905ZM31.3524 33.3151L29.2318 39.3746C29.1225 39.6823 28.9233 39.9151 28.6343 40.0729C28.4078 40.1912 28.1617 40.2504 27.8962 40.2504H21.1126C20.1754 40.2504 19.7067 39.844 19.7067 39.0314C19.7067 38.6684 19.7965 38.2463 19.9762 37.7651L20.1754 37.268L22.0968 31.7056C22.1983 31.3979 22.3936 31.1651 22.6826 31.0073C22.9169 30.8811 23.1668 30.818 23.4324 30.818H30.216C31.1454 30.818 31.6102 31.2243 31.6102 32.037C31.6102 32.3762 31.5242 32.8023 31.3524 33.3151ZM28.6226 33.7767C28.6538 33.6978 28.6694 33.6189 28.6694 33.54C28.6694 33.2086 28.5289 33.0429 28.2477 33.0429H24.85C24.397 33.0429 24.0885 33.2796 23.9245 33.753L22.706 37.2917C22.6748 37.3706 22.6591 37.4534 22.6591 37.5402C22.6591 37.8637 22.7997 38.0254 23.0809 38.0254H26.4786C26.7597 38.0254 26.9745 37.9544 27.1229 37.8124C27.2167 37.7177 27.3065 37.556 27.3924 37.3272L28.6226 33.7767ZM44.1056 33.3151L41.985 39.3746C41.8757 39.6823 41.6765 39.9151 41.3875 40.0729C41.161 40.1912 40.9149 40.2504 40.6494 40.2504H33.8657C32.9284 40.2504 32.4598 39.844 32.4598 39.0314C32.4598 38.6684 32.5496 38.2463 32.7292 37.7651L32.9284 37.268L34.8498 31.7056C34.9514 31.3979 35.1466 31.1651 35.4356 31.0073C35.6699 30.8811 35.9199 30.818 36.1854 30.818H42.9691C43.8986 30.818 44.3633 31.2243 44.3633 32.037C44.3633 32.3762 44.2774 32.8023 44.1056 33.3151ZM41.3758 33.7767C41.407 33.6978 41.4226 33.6189 41.4226 33.54C41.4226 33.2086 41.282 33.0429 41.0009 33.0429H37.6031C37.1501 33.0429 36.8415 33.2796 36.6775 33.753L35.459 37.2917C35.4278 37.3706 35.4122 37.4534 35.4122 37.5402C35.4122 37.8637 35.5528 38.0254 35.834 38.0254H39.2317C39.5129 38.0254 39.7277 37.9544 39.8761 37.8124C39.9699 37.7177 40.0597 37.556 40.1456 37.3272L41.3758 33.7767ZM54.3032 40.2622H51.7842L54.0103 33.7885C54.0415 33.7096 54.0571 33.6268 54.0571 33.54C54.0571 33.2165 53.9165 33.0548 53.6354 33.0548H50.2495C49.7964 33.0548 49.484 33.2994 49.3122 33.7885L47.0861 40.2622H44.5321L47.7891 30.8298H62.8324C63.7619 30.8298 64.2266 31.2322 64.2266 32.037C64.2266 32.3762 64.1368 32.8023 63.9571 33.3151L61.5202 40.2622H59.0013L61.2273 33.7885C61.2586 33.7096 61.2742 33.6268 61.2742 33.54C61.2742 33.2165 61.1336 33.0548 60.8524 33.0548H57.4665C57.0135 33.0548 56.701 33.2994 56.5292 33.7885L54.3032 40.2622ZM72.3544 34.3566L71.71 36.1792H64.9733L65.6294 34.3566H72.3544ZM84.746 32.6997L82.1099 40.2504H74.2485C73.8189 40.2504 73.4986 40.1084 73.2877 39.8243C73.1159 39.5797 73.03 39.272 73.03 38.9012C73.03 38.6487 73.069 38.416 73.1471 38.2029L74.1547 35.2797C74.3969 34.5696 74.8928 34.2146 75.6427 34.2146H81.6647L81.8404 33.6584C81.8638 33.5873 81.8755 33.5203 81.8755 33.4572C81.8755 33.181 81.6998 33.0429 81.3483 33.0429H74.9163L75.6895 30.818H83.6095C84.4374 30.818 84.8514 31.2362 84.8514 32.0725C84.8514 32.2934 84.8163 32.5025 84.746 32.6997ZM80.8914 36.4514H76.8611C76.494 36.4514 76.2519 36.6171 76.1347 36.9484L75.9824 37.3508C75.9512 37.4534 75.9356 37.5481 75.9356 37.6349C75.9356 37.8952 76.0683 38.0254 76.3339 38.0254H80.3408L80.8914 36.4514ZM96.6857 30.818L89.0469 40.2504H84.63L87.8402 30.818H90.3122L87.805 38.0254L93.2998 30.818H96.6857ZM100.427 40.2504H97.8733L100.392 33.0548H96.5494L97.3461 30.8062H107.457L106.672 33.0548H102.946L100.427 40.2504ZM118.782 33.3151L116.661 39.3746C116.552 39.6823 116.353 39.9151 116.064 40.0729C115.837 40.1912 115.591 40.2504 115.325 40.2504H108.542C107.605 40.2504 107.136 39.844 107.136 39.0314C107.136 38.6684 107.226 38.2463 107.405 37.7651L107.605 37.268L109.526 31.7056C109.628 31.3979 109.823 31.1651 110.112 31.0073C110.346 30.8811 110.596 30.818 110.862 30.818H117.645C118.575 30.818 119.039 31.2243 119.039 32.037C119.039 32.3762 118.953 32.8023 118.782 33.3151ZM116.052 33.7767C116.083 33.6978 116.099 33.6189 116.099 33.54C116.099 33.2086 115.958 33.0429 115.677 33.0429H112.279C111.826 33.0429 111.518 33.2796 111.354 33.753L110.135 37.2917C110.104 37.3706 110.088 37.4534 110.088 37.5402C110.088 37.8637 110.229 38.0254 110.51 38.0254H113.908C114.189 38.0254 114.404 37.9544 114.552 37.8124C114.646 37.7177 114.736 37.556 114.822 37.3272L116.052 33.7767Z" fill="black"/>
</g>
<defs>
<clipPath id="clip0_153_163">
<rect width="132" height="43" fill="white"/>
</clipPath>
</defs>
</svg>
