<svg width="13" height="13" viewBox="0 0 13 13" fill="none" xmlns="http://www.w3.org/2000/svg">
<g clip-path="url(#clip0_343_11)">
<path d="M9.99445 12.6666C9.74778 12.6666 9.51482 12.5981 9.29556 12.4611L6.62334 10.7755C6.54111 10.7207 6.45889 10.7207 6.37667 10.7755L3.70445 12.4611C3.45778 12.6255 3.18371 12.6872 2.88222 12.6461C2.58074 12.605 2.32037 12.4885 2.10111 12.2966C1.82704 12.05 1.69 11.7348 1.69 11.3511V1.64885C1.69 1.29255 1.82019 0.984219 2.08056 0.723848C2.34093 0.463478 2.64926 0.333292 3.00556 0.333292H9.99445C10.3507 0.333292 10.6591 0.463478 10.9194 0.723848C11.1798 0.984219 11.31 1.29255 11.31 1.64885V11.3511C11.31 11.7074 11.1798 12.0157 10.9194 12.2761C10.6591 12.5364 10.3507 12.6666 9.99445 12.6666ZM6.5 9.66551C6.74667 9.66551 6.97963 9.73403 7.19889 9.87107L9.87111 11.5566C9.89852 11.584 9.93963 11.5977 9.99445 11.5977C10.0493 11.5977 10.0972 11.5772 10.1383 11.5361C10.1794 11.495 10.2 11.4333 10.2 11.3511V1.64885C10.2 1.56663 10.1794 1.50496 10.1383 1.46385C10.0972 1.42274 10.0493 1.40218 9.99445 1.40218H3.00556C2.95074 1.40218 2.90278 1.42274 2.86167 1.46385C2.82056 1.50496 2.8 1.56663 2.8 1.64885V11.3511C2.8 11.4333 2.83426 11.5018 2.90278 11.5566C2.9713 11.6114 3.04667 11.6114 3.12889 11.5566L5.80111 9.87107C6.02037 9.73403 6.25334 9.66551 6.5 9.66551Z" fill="#050B20"/>
</g>
<defs>
<clipPath id="clip0_343_11">
<rect width="12.3333" height="12.3333" fill="white" transform="matrix(1 0 0 -1 0.333313 12.6666)"/>
</clipPath>
</defs>
</svg>
