<svg width="13" height="13" viewBox="0 0 13 13" fill="none" xmlns="http://www.w3.org/2000/svg">
<g clip-path="url(#clip0_205_2479)">
<path d="M3 1H11L10.5 12L7 10L3 11.5V1Z" fill="#202020"/>
<path d="M10.3044 12.3334C10.0578 12.3334 9.82482 12.2648 9.60556 12.1278L6.93334 10.4422C6.85111 10.3874 6.76889 10.3874 6.68667 10.4422L4.01445 12.1278C3.76778 12.2922 3.49371 12.3539 3.19223 12.3128C2.89074 12.2717 2.63037 12.1552 2.41111 11.9634C2.13704 11.7167 2 11.4015 2 11.0178V1.31556C2 0.959257 2.13019 0.650926 2.39056 0.390556C2.65093 0.130185 2.95926 0 3.31556 0H10.3044C10.6607 0 10.9691 0.130185 11.2294 0.390556C11.4898 0.650926 11.62 0.959257 11.62 1.31556V11.0178C11.62 11.3741 11.4898 11.6824 11.2294 11.9428C10.9691 12.2032 10.6607 12.3334 10.3044 12.3334ZM6.81 9.33223C7.05667 9.33223 7.28963 9.40074 7.50889 9.53778L10.1811 11.2234C10.2085 11.2508 10.2496 11.2645 10.3044 11.2645C10.3593 11.2645 10.4072 11.2439 10.4483 11.2028C10.4894 11.1617 10.51 11.1 10.51 11.0178V1.31556C10.51 1.23334 10.4894 1.17167 10.4483 1.13056C10.4072 1.08945 10.3593 1.06889 10.3044 1.06889H3.31556C3.26074 1.06889 3.21278 1.08945 3.17167 1.13056C3.13056 1.17167 3.11 1.23334 3.11 1.31556V11.0178C3.11 11.1 3.14426 11.1685 3.21278 11.2234C3.2813 11.2782 3.35667 11.2782 3.43889 11.2234L6.11111 9.53778C6.33037 9.40074 6.56334 9.33223 6.81 9.33223Z" fill="#202020"/>
</g>
<defs>
<clipPath id="clip0_205_2479">
<rect width="12.3333" height="12.3333" fill="white" transform="matrix(1 0 0 -1 0.333008 12.6666)"/>
</clipPath>
</defs>
</svg>
