<svg width="65" height="65" viewBox="0 0 65 65" fill="none" xmlns="http://www.w3.org/2000/svg">
<circle cx="32.5" cy="32.5" r="32.5" fill="#FCB04C" fill-opacity="0.1"/>
<path d="M31.4451 16.9459C31.619 16.9033 31.7965 16.8642 31.8355 16.8536C31.8746 16.8429 32.1762 16.8429 32.5098 16.85C33.028 16.8607 33.1593 16.8749 33.4503 16.953C33.6348 17.0062 33.9152 17.1091 34.0714 17.1801C34.2275 17.2546 34.483 17.4037 34.6392 17.5066C34.7953 17.6131 35.0438 17.8189 35.1928 17.968C35.3383 18.1135 35.5335 18.3299 35.6222 18.4471C35.7074 18.5642 36.6337 19.9766 37.6735 21.5879C38.7133 23.1991 39.8384 24.938 40.1755 25.4562C40.5126 25.9743 41.6306 27.7133 42.6668 29.3245C43.6996 30.9357 44.8707 32.7634 45.2682 33.388C45.6657 34.0126 46.3187 35.0525 46.7233 35.6948C47.1278 36.3372 47.607 37.1215 47.795 37.4338C47.9796 37.7461 48.1961 38.1294 48.2777 38.2855C48.3558 38.4417 48.4622 38.6972 48.5119 38.8534C48.5616 39.0095 48.629 39.258 48.6574 39.4035C48.6894 39.549 48.7249 39.8364 48.7355 40.0423C48.7497 40.2694 48.7391 40.5462 48.7107 40.7521C48.6894 40.9366 48.629 41.2418 48.5794 41.4263C48.5332 41.6109 48.4232 41.9161 48.3345 42.1006C48.2458 42.2852 48.1073 42.5336 48.0293 42.6507C47.9476 42.7678 47.8163 42.9417 47.7383 43.0376C47.6566 43.1334 47.465 43.3108 47.3088 43.435C47.1527 43.5628 46.922 43.719 46.7942 43.7828C46.6665 43.8503 46.4216 43.9496 46.2442 43.9993C45.9744 44.0774 45.8147 44.0987 45.2327 44.1271C44.821 44.1448 39.4586 44.1448 32.0485 44.1306C20.1951 44.1022 19.5456 44.0951 19.3256 44.0348C19.1978 43.9993 18.9991 43.9283 18.8819 43.8787C18.7648 43.8254 18.5732 43.719 18.4561 43.6373C18.339 43.5592 18.158 43.4173 18.0515 43.3215C17.945 43.2256 17.764 43.0198 17.6469 42.8637C17.5298 42.7075 17.3595 42.42 17.2636 42.2249C17.1678 42.0297 17.0507 41.7174 17.0046 41.5328C16.9584 41.3483 16.8981 41.0608 16.8768 40.894C16.8484 40.7095 16.8378 40.4255 16.852 40.1665C16.8626 39.9322 16.9052 39.5916 16.9442 39.4106C16.9868 39.2331 17.0684 38.9527 17.1252 38.793C17.1856 38.6298 17.3453 38.2891 17.4872 38.0371C17.6256 37.7851 18.0373 37.0647 18.4028 36.4401C18.7684 35.8155 19.3362 34.8502 19.6627 34.293C19.9928 33.7358 20.3831 33.0722 20.5322 32.8202C20.6813 32.5682 21.2313 31.642 21.7566 30.7618C22.2783 29.8852 23.0271 28.6289 23.4175 27.9759C23.8079 27.3229 24.6135 25.9743 25.2097 24.9771C25.8059 23.9798 26.8919 22.1699 27.623 20.949C28.354 19.7282 29.0532 18.6032 29.1738 18.4471C29.298 18.2909 29.4755 18.0886 29.5713 17.9999C29.6636 17.9112 29.8197 17.7728 29.9191 17.6947C30.0149 17.6131 30.2243 17.4747 30.3805 17.3824C30.5366 17.2866 30.7673 17.1694 30.8951 17.1162C31.0228 17.063 31.2712 16.9849 31.4451 16.9459Z" stroke="#FCB04C" stroke-width="2"/>
<path d="M31.5193 24.2779C31.6152 24.2247 31.8139 24.1502 31.9594 24.1111C32.112 24.0721 32.3462 24.0402 32.5095 24.0366C32.6976 24.0366 32.8715 24.0579 33.0241 24.1076C33.1518 24.1466 33.3328 24.2318 33.4322 24.2957C33.528 24.3631 33.6806 24.4909 33.7694 24.5796C33.8581 24.6683 33.9787 24.8351 34.0355 24.9487C34.1278 25.1297 34.142 25.19 34.1384 25.4384C34.1384 25.5946 34.103 25.9637 34.0568 26.2547C34.0142 26.5493 33.9468 26.9858 33.9078 27.2307C33.8652 27.4755 33.741 28.2173 33.6274 28.8809C33.5138 29.5446 33.3541 30.4637 33.2725 30.9215C33.1909 31.3793 32.9957 32.4014 32.8395 33.1928C32.6834 33.9843 32.5414 34.6621 32.5272 34.7011C32.5095 34.7508 32.4846 34.694 32.4421 34.4882C32.4101 34.3475 32.3348 34.0107 32.2657 33.7014L32.2433 33.601C32.1688 33.2674 32.002 32.4618 31.8742 31.8088C31.7465 31.1558 31.5761 30.2685 31.498 29.8391C31.4164 29.4097 31.2638 28.5792 31.1573 27.9937C31.0544 27.4081 30.9231 26.6664 30.8734 26.3434C30.8095 25.9246 30.7847 25.6691 30.7954 25.4384C30.8095 25.1758 30.8273 25.0836 30.9125 24.9239C30.9657 24.8174 31.0864 24.6506 31.1786 24.5512C31.2709 24.4554 31.4271 24.3312 31.5193 24.2779Z" fill="#FCB04C"/>
<path d="M31.8032 36.3159C31.8991 36.2698 32.0481 36.2094 32.1368 36.1881C32.2256 36.1633 32.3604 36.142 32.4385 36.142C32.5166 36.1385 32.6692 36.1527 32.7757 36.1739C32.8821 36.1952 33.0667 36.2556 33.1838 36.3124C33.3009 36.3656 33.4748 36.4898 33.5671 36.5856C33.6593 36.6814 33.7942 36.8695 33.8616 37.0079C33.9421 37.1736 33.9953 37.351 34.0213 37.5403C34.0533 37.7568 34.0533 37.8845 34.0213 38.0726C33.9965 38.211 33.9397 38.4062 33.8936 38.5056C33.8439 38.6085 33.7303 38.7753 33.638 38.8747C33.5422 38.974 33.3861 39.0912 33.2902 39.1408C33.1944 39.187 32.985 39.2438 32.8289 39.2686C32.6089 39.3005 32.4846 39.3005 32.2788 39.2686C32.1333 39.2438 31.9239 39.1799 31.8174 39.1302C31.711 39.077 31.5406 38.9528 31.4413 38.8534C31.3206 38.7398 31.2106 38.5801 31.129 38.4098C31.058 38.2643 30.9905 38.0478 30.9728 37.9307C30.9551 37.8135 30.9551 37.6219 30.9657 37.5048C30.9799 37.3841 31.0367 37.1996 31.0935 37.0825C31.1502 36.9654 31.2922 36.7666 31.4129 36.6389C31.5335 36.5075 31.7074 36.3656 31.8032 36.3159Z" fill="#FCB04C"/>
</svg>
