<svg width="23" height="19" viewBox="0 0 23 19" fill="none" xmlns="http://www.w3.org/2000/svg">
<path d="M17.3267 1.45667H16.63V0.76C16.63 0.548889 16.5561 0.369444 16.4083 0.221666C16.2606 0.0738888 16.0811 0 15.87 0C15.6589 0 15.4794 0.0738888 15.3317 0.221666C15.1839 0.369444 15.11 0.548889 15.11 0.76V1.45667H7.89V0.76C7.89 0.548889 7.81611 0.369444 7.66833 0.221666C7.52056 0.0738888 7.34111 0 7.13 0C6.91889 0 6.73944 0.0738888 6.59167 0.221666C6.44389 0.369444 6.37 0.548889 6.37 0.76V1.45667H5.67333C4.99778 1.45667 4.38556 1.62556 3.83667 1.96333C3.28778 2.30111 2.84444 2.74444 2.50667 3.29333C2.16889 3.84222 2 4.45444 2 5.13V15.3267C2 16.0022 2.16889 16.6144 2.50667 17.1633C2.84444 17.7122 3.28778 18.1556 3.83667 18.4933C4.38556 18.8311 4.99778 19 5.67333 19H17.3267C18.0022 19 18.6144 18.8311 19.1633 18.4933C19.7122 18.1556 20.1556 17.7122 20.4933 17.1633C20.8311 16.6144 21 16.0022 21 15.3267V5.13C21 4.45444 20.8311 3.84222 20.4933 3.29333C20.1556 2.74444 19.7122 2.30111 19.1633 1.96333C18.6144 1.62556 18.0022 1.45667 17.3267 1.45667ZM5.67333 2.97667H6.37V4.37C6.37 4.58111 6.44389 4.76056 6.59167 4.90833C6.73944 5.05611 6.91889 5.13 7.13 5.13C7.34111 5.13 7.52056 5.05611 7.66833 4.90833C7.81611 4.76056 7.89 4.58111 7.89 4.37V2.97667H15.11V4.37C15.11 4.58111 15.1839 4.76056 15.3317 4.90833C15.4794 5.05611 15.6589 5.13 15.87 5.13C16.0811 5.13 16.2606 5.05611 16.4083 4.90833C16.5561 4.76056 16.63 4.58111 16.63 4.37V2.97667H17.3267C17.9178 2.97667 18.435 3.18778 18.8783 3.61C19.3217 4.03222 19.5433 4.53889 19.5433 5.13V5.82667H3.45667V5.13C3.45667 4.53889 3.67833 4.03222 4.12167 3.61C4.565 3.18778 5.08222 2.97667 5.67333 2.97667ZM17.3267 17.5433H5.67333C5.08222 17.5433 4.565 17.3217 4.12167 16.8783C3.67833 16.435 3.45667 15.9178 3.45667 15.3267V7.34667H19.5433V15.3267C19.5433 15.9178 19.3217 16.435 18.8783 16.8783C18.435 17.3217 17.9178 17.5433 17.3267 17.5433ZM8.58667 10.26C8.58667 10.4711 8.51278 10.64 8.365 10.7667C8.21722 10.8933 8.03778 10.9567 7.82667 10.9567H6.37C6.15889 10.9567 5.99 10.8933 5.86333 10.7667C5.73667 10.64 5.67333 10.4711 5.67333 10.26C5.67333 10.0489 5.73667 9.86944 5.86333 9.72167C5.99 9.57389 6.15889 9.5 6.37 9.5H7.82667C8.03778 9.5 8.21722 9.57389 8.365 9.72167C8.51278 9.86944 8.58667 10.0489 8.58667 10.26ZM17.3267 10.26C17.3267 10.4711 17.2633 10.64 17.1367 10.7667C17.01 10.8933 16.8411 10.9567 16.63 10.9567H15.1733C14.9622 10.9567 14.7828 10.8933 14.635 10.7667C14.4872 10.64 14.4133 10.4711 14.4133 10.26C14.4133 10.0489 14.4872 9.86944 14.635 9.72167C14.7828 9.57389 14.9622 9.5 15.1733 9.5H16.63C16.8411 9.5 17.01 9.57389 17.1367 9.72167C17.2633 9.86944 17.3267 10.0489 17.3267 10.26ZM12.9567 10.26C12.9567 10.4711 12.8828 10.64 12.735 10.7667C12.5872 10.8933 12.4078 10.9567 12.1967 10.9567H10.74C10.5711 10.9567 10.4128 10.8933 10.265 10.7667C10.1172 10.64 10.0433 10.4711 10.0433 10.26C10.0433 10.0489 10.1172 9.86944 10.265 9.72167C10.4128 9.57389 10.5711 9.5 10.74 9.5H12.1967C12.4078 9.5 12.5872 9.57389 12.735 9.72167C12.8828 9.86944 12.9567 10.0489 12.9567 10.26ZM8.58667 14.63C8.58667 14.8411 8.51278 15.0206 8.365 15.1683C8.21722 15.3161 8.03778 15.39 7.82667 15.39H6.37C6.15889 15.39 5.99 15.3161 5.86333 15.1683C5.73667 15.0206 5.67333 14.8411 5.67333 14.63C5.67333 14.4189 5.73667 14.2394 5.86333 14.0917C5.99 13.9439 6.15889 13.87 6.37 13.87H7.82667C8.03778 13.87 8.21722 13.9439 8.365 14.0917C8.51278 14.2394 8.58667 14.4189 8.58667 14.63ZM17.3267 14.63C17.3267 14.8411 17.2633 15.0206 17.1367 15.1683C17.01 15.3161 16.8411 15.39 16.63 15.39H15.1733C14.9622 15.39 14.7828 15.3161 14.635 15.1683C14.4872 15.0206 14.4133 14.8411 14.4133 14.63C14.4133 14.4189 14.4872 14.2394 14.635 14.0917C14.7828 13.9439 14.9622 13.87 15.1733 13.87H16.63C16.8411 13.87 17.01 13.9439 17.1367 14.0917C17.2633 14.2394 17.3267 14.4189 17.3267 14.63ZM12.9567 14.63C12.9567 14.8411 12.8828 15.0206 12.735 15.1683C12.5872 15.3161 12.4078 15.39 12.1967 15.39H10.74C10.5711 15.39 10.4128 15.3161 10.265 15.1683C10.1172 15.0206 10.0433 14.8411 10.0433 14.63C10.0433 14.4189 10.1172 14.2394 10.265 14.0917C10.4128 13.9439 10.5711 13.87 10.74 13.87H12.1967C12.4078 13.87 12.5872 13.9439 12.735 14.0917C12.8828 14.2394 12.9567 14.4189 12.9567 14.63Z" fill="#989898"/>
</svg>
