<svg width="23" height="19" viewBox="0 0 23 19" fill="none" xmlns="http://www.w3.org/2000/svg">
<path d="M9 8.86667C8.83333 8.86667 8.6875 8.80333 8.5625 8.67667C8.4375 8.55 8.375 8.40222 8.375 8.23333V6.33333C8.33333 6.08 8.42708 5.87945 8.65625 5.73167C8.88542 5.58389 9.11458 5.58389 9.34375 5.73167C9.57292 5.87945 9.66667 6.08 9.625 6.33333V8.23333C9.625 8.40222 9.5625 8.55 9.4375 8.67667C9.3125 8.80333 9.16667 8.86667 9 8.86667ZM11.5 8.86667C11.3333 8.86667 11.1875 8.80333 11.0625 8.67667C10.9375 8.55 10.875 8.40222 10.875 8.23333V5.7C10.875 5.53111 10.9375 5.39389 11.0625 5.28833C11.1875 5.18278 11.3333 5.13 11.5 5.13C11.6667 5.13 11.8125 5.18278 11.9375 5.28833C12.0625 5.39389 12.125 5.53111 12.125 5.7V8.23333C12.125 8.40222 12.0625 8.55 11.9375 8.67667C11.8125 8.80333 11.6667 8.86667 11.5 8.86667ZM14 8.86667C13.8333 8.86667 13.6875 8.80333 13.5625 8.67667C13.4375 8.55 13.375 8.40222 13.375 8.23333V4.43333C13.3333 4.18 13.4271 3.97944 13.6562 3.83167C13.8854 3.68389 14.1146 3.68389 14.3438 3.83167C14.5729 3.97944 14.6667 4.18 14.625 4.43333V8.23333C14.625 8.40222 14.5625 8.55 14.4375 8.67667C14.3125 8.80333 14.1667 8.86667 14 8.86667ZM16.5 19H6.5C5.79167 19 5.19792 18.7572 4.71875 18.2717C4.23958 17.7861 4 17.1844 4 16.4667V5.00333C4 4.53889 4.09375 4.085 4.28125 3.64167C4.46875 3.19833 4.75 2.82889 5.125 2.53333L7.3125 0.76C7.85417 0.253334 8.5 0 9.25 0H16.5C17.2083 0 17.8021 0.242779 18.2812 0.728334C18.7604 1.21389 19 1.81556 19 2.53333V16.4667C19 17.1844 18.7604 17.7861 18.2812 18.2717C17.8021 18.7572 17.2083 19 16.5 19ZM9.25 1.26667C8.83333 1.26667 8.45833 1.41444 8.125 1.71L5.9375 3.54667C5.47917 3.92667 5.25 4.41222 5.25 5.00333V16.4667C5.25 16.8044 5.375 17.1 5.625 17.3533C5.875 17.6067 6.16667 17.7333 6.5 17.7333H16.5C16.8333 17.7333 17.125 17.6067 17.375 17.3533C17.625 17.1 17.75 16.8044 17.75 16.4667V2.53333C17.75 2.19556 17.625 1.9 17.375 1.64667C17.125 1.39333 16.8333 1.26667 16.5 1.26667H9.25ZM15.25 15.2H7.75C7.5 15.2422 7.30208 15.1472 7.15625 14.915C7.01042 14.6828 7.01042 14.4506 7.15625 14.2183C7.30208 13.9861 7.5 13.8911 7.75 13.9333H15.25C15.5 13.8911 15.6979 13.9861 15.8438 14.2183C15.9896 14.4506 15.9896 14.6828 15.8438 14.915C15.6979 15.1472 15.5 15.2422 15.25 15.2ZM15.25 12.0333H7.75C7.58333 12.0333 7.44792 11.97 7.34375 11.8433C7.23958 11.7167 7.1875 11.5689 7.1875 11.4C7.1875 11.2311 7.23958 11.0833 7.34375 10.9567C7.44792 10.83 7.58333 10.7667 7.75 10.7667H15.25C15.5 10.7244 15.6979 10.8194 15.8438 11.0517C15.9896 11.2839 15.9896 11.5161 15.8438 11.7483C15.6979 11.9806 15.5 12.0756 15.25 12.0333Z" fill="#989898"/>
</svg>
