<svg width="24" height="22" viewBox="0 0 24 22" fill="none" xmlns="http://www.w3.org/2000/svg">
<path d="M12.5 12.2667C9.42381 12.2667 7.07143 12.9556 5.44286 14.3333C3.81429 15.7111 3 17.6889 3 20.2667C3 20.4889 3.07917 20.6667 3.2375 20.8C3.39583 20.9333 3.56548 21 3.74643 21H21.2536C21.4345 21 21.6042 20.9333 21.7625 20.8C21.9208 20.6667 22 20.4889 22 20.2667C22 17.6889 21.1857 15.7111 19.5571 14.3333C17.9286 12.9556 15.5762 12.2667 12.5 12.2667ZM4.56071 19.5333C4.83214 15.6667 7.47857 13.7333 12.5 13.7333C17.5214 13.7333 20.1679 15.6667 20.4393 19.5333H4.56071ZM12.5 0.999998C11.5952 0.999998 10.7583 1.21111 9.98929 1.63333C9.22024 2.05556 8.62083 2.64444 8.19107 3.4C7.76131 4.15555 7.54643 5 7.54643 5.93333C7.54643 6.86667 7.77262 7.74444 8.225 8.56667C8.67738 9.38889 9.27679 10.0333 10.0232 10.5C10.7696 10.9667 11.5952 11.2 12.5 11.2C13.4048 11.2 14.2304 10.9667 14.9768 10.5C15.7232 10.0333 16.3226 9.38889 16.775 8.56667C17.2274 7.74444 17.4536 6.86667 17.4536 5.93333C17.4536 5 17.2387 4.15555 16.8089 3.4C16.3792 2.64444 15.7798 2.05556 15.0107 1.63333C14.2417 1.21111 13.4048 0.999998 12.5 0.999998ZM12.5 9.73333C11.55 9.73333 10.7357 9.36667 10.0571 8.63333C9.37857 7.9 9.03929 7.01111 9.03929 5.96667C9.03929 4.92222 9.36726 4.07778 10.0232 3.43333C10.6792 2.78889 11.5048 2.46667 12.5 2.46667C13.4952 2.46667 14.3208 2.8 14.9768 3.46667C15.6327 4.13333 15.9607 4.97778 15.9607 6C15.9607 7.02222 15.6214 7.9 14.9429 8.63333C14.2643 9.36667 13.45 9.73333 12.5 9.73333Z" fill="#989898"/>
</svg>
