<svg width="23" height="17" viewBox="0 0 23 17" fill="none" xmlns="http://www.w3.org/2000/svg">
<path d="M20 10.3569C20 12.7202 19.3333 14.8287 18 16.6822C17.8667 16.8676 17.6889 16.9719 17.4667 16.995C17.2444 17.0182 17.0444 16.9603 16.8667 16.8213C16.6889 16.6822 16.5889 16.5085 16.5667 16.2999C16.5444 16.0914 16.6 15.8945 16.7333 15.7091C17.8889 14.1336 18.4667 12.3495 18.4667 10.3569C18.4667 8.78135 18.0889 7.32165 17.3333 5.9778C16.5778 4.63396 15.5444 3.56815 14.2333 2.78037C12.9222 1.9926 11.5111 1.59871 10 1.59871C8.48889 1.59871 7.07778 1.9926 5.76667 2.78037C4.45556 3.56815 3.42222 4.63396 2.66667 5.9778C1.91111 7.32165 1.53333 8.78135 1.53333 10.3569C1.53333 12.3495 2.11111 14.1336 3.26667 15.7091C3.4 15.8945 3.45556 16.0914 3.43333 16.2999C3.41111 16.5085 3.31111 16.6822 3.13333 16.8213C2.95556 16.9603 2.75556 17.0182 2.53333 16.995C2.31111 16.9719 2.13333 16.8676 2 16.6822C0.666667 14.8287 0 12.7202 0 10.3569C0 8.50331 0.444444 6.77716 1.33333 5.17845C2.22222 3.57973 3.43333 2.31698 4.96667 1.39019C6.5 0.463394 8.17778 0 10 0C11.8222 0 13.5 0.463394 15.0333 1.39019C16.5667 2.31698 17.7778 3.57973 18.6667 5.17845C19.5556 6.77716 20 8.50331 20 10.3569ZM14.9333 5.49124C15.1111 5.63026 15.2 5.81561 15.2 6.04731C15.2 6.27901 15.1111 6.46437 14.9333 6.60339L12.4 9.31425C12.6222 9.73131 12.7333 10.1715 12.7333 10.6349C12.7333 11.4227 12.4667 12.0946 11.9333 12.6507C11.4 13.2068 10.7556 13.4848 10 13.4848C9.24444 13.4848 8.6 13.2068 8.06667 12.6507C7.53333 12.0946 7.26667 11.4227 7.26667 10.6349C7.26667 9.84716 7.53333 9.17523 8.06667 8.61916C8.6 8.06308 9.24444 7.78505 10 7.78505C10.4444 7.78505 10.8667 7.9009 11.2667 8.13259L13.8667 5.49124C14 5.30588 14.1778 5.2132 14.4 5.2132C14.6222 5.2132 14.8 5.30588 14.9333 5.49124ZM11.2 10.6349C11.2 10.3106 11.0778 10.0325 10.8333 9.80082C10.5889 9.56912 10.3111 9.45327 10 9.45327C9.68889 9.45327 9.41111 9.56912 9.16667 9.80082C8.92222 10.0325 8.8 10.3106 8.8 10.6349C8.8 10.9593 8.92222 11.2489 9.16667 11.5038C9.41111 11.7587 9.68889 11.8861 10 11.8861C10.3111 11.8861 10.5889 11.7587 10.8333 11.5038C11.0778 11.2489 11.2 10.9593 11.2 10.6349Z" fill="#989898"/>
</svg>
