<svg width="23" height="19" viewBox="0 0 23 19" fill="none" xmlns="http://www.w3.org/2000/svg">
<path d="M4.72333 13.9333C4.38556 14.2711 4.21667 14.6617 4.21667 15.105C4.21667 15.5483 4.38556 15.9389 4.72333 16.2767C5.06111 16.6144 5.45167 16.7833 5.895 16.7833C6.33833 16.7833 6.72889 16.6144 7.06667 16.2767C7.40444 15.9389 7.57333 15.5483 7.57333 15.105C7.57333 14.6617 7.40444 14.2711 7.06667 13.9333C6.72889 13.5956 6.33833 13.4267 5.895 13.4267C5.45167 13.4267 5.06111 13.5956 4.72333 13.9333ZM6.30667 15.5167C6.18 15.6011 6.04278 15.6433 5.895 15.6433C5.74722 15.6433 5.62056 15.5906 5.515 15.485C5.40944 15.3794 5.35667 15.2528 5.35667 15.105C5.35667 14.9572 5.40944 14.8306 5.515 14.725C5.62056 14.6194 5.74722 14.5667 5.895 14.5667C6.04278 14.5667 6.16944 14.6194 6.275 14.725C6.38056 14.8306 6.43333 14.9572 6.43333 15.105C6.43333 15.2528 6.39111 15.39 6.30667 15.5167ZM20.4933 5.00333L15.9967 0.506666C15.6589 0.16889 15.2578 0 14.7933 0C14.3289 0 13.9278 0.16889 13.59 0.506666L8.84 5.19333L9.53667 5.95333C10.4656 5.91111 11.3311 6.10111 12.1333 6.52333L7.19333 11.4633C6.51778 11.21 5.81056 11.1572 5.07167 11.305C4.33278 11.4528 3.69944 11.7906 3.17167 12.3183C2.64389 12.8461 2.29556 13.4372 2.12667 14.0917C1.95778 14.7461 1.95778 15.4111 2.12667 16.0867C2.29556 16.7622 2.63333 17.3533 3.14 17.86C3.52 18.24 3.94222 18.525 4.40667 18.715C4.87111 18.905 5.36722 19 5.895 19C6.42278 19 6.91889 18.905 7.38333 18.715C7.84778 18.525 8.27 18.24 8.65 17.86C9.19889 17.3111 9.54722 16.6672 9.695 15.9283C9.84278 15.1894 9.79 14.4822 9.53667 13.8067L14.4767 8.86667C14.8989 9.66889 15.0889 10.5344 15.0467 11.4633L15.8067 12.16L20.4933 7.41C20.8311 7.11444 21 6.72389 21 6.23833C21 5.75278 20.8311 5.34111 20.4933 5.00333ZM7.89 17.1C7.34111 17.6067 6.67611 17.86 5.895 17.86C5.11389 17.86 4.45944 17.5961 3.93167 17.0683C3.40389 16.5406 3.14 15.8861 3.14 15.105C3.14 14.3239 3.40389 13.6694 3.93167 13.1417C4.45944 12.6139 5.11389 12.35 5.895 12.35C6.67611 12.35 7.33056 12.6139 7.85833 13.1417C8.38611 13.6694 8.65 14.3239 8.65 15.105C8.65 15.8861 8.39667 16.5511 7.89 17.1ZM9.03 12.7933C8.90333 12.6244 8.77667 12.4767 8.65 12.35C8.52333 12.2233 8.37556 12.0967 8.20667 11.97L13.0833 7.15667C13.3789 7.41 13.6322 7.66333 13.8433 7.91667L9.03 12.7933ZM14.2867 6.71333C13.2733 5.74222 12.0911 5.15111 10.74 4.94L13.0833 2.59667L18.4033 7.91667L16.06 10.26C15.8489 8.90889 15.2578 7.72667 14.2867 6.71333ZM19.7333 6.65L19.2267 7.15667L13.8433 1.77333L14.35 1.26667C14.4767 1.18222 14.6244 1.14 14.7933 1.14C14.9622 1.14 15.0889 1.18222 15.1733 1.26667L19.7333 5.82667C19.8178 5.91111 19.86 6.03778 19.86 6.20667C19.86 6.37556 19.8178 6.52333 19.7333 6.65Z" fill="#989898"/>
</svg>
