<svg width="23" height="19" viewBox="0 0 23 19" fill="none" xmlns="http://www.w3.org/2000/svg">
<path d="M5.28358 1C4.65672 1 4.1194 1.23224 3.67164 1.69672C3.22388 2.1612 3 2.73019 3 3.40369C3 4.07719 3.22388 4.64618 3.67164 5.11066C4.1194 5.57514 4.65672 5.80738 5.28358 5.80738C5.91045 5.80738 6.44776 5.57514 6.89552 5.11066C7.34328 4.64618 7.56716 4.07719 7.56716 3.40369C7.56716 2.73019 7.34328 2.1612 6.89552 1.69672C6.44776 1.23224 5.91045 1 5.28358 1ZM5.28358 2.32377C5.55224 2.32377 5.79851 2.42828 6.02239 2.6373C6.24627 2.84631 6.35821 3.10178 6.35821 3.40369C6.35821 3.7056 6.24627 3.96107 6.02239 4.17008C5.79851 4.3791 5.55224 4.48361 5.28358 4.48361C5.01493 4.48361 4.76866 4.3791 4.54478 4.17008C4.3209 3.96107 4.20896 3.7056 4.20896 3.40369C4.20896 3.10178 4.3209 2.84631 4.54478 2.6373C4.76866 2.42828 5.01493 2.32377 5.28358 2.32377ZM5.28358 13.1926C4.65672 13.1926 4.1194 13.4249 3.67164 13.8893C3.22388 14.3538 3 14.9228 3 15.5963C3 16.2698 3.22388 16.8388 3.67164 17.3033C4.1194 17.7678 4.65672 18 5.28358 18C5.91045 18 6.44776 17.7678 6.89552 17.3033C7.34328 16.8388 7.56716 16.2698 7.56716 15.5963C7.56716 14.9228 7.34328 14.3538 6.89552 13.8893C6.44776 13.4249 5.91045 13.1926 5.28358 13.1926ZM5.28358 14.5164C5.55224 14.5164 5.79851 14.6209 6.02239 14.8299C6.24627 15.0389 6.35821 15.2944 6.35821 15.5963C6.35821 15.8982 6.24627 16.1537 6.02239 16.3627C5.79851 16.5717 5.55224 16.6762 5.28358 16.6762C5.01493 16.6762 4.76866 16.5717 4.54478 16.3627C4.3209 16.1537 4.20896 15.8982 4.20896 15.5963C4.20896 15.2944 4.3209 15.0389 4.54478 14.8299C4.76866 14.6209 5.01493 14.5164 5.28358 14.5164ZM12 1C11.3731 1 10.8358 1.23224 10.3881 1.69672C9.9403 2.1612 9.71642 2.73019 9.71642 3.40369C9.71642 4.07719 9.9403 4.64618 10.3881 5.11066C10.8358 5.57514 11.3731 5.80738 12 5.80738C12.6269 5.80738 13.1642 5.57514 13.6119 5.11066C14.0597 4.64618 14.2836 4.07719 14.2836 3.40369C14.2836 2.73019 14.0597 2.1612 13.6119 1.69672C13.1642 1.23224 12.6269 1 12 1ZM12 2.32377C12.2687 2.32377 12.5149 2.42828 12.7388 2.6373C12.9627 2.84631 13.0746 3.10178 13.0746 3.40369C13.0746 3.7056 12.9627 3.96107 12.7388 4.17008C12.5149 4.3791 12.2687 4.48361 12 4.48361C11.7313 4.48361 11.4851 4.3791 11.2612 4.17008C11.0373 3.96107 10.9254 3.7056 10.9254 3.40369C10.9254 3.10178 11.0373 2.84631 11.2612 2.6373C11.4851 2.42828 11.7313 2.32377 12 2.32377ZM12 13.1926C11.3731 13.1926 10.8358 13.4249 10.3881 13.8893C9.9403 14.3538 9.71642 14.9228 9.71642 15.5963C9.71642 16.2698 9.9403 16.8388 10.3881 17.3033C10.8358 17.7678 11.3731 18 12 18C12.6269 18 13.1642 17.7678 13.6119 17.3033C14.0597 16.8388 14.2836 16.2698 14.2836 15.5963C14.2836 14.9228 14.0597 14.3538 13.6119 13.8893C13.1642 13.4249 12.6269 13.1926 12 13.1926ZM12 14.5164C12.2687 14.5164 12.5149 14.6209 12.7388 14.8299C12.9627 15.0389 13.0746 15.2944 13.0746 15.5963C13.0746 15.8982 12.9627 16.1537 12.7388 16.3627C12.5149 16.5717 12.2687 16.6762 12 16.6762C11.7313 16.6762 11.4851 16.5717 11.2612 16.3627C11.0373 16.1537 10.9254 15.8982 10.9254 15.5963C10.9254 15.2944 11.0373 15.0389 11.2612 14.8299C11.4851 14.6209 11.7313 14.5164 12 14.5164ZM18.7164 1C18.0896 1 17.5522 1.23224 17.1045 1.69672C16.6567 2.1612 16.4328 2.73019 16.4328 3.40369C16.4328 4.07719 16.6567 4.64618 17.1045 5.11066C17.5522 5.57514 18.0896 5.80738 18.7164 5.80738C19.3433 5.80738 19.8806 5.57514 20.3284 5.11066C20.7761 4.64618 21 4.07719 21 3.40369C21 2.73019 20.7761 2.1612 20.3284 1.69672C19.8806 1.23224 19.3433 1 18.7164 1ZM18.7164 2.32377C18.9851 2.32377 19.2313 2.42828 19.4552 2.6373C19.6791 2.84631 19.791 3.10178 19.791 3.40369C19.791 3.7056 19.6791 3.96107 19.4552 4.17008C19.2313 4.3791 18.9851 4.48361 18.7164 4.48361C18.4478 4.48361 18.2015 4.3791 17.9776 4.17008C17.7537 3.96107 17.6418 3.7056 17.6418 3.40369C17.6418 3.10178 17.7537 2.84631 17.9776 2.6373C18.2015 2.42828 18.4478 2.32377 18.7164 2.32377ZM18.7164 13.1926C18.0896 13.1926 17.5522 13.4249 17.1045 13.8893C16.6567 14.3538 16.4328 14.9228 16.4328 15.5963C16.4328 16.2698 16.6567 16.8388 17.1045 17.3033C17.5522 17.7678 18.0896 18 18.7164 18C19.3433 18 19.8806 17.7678 20.3284 17.3033C20.7761 16.8388 21 16.2698 21 15.5963C21 14.9228 20.7761 14.3538 20.3284 13.8893C19.8806 13.4249 19.3433 13.1926 18.7164 13.1926ZM18.7164 14.5164C18.9851 14.5164 19.2313 14.6209 19.4552 14.8299C19.6791 15.0389 19.791 15.2944 19.791 15.5963C19.791 15.8982 19.6791 16.1537 19.4552 16.3627C19.2313 16.5717 18.9851 16.6762 18.7164 16.6762C18.4478 16.6762 18.2015 16.5717 17.9776 16.3627C17.7537 16.1537 17.6418 15.8982 17.6418 15.5963C17.6418 15.2944 17.7537 15.0389 17.9776 14.8299C18.2015 14.6209 18.4478 14.5164 18.7164 14.5164ZM4.6791 5.11066V13.8197C4.6791 14.0055 4.73507 14.168 4.84702 14.3074C4.95896 14.4467 5.10448 14.5164 5.28358 14.5164C5.46269 14.5164 5.60821 14.4467 5.72015 14.3074C5.83209 14.168 5.88806 14.0287 5.88806 13.8893V5.11066C5.88806 4.97131 5.83209 4.83197 5.72015 4.69262C5.60821 4.55328 5.46269 4.48361 5.28358 4.48361C5.10448 4.48361 4.95896 4.55328 4.84702 4.69262C4.73507 4.83197 4.6791 4.97131 4.6791 5.11066ZM11.3955 5.11066V13.8197C11.3955 14.0055 11.4515 14.168 11.5634 14.3074C11.6754 14.4467 11.8209 14.5164 12 14.5164C12.1791 14.5164 12.3246 14.4467 12.4366 14.3074C12.5485 14.168 12.6045 14.0287 12.6045 13.8893V5.11066C12.6045 4.97131 12.5485 4.83197 12.4366 4.69262C12.3246 4.55328 12.1791 4.48361 12 4.48361C11.8209 4.48361 11.6754 4.55328 11.5634 4.69262C11.4515 4.83197 11.3955 4.97131 11.3955 5.11066ZM18.1119 5.11066V8.59426C18.1119 8.68716 18.0896 8.75683 18.0448 8.80328C18 8.84973 17.9552 8.87295 17.9104 8.87295H5.28358C5.10448 8.87295 4.95896 8.93101 4.84702 9.04713C4.73507 9.16325 4.6791 9.31421 4.6791 9.5C4.6791 9.68579 4.73507 9.83675 4.84702 9.95287C4.95896 10.069 5.10448 10.127 5.28358 10.127H17.9104C18.3134 10.127 18.6493 9.98771 18.9179 9.70902C19.1866 9.43033 19.3209 9.05874 19.3209 8.59426V5.18033C19.3209 4.99454 19.2649 4.83197 19.153 4.69262C19.041 4.55328 18.8955 4.48361 18.7164 4.48361C18.5373 4.48361 18.3918 4.55328 18.2799 4.69262C18.1679 4.83197 18.1119 4.97131 18.1119 5.11066Z" fill="#989898"/>
</svg>
