<svg width="25" height="18" viewBox="0 0 25 18" fill="none" xmlns="http://www.w3.org/2000/svg">
<path d="M24.28 6.73301H22.04C21.8267 6.73301 21.64 6.80582 21.48 6.95146C21.32 7.09709 21.24 7.26699 21.24 7.46116V8.1165H20.52V7.46116C20.52 7.26699 20.44 7.10922 20.28 6.98786C20.12 6.8665 19.9333 6.80582 19.72 6.80582H18.6L16.52 4.91262C16.4667 4.86408 16.3867 4.81553 16.28 4.76699C16.1733 4.71845 16.0933 4.69417 16.04 4.69417H13.72V3.38349H15.24C15.4533 3.38349 15.64 3.31068 15.8 3.16505C15.96 3.01942 16.04 2.84951 16.04 2.65534C16.04 2.46116 15.96 2.3034 15.8 2.18204C15.64 2.06068 15.4533 2 15.24 2H8.52C8.30667 2 8.12 2.06068 7.96 2.18204C7.8 2.3034 7.72 2.46116 7.72 2.65534C7.72 2.84951 7.8 3.01942 7.96 3.16505C8.12 3.31068 8.30667 3.38349 8.52 3.38349H10.04V4.69417H7.72L7.4 4.83981L7.16 4.98544L5.88 6.73301H4.04C3.82667 6.73301 3.64 6.80582 3.48 6.95146C3.32 7.09709 3.24 7.26699 3.24 7.46116V9.5H2.52V7.46116C2.52 7.26699 2.44 7.10922 2.28 6.98786C2.12 6.8665 1.93333 6.79369 1.72 6.76942C1.50667 6.74514 1.33333 6.80582 1.2 6.95146C1.06667 7.09709 1 7.26699 1 7.46116V13.5777C1 13.7718 1.06667 13.9417 1.2 14.0874C1.33333 14.233 1.50667 14.3058 1.72 14.3058C1.93333 14.3058 2.12 14.233 2.28 14.0874C2.44 13.9417 2.52 13.7718 2.52 13.5777V10.8835H3.24V13.5777C3.24 13.7718 3.32 13.9417 3.48 14.0874C3.64 14.233 3.8 14.3058 3.96 14.3058H5.8L7.08 16.6359L7.24 16.7816L7.4 16.9272L7.72 17H16.76C16.8667 17 16.9733 16.9757 17.08 16.9272L17.32 16.7816L20.12 13.5777H21.24V14.3058C21.24 14.5 21.32 14.6578 21.48 14.7791C21.64 14.9005 21.8267 14.9612 22.04 14.9612H24.28C24.4933 14.9612 24.6667 14.9005 24.8 14.7791C24.9333 14.6578 25 14.5 25 14.3058V7.46116C25 7.26699 24.9333 7.10922 24.8 6.98786C24.6667 6.8665 24.4933 6.80582 24.28 6.80582V6.73301ZM23.48 13.5777H22.76V12.9223C22.76 12.7282 22.68 12.5583 22.52 12.4126C22.36 12.267 22.2 12.1942 22.04 12.1942L19.72 12.267L19.4 12.3398L19.16 12.4854L16.36 15.6165H8.2L6.92 13.2136L6.76 13.068L6.36 12.9223H4.76V8.1165H6.28H6.52L6.76 7.97087L8.12 6.07767H10.76C10.9733 6.07767 11.1467 6.01699 11.28 5.89563C11.4133 5.77427 11.48 5.6165 11.48 5.42233V3.38349H12.28V5.42233C12.28 5.6165 12.3467 5.77427 12.48 5.89563C12.6133 6.01699 12.7867 6.07767 13 6.07767H15.72L17.72 7.89806C17.7733 7.99514 17.8533 8.05583 17.96 8.0801C18.0667 8.10437 18.1733 8.1165 18.28 8.1165H19V8.84466C19 9.03883 19.0667 9.1966 19.2 9.31796C19.3333 9.43932 19.5067 9.5 19.72 9.5H22.04C22.2 9.5 22.36 9.43932 22.52 9.31796C22.68 9.1966 22.76 9.03883 22.76 8.84466V8.1165H23.48V13.5777ZM15.64 8.26214C15.48 8.16505 15.3067 8.12864 15.12 8.15291C14.9333 8.17718 14.76 8.26214 14.6 8.40777L11.56 12.6311L9.72 11.3204C9.56 11.2233 9.37333 11.1869 9.16 11.2112C8.94667 11.2354 8.77333 11.3204 8.64 11.466C8.50667 11.6117 8.45333 11.7816 8.48 11.9757C8.50667 12.1699 8.6 12.3155 8.76 12.4126L11.24 14.1602C11.4 14.2573 11.56 14.3058 11.72 14.3058H11.8C12.0133 14.2573 12.1733 14.1359 12.28 13.9417L15.88 9.20874C15.9867 9.06311 16.0267 8.8932 16 8.69903C15.9733 8.50485 15.8533 8.35922 15.64 8.26214Z" fill="#989898"/>
</svg>
