<svg width="23" height="19" viewBox="0 0 23 19" fill="none" xmlns="http://www.w3.org/2000/svg">
<path d="M13.7872 3.54667C13.7872 3.37778 13.734 3.24056 13.6277 3.135C13.5213 3.02944 13.383 2.97667 13.2128 2.97667H7.21277C7.04255 2.97667 6.90426 3.02944 6.79787 3.135C6.69149 3.24056 6.6383 3.37778 6.6383 3.54667V8.29667C6.6383 8.46556 6.69149 8.61333 6.79787 8.74C6.90426 8.86667 7.04255 8.93 7.21277 8.93H13.2128C13.383 8.93 13.5213 8.86667 13.6277 8.74C13.734 8.61333 13.7872 8.46556 13.7872 8.29667V3.54667ZM12.5745 7.72667H7.78723V4.18H12.5745V7.72667ZM20.6809 4.18L18.2553 3.04C18.1277 2.95555 17.9787 2.93444 17.8085 2.97667C17.6383 3.01889 17.5213 3.11389 17.4574 3.26167C17.3936 3.40944 17.383 3.56778 17.4255 3.73667C17.4681 3.90556 17.5745 4.01111 17.7447 4.05333L18.6383 4.56L18.5745 4.75C18.5745 5.13 18.6915 5.46778 18.9255 5.76333C19.1596 6.05889 19.4468 6.27 19.7872 6.39667V13.6167C19.7872 13.7856 19.7234 13.9333 19.5957 14.06C19.4681 14.1867 19.3298 14.25 19.1809 14.25C19.0319 14.25 18.8936 14.1867 18.766 14.06C18.6383 13.9333 18.5745 13.7856 18.5745 13.6167V8.86667C18.5745 8.19111 18.3298 7.57889 17.8404 7.03C17.3511 6.48111 16.8085 6.14333 16.2128 6.01667V2.34333C16.2128 1.71 15.9787 1.16111 15.5106 0.696667C15.0426 0.232222 14.4894 0 13.8511 0H6.6383C6 0 5.43617 0.232222 4.94681 0.696667C4.45745 1.16111 4.21277 1.71 4.21277 2.34333V15.6433L3.38298 16.0867C3.12766 16.2133 3 16.3822 3 16.5933V18.3667C3 18.5356 3.06383 18.6833 3.19149 18.81C3.31915 18.9367 3.46809 19 3.6383 19H16.7872C16.9574 19 17.0957 18.9367 17.2021 18.81C17.3085 18.6833 17.3617 18.5356 17.3617 18.3667V16.5933C17.3617 16.3822 17.2553 16.2133 17.0426 16.0867L16.2128 15.6433V7.22C16.5106 7.34667 16.7766 7.56833 17.0106 7.885C17.2447 8.20167 17.3617 8.52889 17.3617 8.86667V13.6167C17.3617 14.1233 17.5426 14.5561 17.9043 14.915C18.266 15.2739 18.6915 15.4533 19.1809 15.4533C19.6702 15.4533 20.0957 15.2739 20.4574 14.915C20.8191 14.5561 21 14.1233 21 13.6167V4.75C21 4.49667 20.8936 4.30667 20.6809 4.18ZM16.2128 17.7967H4.21277V16.9733L5.10638 16.53C5.31915 16.4456 5.42553 16.2767 5.42553 16.0233V2.34333C5.42553 2.04778 5.54255 1.78389 5.7766 1.55167C6.01064 1.31944 6.29787 1.20333 6.6383 1.20333H13.8511C14.1489 1.20333 14.4149 1.31944 14.6489 1.55167C14.883 1.78389 15 2.04778 15 2.34333V16.0233C15 16.2767 15.1064 16.4456 15.3191 16.53L16.2128 16.9733V17.7967Z" fill="#989898"/>
</svg>
