<svg width="23" height="19" viewBox="0 0 23 19" fill="none" xmlns="http://www.w3.org/2000/svg">
<path d="M20.1133 8.86667L14.0967 2.85L15.68 1.26667C15.8067 1.14 15.87 0.971111 15.87 0.76C15.87 0.548889 15.7961 0.369444 15.6483 0.221666C15.5006 0.0738888 15.3317 0 15.1417 0C14.9517 0 14.7722 0.0633335 14.6033 0.190001L5.67333 9.18333C5.04 9.35222 4.51222 9.70056 4.09 10.2283C3.66778 10.7561 3.45667 11.3578 3.45667 12.0333C3.45667 12.2444 3.53056 12.4239 3.67833 12.5717C3.82611 12.7194 4.00556 12.7933 4.21667 12.7933C4.42778 12.7933 4.60722 12.7194 4.755 12.5717C4.90278 12.4239 4.97667 12.2233 4.97667 11.97C4.97667 11.7167 5.05056 11.4739 5.19833 11.2417C5.34611 11.0094 5.54667 10.83 5.8 10.7033L12.07 16.9733C12.6189 17.5222 13.305 17.7967 14.1283 17.7967C14.9517 17.7967 15.6589 17.5222 16.25 16.9733L20.1133 13.11C20.7044 12.5189 21 11.8117 21 10.9883C21 10.165 20.7044 9.45778 20.1133 8.86667ZM19.1 12.0333L15.1733 15.8967C14.92 16.1922 14.5822 16.34 14.16 16.34C13.7378 16.34 13.3789 16.1922 13.0833 15.8967L7.7 10.5133H15.9333C16.1444 10.5133 16.3239 10.45 16.4717 10.3233C16.6194 10.1967 16.6933 10.0278 16.6933 9.81667C16.6933 9.60556 16.6194 9.42611 16.4717 9.27833C16.3239 9.13056 16.1444 9.05667 15.9333 9.05667H7.89L13.02 3.92667L19.1 9.94333C19.3956 10.2389 19.5433 10.5872 19.5433 10.9883C19.5433 11.3894 19.3956 11.7378 19.1 12.0333ZM5.54667 14.82C5.29333 14.44 5.04 14.1022 4.78667 13.8067C4.61778 13.5956 4.41722 13.49 4.185 13.49C3.95278 13.49 3.77333 13.5956 3.64667 13.8067C3.35111 14.1022 3.07667 14.44 2.82333 14.82C2.27444 15.6644 2 16.3189 2 16.7833C2 17.4167 2.21111 17.9444 2.63333 18.3667C3.05556 18.7889 3.57278 19 4.185 19C4.79722 19 5.31444 18.7889 5.73667 18.3667C6.15889 17.9444 6.37 17.4167 6.37 16.7833C6.37 16.3189 6.09556 15.6644 5.54667 14.82ZM4.21667 17.5433C4.00556 17.5433 3.82611 17.4694 3.67833 17.3217C3.53056 17.1739 3.46722 17.005 3.48833 16.815C3.50944 16.625 3.71 16.2344 4.09 15.6433L4.21667 15.5167L4.28 15.6433C4.66 16.2344 4.86056 16.625 4.88167 16.815C4.90278 17.005 4.83944 17.1739 4.69167 17.3217C4.54389 17.4694 4.38556 17.5433 4.21667 17.5433Z" fill="#989898"/>
</svg>
