<svg width="23" height="21" viewBox="0 0 23 21" fill="none" xmlns="http://www.w3.org/2000/svg">
<path d="M21.4667 9.06667L13.9333 1.53333C13.5778 1.17778 13.1556 0.999998 12.6667 0.999998H3.73333C3.24444 0.999998 2.83333 1.16667 2.5 1.5C2.16667 1.83333 2 2.24444 2 2.73333V19.2667C2 19.7556 2.16667 20.1667 2.5 20.5C2.83333 20.8333 3.24444 21 3.73333 21H13.2C13.4222 21 13.5778 20.8889 13.6667 20.6667C14.3333 19.3333 15.3111 18.2667 16.6 17.4667C17.8889 16.6667 19.2889 16.2667 20.8 16.2667H21.4C21.5778 16.2667 21.7222 16.2111 21.8333 16.1C21.9444 15.9889 22 15.8444 22 15.6667V10.3333C22 9.84444 21.8222 9.42222 21.4667 9.06667ZM20.8 15.1333C19.0667 15.1333 17.4667 15.5778 16 16.4667C14.6667 17.3111 13.6 18.4222 12.8 19.8H3.73333C3.6 19.8 3.47778 19.7444 3.36667 19.6333C3.25556 19.5222 3.2 19.4 3.2 19.2667V2.73333C3.2 2.6 3.25556 2.47778 3.36667 2.36666C3.47778 2.25555 3.6 2.2 3.73333 2.2H12.6667C12.8444 2.2 13 2.24444 13.1333 2.33333L20.6667 9.86667C20.7556 10 20.8 10.1556 20.8 10.3333V15.1333ZM19.4667 10.4L12.6 3.53333C12.5111 3.4 12.3778 3.33333 12.2 3.33333H4.93333C4.75556 3.33333 4.61111 3.38889 4.5 3.5C4.38889 3.61111 4.33333 3.75555 4.33333 3.93333V11C4.33333 11.1778 4.38889 11.3222 4.5 11.4333C4.61111 11.5444 4.75556 11.6 4.93333 11.6H19C19.1778 11.6 19.3222 11.5444 19.4333 11.4333C19.5444 11.3222 19.6 11.1778 19.6 11V10.8C19.6 10.6222 19.5556 10.4889 19.4667 10.4ZM5.53333 10.4V4.53333H11.9333L17.8 10.4H5.53333ZM8.46667 13.9333H4.93333C4.75556 13.9333 4.61111 13.9889 4.5 14.1C4.38889 14.2111 4.33333 14.3556 4.33333 14.5333V15.1333C4.33333 15.7556 4.56667 16.3 5.03333 16.7667C5.5 17.2333 6.05556 17.4667 6.7 17.4667C7.34444 17.4667 7.88889 17.2333 8.33333 16.7667C8.77778 16.3 9 15.7556 9 15.1333V14.5333C9 14.3556 8.94444 14.2111 8.83333 14.1C8.72222 13.9889 8.6 13.9333 8.46667 13.9333ZM6.66667 16.2667C6.35556 16.2667 6.08889 16.1556 5.86667 15.9333C5.64444 15.7111 5.53333 15.4222 5.53333 15.0667H7.86667C7.86667 15.4222 7.75556 15.7111 7.53333 15.9333C7.31111 16.1556 7.02222 16.2667 6.66667 16.2667Z" fill="#989898"/>
</svg>
