<svg width="23" height="17" viewBox="0 0 23 17" fill="none" xmlns="http://www.w3.org/2000/svg">
<g clip-path="url(#clip0_188_670)">
<path d="M21.4198 5.96809H22.2099C22.444 5.96809 22.6342 5.87766 22.7805 5.69681C22.9268 5.51596 23 5.32004 23 5.10904C23 4.89805 22.9268 4.70213 22.7805 4.52128C22.6342 4.34043 22.444 4.25 22.2099 4.25H20.1908L18.9618 2.07979C18.5522 1.41667 18.0401 0.904257 17.4256 0.542553C16.8111 0.180851 16.1234 0 15.3626 0H7.6374C6.87659 0 6.18893 0.180851 5.57443 0.542553C4.95992 0.904257 4.44784 1.41667 4.03817 2.07979L2.80916 4.25H0.790076C0.55598 4.25 0.365776 4.34043 0.219466 4.52128C0.0731552 4.70213 0 4.89805 0 5.10904C0 5.32004 0.0731552 5.51596 0.219466 5.69681C0.365776 5.87766 0.55598 5.96809 0.790076 5.96809H1.66794L1.14122 6.60106C0.380407 7.68617 0 8.89184 0 10.2181V14.4681C0 15.1312 0.234097 15.719 0.70229 16.2314C1.17048 16.7438 1.75573 17 2.45802 17H4.12595C4.76972 17 5.34033 16.7438 5.83779 16.2314C6.33524 15.719 6.58397 15.1312 6.58397 14.4681H16.416C16.416 15.1312 16.6648 15.719 17.1622 16.2314C17.6597 16.7438 18.2303 17 18.874 17H20.542C21.2443 17 21.8295 16.7438 22.2977 16.2314C22.7659 15.719 23 15.1312 23 14.4681V10.2181C23 8.89184 22.6196 7.68617 21.8588 6.60106L21.4198 5.96809ZM5.44275 2.98404C5.67684 2.56206 5.9841 2.24557 6.3645 2.03458C6.74491 1.82358 7.16921 1.71809 7.6374 1.71809H15.3626C15.8308 1.71809 16.2551 1.82358 16.6355 2.03458C17.0159 2.24557 17.3232 2.56206 17.5573 2.98404L18.6107 4.88298L18.084 5.24468C17.3817 5.72695 16.6209 5.96809 15.8015 5.96809H7.19847C6.37913 5.96809 5.61832 5.72695 4.91603 5.24468L4.38931 4.88298L5.44275 2.98404ZM21.4198 14.4681C21.4198 14.6489 21.3321 14.8298 21.1565 15.0106C20.9809 15.1915 20.7761 15.2819 20.542 15.2819H18.874C18.6985 15.2819 18.5229 15.1915 18.3473 15.0106C18.1718 14.8298 18.084 14.6489 18.084 14.4681V13.5638C18.084 13.3227 18.0108 13.1268 17.8645 12.9761C17.7182 12.8254 17.528 12.75 17.2939 12.75H5.70611C5.47201 12.75 5.28181 12.8254 5.1355 12.9761C4.98919 13.1268 4.91603 13.3227 4.91603 13.5638V14.4681C4.91603 14.6489 4.82824 14.8298 4.65267 15.0106C4.4771 15.1915 4.30153 15.2819 4.12595 15.2819H2.45802C2.22392 15.2819 2.01908 15.1915 1.84351 15.0106C1.66794 14.8298 1.58015 14.6489 1.58015 14.4681V10.2181C1.63868 9.25355 1.9313 8.40957 2.45802 7.68617L3.42366 6.23936L4.03817 6.69149C5.03308 7.35461 6.08651 7.68617 7.19847 7.68617H15.8015C16.9135 7.68617 17.9669 7.35461 18.9618 6.69149L19.5763 6.23936L20.542 7.68617C21.0687 8.40957 21.3321 9.25355 21.3321 10.2181V14.4681H21.4198ZM18.084 10.2181C18.084 10.4592 18.1571 10.6551 18.3034 10.8059C18.4497 10.9566 18.6399 11.0319 18.874 11.0319C19.1081 11.0319 19.313 10.9566 19.4885 10.8059C19.6641 10.6551 19.7519 10.4592 19.7519 10.2181C19.7519 9.97695 19.6641 9.76596 19.4885 9.58511C19.313 9.40426 19.1081 9.31383 18.874 9.31383C18.6399 9.31383 18.4497 9.40426 18.3034 9.58511C18.1571 9.76596 18.084 9.97695 18.084 10.2181ZM3.24809 10.2181C3.24809 10.4592 3.33588 10.6551 3.51145 10.8059C3.68702 10.9566 3.89186 11.0319 4.12595 11.0319C4.36005 11.0319 4.55025 10.9566 4.69656 10.8059C4.84288 10.6551 4.91603 10.4592 4.91603 10.2181C4.91603 9.97695 4.84288 9.76596 4.69656 9.58511C4.55025 9.40426 4.36005 9.31383 4.12595 9.31383C3.89186 9.31383 3.68702 9.40426 3.51145 9.58511C3.33588 9.76596 3.24809 9.97695 3.24809 10.2181Z" fill="#989898"/>
</g>
<defs>
<clipPath id="clip0_188_670">
<rect width="23" height="17" fill="white"/>
</clipPath>
</defs>
</svg>
