<svg width="23" height="19" viewBox="0 0 23 19" fill="none" xmlns="http://www.w3.org/2000/svg">
<path d="M20.3667 12.8567C20.7889 11.7589 21 10.64 21 9.5C21 8.23333 20.7572 7.01944 20.2717 5.85833C19.7861 4.69722 19.1 3.67333 18.2133 2.78667C17.3267 1.9 16.3028 1.21389 15.1417 0.728334C13.9806 0.242779 12.7667 0 11.5 0C10.2333 0 9.01944 0.242779 7.85833 0.728334C6.69722 1.21389 5.67333 1.9 4.78667 2.78667C3.9 3.67333 3.21389 4.69722 2.72833 5.85833C2.24278 7.01944 2 8.23333 2 9.5C2 10.7667 2.24278 11.9806 2.72833 13.1417C3.21389 14.3028 3.9 15.3267 4.78667 16.2133C5.67333 17.1 6.69722 17.7861 7.85833 18.2717C9.01944 18.7572 10.2333 19 11.5 19C13.2733 19 14.92 18.5356 16.44 17.6067C16.6089 17.5222 16.7144 17.3744 16.7567 17.1633C16.7989 16.9522 16.7672 16.7622 16.6617 16.5933C16.5561 16.4244 16.4083 16.3189 16.2183 16.2767C16.0283 16.2344 15.8278 16.2556 15.6167 16.34C15.11 16.6778 14.54 16.9522 13.9067 17.1633C13.9489 15.3056 14.3289 14.0178 15.0467 13.3C15.5111 12.8356 16.1022 12.6033 16.82 12.6033C17.4111 12.6033 18.0444 12.7511 18.72 13.0467C18.5511 13.3422 18.3611 13.6378 18.15 13.9333C18.0233 14.1022 17.9811 14.2922 18.0233 14.5033C18.0656 14.7144 18.1711 14.8728 18.34 14.9783C18.5089 15.0839 18.6989 15.1156 18.91 15.0733C19.1211 15.0311 19.29 14.9256 19.4167 14.7567C19.7544 14.2078 20.05 13.6378 20.3033 13.0467L20.3667 12.8567ZM11.5 1.45667C12.8089 1.45667 14.0228 1.75222 15.1417 2.34333C16.2606 2.93444 17.2 3.73667 17.96 4.75C18.72 5.76333 19.2056 6.90333 19.4167 8.17C18.3611 7.79 17.2844 7.47333 16.1867 7.22C14.4978 6.84 12.925 6.65 11.4683 6.65C10.0117 6.65 8.46 6.81889 6.81333 7.15667C5.71556 7.41 4.63889 7.72667 3.58333 8.10667C3.83667 6.88222 4.33278 5.76333 5.07167 4.75C5.81056 3.73667 6.73944 2.93444 7.85833 2.34333C8.97722 1.75222 10.1911 1.45667 11.5 1.45667ZM4.28 13.0467C4.99778 12.7511 5.63111 12.6033 6.18 12.6033H6.24333C7.04556 12.6033 7.65778 12.8778 8.08 13.4267C8.71333 14.1867 9.05111 15.4322 9.09333 17.1633C8.03778 16.8256 7.09833 16.2978 6.275 15.58C5.45167 14.8622 4.78667 14.0178 4.28 13.0467ZM16.82 11.1467C15.68 11.1467 14.7511 11.5056 14.0333 12.2233C12.9778 13.2789 12.45 15.01 12.45 17.4167V17.48C12.1122 17.5222 11.7956 17.5433 11.5 17.5433C11.2044 17.5433 10.8878 17.5222 10.55 17.48V17.4167C10.55 15.01 10.0433 13.2789 9.03 12.2233C8.31222 11.5056 7.38333 11.1467 6.24333 11.1467H6.18C5.42 11.1467 4.61778 11.3156 3.77333 11.6533C3.60444 11.02 3.49889 10.3867 3.45667 9.75333C4.30111 9.41556 5.25111 9.12 6.30667 8.86667C8.16444 8.36 9.89556 8.10667 11.5 8.10667C13.1044 8.10667 14.8989 8.38111 16.8833 8.93C17.8967 9.18333 18.7622 9.45778 19.48 9.75333C19.48 10.3867 19.3956 11.02 19.2267 11.6533C18.3822 11.3156 17.58 11.1467 16.82 11.1467ZM14.0333 10.1967C14.0333 10.4078 13.9594 10.5872 13.8117 10.735C13.6639 10.8828 13.4844 10.9567 13.2733 10.9567H9.66333C9.45222 10.9567 9.28333 10.8828 9.15667 10.735C9.03 10.5872 8.96667 10.4078 8.96667 10.1967C8.96667 9.98556 9.03 9.80611 9.15667 9.65833C9.28333 9.51056 9.45222 9.43667 9.66333 9.43667H13.2733C13.4844 9.43667 13.6639 9.51056 13.8117 9.65833C13.9594 9.80611 14.0333 9.98556 14.0333 10.1967Z" fill="#989898"/>
</svg>
