<svg width="115" height="62" viewBox="0 0 115 62" fill="none" xmlns="http://www.w3.org/2000/svg">
<path d="M10.1407 45.2041H14.6822L24.8539 61.9347H20.0325L12.4425 49.1699L8.39873 55.9241H14.931L16.8908 59.0843H6.65674L4.82152 61.9037H0L10.1407 45.2041ZM90.1461 61.9657H94.9675L96.8028 59.1463H107.037L105.077 55.9861H98.5447L102.589 49.2319L110.178 61.9967H115L104.828 45.2661H100.287L90.1461 61.9657ZM24.574 53.6004V55.8312C24.6673 60.2307 27.1558 62.0896 31.013 61.9967H43.7044V58.5576H31.0441C28.9288 58.6196 28.7733 57.1634 28.7111 55.7072V53.6004V51.4007C28.7733 50.0994 28.9288 48.6123 31.0441 48.6433H43.7043V45.2042H31.013C27.1558 45.1113 24.6984 47.0012 24.574 51.3697V53.6004ZM72.7576 48.7981H82.9605C84.3914 48.7981 85.1068 49.4178 85.1068 50.6261C85.1068 51.8654 84.3914 52.4541 82.9605 52.4541H73.8152L74.624 56.0481H82.4316C83.9558 56.0171 84.8268 57.0705 84.9512 58.5267L85.0756 61.9658H89.1194C89.1194 61.9658 89.0883 58.7436 88.995 58.0929C88.9017 57.4423 88.6217 55.6453 87.0353 54.7778C90.7681 52.3302 89.3994 45.2352 84.0491 45.2352H68.6515V61.9657H72.7575L72.7576 48.7981ZM56.0535 61.9657H59.6307C64.0479 61.8728 65.9142 59.3941 65.8209 55.5523V45.2041H61.7771V56.3888C61.8393 58.4956 60.3462 58.6505 58.9153 58.7125H56.0535H53.0363C51.7298 58.6506 50.2367 58.4956 50.2678 56.3888V45.2041H46.1307V55.5833C46.0374 59.4251 47.9348 61.8728 52.3208 61.9657H56.0535ZM75.2774 17.0721C74.9353 10.8135 72.7889 6.22813 69.8649 3.71857C66.692 1.02309 60.7818 -0.030337 56.2092 0.000663019C51.6366 -0.030337 45.7264 1.02309 42.5535 3.71857C39.6295 6.2282 37.4831 10.8136 37.1409 17.0721C36.8299 22.9587 38.1052 29.3721 41.4647 32.9971C44.6997 36.56 51.1698 37.6754 56.178 37.6754C61.1861 37.7064 67.6561 36.56 70.8912 32.9971C74.2508 29.3411 75.5572 22.9277 75.2774 17.0721ZM55.1203 1.58073C55.7424 1.54973 55.8979 1.54973 56.178 1.54973C56.4579 1.54973 56.5823 1.54973 57.2356 1.58073L57.2667 15.275C57.08 15.275 55.2759 15.275 55.0893 15.275C55.0893 15.275 55.0893 1.58073 55.1203 1.58073ZM39.6606 22.8346C39.4739 20.48 38.7585 11.8978 42.1802 7.00255C43.6422 4.86478 45.7885 3.43957 47.966 2.696C50.9832 1.64265 54.5916 1.58065 54.5916 1.58065C53.1918 5.01978 50.299 12.3936 49.739 14.0356C49.0547 16.0494 48.4637 17.1958 47.8727 20.8208C47.4993 23.7951 46.8462 31.1999 46.6595 34.4221C42.6156 32.5013 40.1894 28.8454 39.6606 22.8346ZM56.1469 36.0953C53.3162 36.0643 49.8323 35.7855 47.0639 34.6081C47.9971 32.1295 52.4453 21.4715 54.9027 17.3199C55.0893 17.3199 57.2356 17.3199 57.4223 17.3199C59.8485 21.4715 64.3278 32.1295 65.2611 34.6081C62.4614 35.8164 59.0086 36.0643 56.1469 36.0953ZM72.6643 22.8039C72.1356 28.8455 69.7092 32.4704 65.6654 34.4223C65.4788 31.2001 64.8256 23.7953 64.4523 20.821C63.8613 17.165 63.2703 16.0496 62.5859 14.0358C62.0261 12.3937 59.1331 5.01985 57.7334 1.5808C57.7334 1.5808 61.3417 1.64273 64.359 2.69615C66.5364 3.43972 68.6827 4.89585 70.1447 7.0027C73.5664 11.898 72.8509 20.4801 72.6643 22.8039Z" fill="black"/>
</svg>
