<svg width="87" height="86" viewBox="0 0 87 86" fill="none" xmlns="http://www.w3.org/2000/svg">
<path d="M43.3383 0C19.4037 0 0 19.2528 0 42.9994C0 66.7472 19.4037 86 43.3383 86C67.2729 86 86.6765 66.7472 86.6765 42.9994C86.6765 19.254 67.2729 0 43.3383 0ZM83.8579 42.9994C83.8579 65.2026 65.7174 83.2029 43.3383 83.2029C20.9591 83.2029 2.81865 65.2026 2.81865 42.9994C2.81865 20.7974 20.9603 2.7959 43.3383 2.7959C65.7162 2.7959 83.8579 20.7974 83.8579 42.9994Z" fill="#2A2A28"/>
<path d="M64.3429 24.7558C64.9308 25.3833 65.7797 26.395 66.2563 27.0093L75.0319 21.4822C74.5937 20.9134 73.8944 20.0489 73.3736 19.4394L67.8153 23.0855L67.4357 23.4088L67.7183 22.9993L70.1729 18.1403L68.4367 16.4184L63.537 18.8527L63.1251 19.1329L63.4532 18.7569L67.1292 13.2453C66.4826 12.6993 65.8611 12.1988 65.0697 11.5929L59.4982 20.292C60.2047 20.8308 61.135 21.6211 61.7278 22.1599L66.9723 19.4598L67.3076 19.2143L67.0609 19.5484L64.3429 24.7558ZM44.4291 13.7303L46.8275 8.4019L46.9795 7.92893L46.9364 8.42106L47.1879 15.5431C48.0296 15.6221 48.8989 15.7383 49.7551 15.8796L49.3647 5.3318C48.1673 5.20008 46.9747 5.10669 45.7821 5.0564L43.4197 10.8733L43.3359 11.3056L43.2521 10.8745L40.8932 5.0564C39.6994 5.10669 38.5068 5.20008 37.3094 5.3318L36.9203 15.8808C37.7764 15.7371 38.6445 15.6245 39.4863 15.5431L39.7377 8.42106L39.6946 7.92893L39.8479 8.4007L42.2451 13.7303H44.4291ZM25.035 22.1371C26.4216 20.6883 27.2059 19.0143 25.8205 17.417C25.0661 16.5501 23.7993 16.3597 22.7492 16.7872L22.645 16.8279L22.6785 16.7369C22.8342 16.325 22.9336 15.0103 21.8044 14.1027C21.2536 13.6596 20.564 13.4956 19.8647 13.5662C18.5631 13.6979 17.5621 14.5804 14.8356 17.5966C14.0118 18.5067 12.8145 19.9435 12.096 20.8727L19.5845 27.9217C22.0667 25.1965 23.0785 24.1823 25.035 22.1371ZM15.2643 20.4129C16.7706 18.5821 18.3739 16.9213 19.1007 16.2639C19.3306 16.0568 19.5797 15.8497 19.8826 15.7682C20.3748 15.6341 20.8825 15.9814 20.9962 16.4819C21.1112 16.9848 20.7927 17.4625 20.4382 17.8565C19.6408 18.7497 16.7155 21.7851 16.7155 21.7851L15.2631 20.4129H15.2643ZM18.1967 23.1741C18.1967 23.1741 21.0453 20.1854 21.9757 19.2299C22.3445 18.8503 22.5815 18.6192 22.8366 18.4959C23.1647 18.3366 23.5239 18.3043 23.846 18.5162C24.1609 18.727 24.307 19.0874 24.228 19.4466C24.1334 19.8741 23.7813 20.2812 23.4916 20.5925L19.715 24.6026L18.1967 23.1741Z" fill="#2A2A28"/>
<path d="M42.8383 67.9941C29.3063 67.7335 18.4073 56.9157 18.1425 43.4993H42.8383V67.9941ZM43.8383 42.4993V18.0046C57.3702 18.2652 68.2693 29.083 68.5341 42.4993H43.8383Z" fill="#FAFAFA" stroke="#020810"/>
<path d="M43.3383 17.4998V42.9993H17.6375C17.6375 28.9073 29.1348 17.4998 43.3383 17.4998ZM69.039 42.9993C69.039 57.0926 57.5417 68.4989 43.3383 68.4989V42.9993H69.039Z" fill="#020810"/>
</svg>
