<svg width="130" height="31" viewBox="0 0 130 31" fill="none" xmlns="http://www.w3.org/2000/svg">
<path d="M3.11042 6.05406C3.75522 5.67017 6.29282 4.15017 8.75242 2.67686C11.81 0.845597 13.266 0 13.3648 0C13.4619 0 13.5312 0.0380432 13.5728 0.11413C13.6248 0.207509 13.6456 2.64055 13.6664 11.5945C13.682 17.8405 13.6976 22.9608 13.708 22.966C13.7132 22.9764 13.7704 22.9816 13.8328 22.9816C13.9004 22.9816 14.5504 22.6184 15.2784 22.1827C16.0064 21.7469 19.272 19.7859 22.5324 17.8354C25.7928 15.8796 32.3916 11.9214 37.1964 9.04218C42.0012 6.163 47.0556 3.13338 48.4284 2.30853C49.8012 1.48369 51.0908 0.736655 51.2884 0.643276C51.486 0.549898 51.85 0.440956 52.0944 0.394266C52.4896 0.316451 53.6076 0.311263 62.7648 0.311263C70.1436 0.311263 73.0764 0.326826 73.2688 0.368328C73.4196 0.399454 73.6588 0.487645 73.8044 0.560273C73.9448 0.632901 74.1788 0.798908 74.314 0.928601C74.4596 1.06867 74.6312 1.29693 74.7144 1.4785C74.7976 1.64969 74.886 1.92983 74.9172 2.10102C74.9588 2.31891 74.9744 6.06444 74.9744 14.7175C74.9744 21.4875 74.9848 27.0643 75.0004 27.1058C75.016 27.1525 75.0888 27.1836 75.1668 27.1836C75.25 27.1836 75.4528 27.0902 75.6244 26.9813C75.796 26.8724 77.3144 25.8867 79.0044 24.7973C80.6944 23.7027 83.1956 22.0789 84.5684 21.1918C85.9412 20.3047 87.4024 19.3554 87.8184 19.0856L88.0037 18.9654C88.7483 18.4824 91.0966 16.959 93.58 15.3556C96.3308 13.5711 99.7264 11.3715 101.12 10.4688C102.514 9.56614 104.188 8.47672 104.848 8.05133C105.509 7.62594 108.291 5.8258 111.036 4.04642C113.782 2.26703 116.195 0.736655 116.392 0.643276C116.59 0.549898 116.954 0.440956 117.198 0.394266C117.583 0.321638 118.259 0.311263 122.45 0.311263C127.084 0.311263 127.276 0.316451 127.624 0.415017C127.822 0.472082 128.113 0.596587 128.259 0.700341C128.41 0.798908 128.618 0.990853 128.716 1.12573C128.815 1.2658 128.95 1.50444 129.132 1.94539L129.148 11.0239C129.158 17.7264 129.148 20.2269 129.106 20.5693C129.07 20.8287 128.992 21.197 128.93 21.3993C128.867 21.5965 128.732 21.9129 128.628 22.0997C128.524 22.2864 128.326 22.5666 128.186 22.7222C128.04 22.8778 127.754 23.1372 127.541 23.3032C127.328 23.464 125.425 24.6313 123.308 25.8971C121.192 27.1629 118.675 28.6725 117.718 29.2483C116.335 30.0835 115.945 30.2962 115.82 30.2859C115.716 30.2755 115.644 30.2288 115.602 30.1406C115.55 30.0369 115.534 27.941 115.534 20.009C115.534 13.4517 115.519 9.97597 115.482 9.90853C115.451 9.85147 115.378 9.80478 115.311 9.80478C115.248 9.80478 115.056 9.89816 114.884 10.0071C114.713 10.116 113.356 10.9928 111.868 11.9577C110.381 12.9226 108.509 14.1365 107.708 14.6553C106.908 15.1741 105.082 16.3569 103.652 17.2855C102.222 18.2089 100.855 19.096 100.61 19.2568C100.366 19.4124 99.4196 20.0298 98.5044 20.6212C97.5892 21.2177 96.6532 21.8247 96.4244 21.97C96.1956 22.1204 95.3272 22.6807 94.5004 23.215C93.6736 23.7494 92.6544 24.4082 92.2384 24.678C91.8224 24.9477 90.1168 26.0579 88.4424 27.1421C86.768 28.2263 85.2912 29.1705 85.156 29.238C85.0156 29.3054 84.7244 29.4247 84.1004 29.6478L73.9084 29.6633C67.0704 29.6737 63.6072 29.6582 63.3784 29.6218C63.1912 29.5959 62.9156 29.5129 62.77 29.4403C62.6192 29.3676 62.3852 29.2068 62.25 29.0823C62.1096 28.9578 61.9276 28.7192 61.834 28.5532C61.7456 28.382 61.6468 28.107 61.6156 27.9358C61.574 27.718 61.5584 23.9984 61.5584 15.3141C61.5584 7.21611 61.5428 2.97256 61.5064 2.90512C61.4804 2.84805 61.4024 2.80137 61.34 2.80137C61.2724 2.80137 58.1732 4.62225 54.4084 6.87891C50.6644 9.12 46.2496 11.7605 44.6064 12.7462C42.9632 13.7319 41.5644 14.5878 41.4968 14.6501C41.4344 14.7072 41.3824 14.8057 41.3824 14.8628C41.3824 14.9302 43.8732 17.4515 48.522 22.0841C52.4428 26.0008 55.6824 29.2639 55.7084 29.3365C55.75 29.4403 55.7396 29.487 55.6668 29.5544C55.5784 29.6426 55.178 29.6478 48.7248 29.6478C43.036 29.6478 41.8296 29.6374 41.5904 29.5752C41.4344 29.5337 41.1744 29.4455 41.0184 29.378C40.7688 29.2639 40.1864 28.7036 36.3384 24.8647C32.2304 20.7664 31.934 20.4811 31.7884 20.5018C31.7 20.5122 29.8852 21.5705 27.7324 22.8623C25.59 24.1488 22.3244 26.1046 20.4784 27.2147C18.6324 28.3197 16.9372 29.3002 16.7084 29.3936C16.4796 29.487 16.1416 29.5907 15.9544 29.6167C15.7516 29.6478 12.8916 29.6685 8.85642 29.6685C4.52482 29.6737 1.98202 29.653 1.78442 29.6218C1.61282 29.5907 1.34762 29.5129 1.19682 29.4403C1.05122 29.3676 0.817223 29.2068 0.676823 29.0823C0.536424 28.9526 0.359624 28.714 0.266024 28.5272C0.172424 28.3353 0.0736236 28.0396 0.0424236 27.8321C0.00602359 27.5779 -0.0095764 24.844 0.00602359 18.6498C0.0216236 12.2897 0.0424236 9.74253 0.0840236 9.50389C0.120424 9.32751 0.198424 9.037 0.255624 8.85543C0.318024 8.67904 0.442824 8.39372 0.531224 8.22771C0.619624 8.05652 0.843224 7.75563 1.03042 7.5585C1.21762 7.35618 1.49842 7.09679 1.65442 6.97747C1.81042 6.85816 2.46562 6.44314 3.11042 6.05406Z" fill="#020810"/>
</svg>
