<svg width="129" height="44" viewBox="0 0 129 44" fill="none" xmlns="http://www.w3.org/2000/svg">
<path d="M106.412 44C101.293 44 96.4001 42.3444 92.447 39.2562C88.4939 42.3126 83.6012 44 78.4816 44C73.362 44 68.4693 42.3444 64.5162 39.2562C60.5631 42.3126 55.6704 44 50.5508 44C45.4312 44 40.5384 42.3444 36.5854 39.2562C32.6323 42.3126 27.7395 44 22.6199 44C16.6579 44 11.0523 41.7713 6.80758 37.6961C2.49807 33.6208 0.100291 28.1766 0.00308418 22.3821C-0.0941229 16.5557 2.10924 11.0478 6.22434 6.81331C10.307 2.61071 15.8478 0.191028 21.8099 0H21.9071H23.3328C28.1931 0.15919 32.7943 1.81476 36.553 4.71201C40.2792 1.81476 44.8804 0.15919 49.7407 0L49.8379 2.48336V0H51.2636C56.124 0.15919 60.7251 1.81476 64.4838 4.71201C68.2425 1.81476 72.8112 0.15919 77.704 0H77.8012H79.2269C84.0872 0.15919 88.6884 1.81476 92.447 4.71201C96.1733 1.81476 100.774 0.15919 105.667 0L105.764 2.48336V0H107.19C113.12 0.191028 118.661 2.61071 122.776 6.81331C126.891 11.0159 129.094 16.5557 128.997 22.3502C128.9 28.1766 126.502 33.6208 122.257 37.6961C117.948 41.7713 112.342 44 106.412 44ZM96.1409 35.6585C99.0247 37.7279 102.589 38.9696 106.412 38.9696C115.842 38.9696 123.651 31.4877 123.78 22.3184C123.942 13.1491 116.425 5.44428 107.028 5.09407H105.797C102.2 5.22142 98.8951 6.43126 96.1733 8.37337C99.4136 12.3531 101.098 17.2562 101.034 22.3821C100.904 27.2533 99.2191 31.8698 96.1409 35.6585ZM68.2101 35.6585C71.0939 37.7279 74.6581 38.9696 78.4816 38.9696C82.3051 38.9696 85.837 37.7279 88.7208 35.6585C85.6749 31.9016 83.9576 27.2533 83.8604 22.3821C83.7632 17.2562 85.4805 12.3531 88.7208 8.37337C85.999 6.43126 82.6939 5.22142 79.0973 5.09407H77.866C74.2693 5.22142 70.9643 6.43126 68.2425 8.37337C71.4827 12.3531 73.1676 17.2562 73.1028 22.3821C72.9732 27.2533 71.2559 31.8698 68.2101 35.6585ZM40.2468 35.6585C43.1306 37.7279 46.6949 38.9696 50.5184 38.9696C54.3419 38.9696 57.8737 37.7279 60.7575 35.6585C57.7117 31.9016 55.9944 27.2533 55.8972 22.3821C55.8 17.2562 57.5173 12.3531 60.7575 8.37337C58.0357 6.43126 54.7307 5.22142 51.134 5.09407H49.9027C46.3061 5.22142 43.001 6.43126 40.2792 8.37337C43.5195 12.3531 45.2044 17.2562 45.1396 22.3821C45.01 27.2533 43.2926 31.8698 40.2468 35.6585ZM21.9395 5.06223C12.5428 5.38061 5.02545 13.1172 5.18746 22.2865C5.34947 31.4559 13.126 38.9378 22.5551 38.9378C26.3786 38.9378 29.9105 37.6961 32.7943 35.6266C29.7485 31.8698 28.0311 27.2214 27.9339 22.3502C27.8367 17.2243 29.554 12.3213 32.7943 8.34153C30.0725 6.39942 26.7674 5.18958 23.1708 5.06223H21.9395ZM64.4838 11.9711C62.2804 14.8683 61.0167 18.4342 61.0816 22.2865C61.1464 25.9161 62.41 29.2909 64.4838 32.0289C66.5575 29.2909 67.8212 25.9161 67.886 22.2865C67.9509 18.4342 66.6548 14.8683 64.4838 11.9711ZM36.5206 11.9711C34.3172 14.8683 33.0535 18.4342 33.1183 22.2865C33.1831 25.9161 34.4468 29.2909 36.5206 32.0289C38.5943 29.2909 39.858 25.9161 39.9228 22.2865C39.9876 18.4342 38.7239 14.8683 36.5206 11.9711ZM92.4146 11.9711C90.2113 14.8683 88.9476 18.4342 89.0124 22.2865C89.0772 25.9161 90.3409 29.2909 92.4146 32.0289C94.4884 29.2909 95.7521 25.9161 95.8169 22.2865C95.9141 18.4342 94.618 14.8683 92.4146 11.9711Z" fill="#020810"/>
</svg>
