<svg width="170" height="39" viewBox="0 0 170 39" fill="none" xmlns="http://www.w3.org/2000/svg">
<path fill-rule="evenodd" clip-rule="evenodd" d="M85.1191 0C85.7856 0 87.6328 0.360714 90.2607 1.02519C92.5078 1.59474 95.6499 2.44906 97.2114 2.94267C98.792 3.41729 101.363 4.25263 102.924 4.78421C105.705 5.73346 105.857 5.77143 108.161 5.8094C109.475 5.82838 113.15 5.69549 116.35 5.50564C119.549 5.31579 125.547 4.97406 129.68 4.76523C133.812 4.53741 139.944 4.23365 143.295 4.08177C146.647 3.92989 150.456 3.75902 151.77 3.70207C153.083 3.64511 155.997 3.51222 158.244 3.41729C160.491 3.30338 163.748 3.22744 168.623 3.24643L163.1 5.90432L157.958 6.35996C155.121 6.62575 151.274 6.98647 149.389 7.1953C147.504 7.40414 143.295 7.87876 140.058 8.25846C136.821 8.63816 131.793 9.22669 128.918 9.58741C126.042 9.94812 122.824 10.3278 121.777 10.4417C120.729 10.5556 118.844 10.8594 117.587 11.1062C116.331 11.353 114.712 11.7707 113.969 11.9985C113.227 12.2453 112.084 12.8338 111.398 13.3085C110.713 13.7831 109.761 14.6374 109.285 15.207C108.809 15.7765 107.304 17.8079 105.952 19.7444C104.581 21.6808 103.115 23.7692 102.696 24.3957C102.277 25.0222 101.21 26.4271 100.354 27.5282C99.4775 28.6293 97.8018 30.4898 96.6592 31.6479C94.831 33.4895 94.6025 33.8122 94.9263 33.9071C95.1357 33.9831 95.6118 33.9641 95.9736 33.9071C96.3354 33.8312 99.0776 33.0528 102.067 32.1795C105.057 31.3062 107.99 30.4519 108.599 30.3C109.189 30.1291 109.685 29.9393 109.685 29.8633C109.685 29.7684 108.599 29.3507 107.266 28.9141C105.914 28.4585 104.695 28.0218 104.543 27.9269C104.295 27.775 104.314 27.6801 104.638 27.3383C104.848 27.1295 105.324 26.8447 105.686 26.7118C106.143 26.56 108.466 26.503 120.063 26.484L122.634 25.7816C124.043 25.4019 126.023 24.8323 127.014 24.5286C128.004 24.2058 131.127 23.2566 133.964 22.4023C136.802 21.5289 139.239 20.7695 139.392 20.6936C139.544 20.6177 138.801 20.5038 137.678 20.4278C136.573 20.3709 134.688 20.2759 133.488 20.219C132.289 20.162 129.718 20.0291 127.775 19.9342C125.833 19.8393 122.12 19.6684 119.492 19.5545C116.883 19.4406 114.255 19.2887 113.684 19.2128C112.789 19.0989 112.636 19.0229 112.598 18.6622C112.56 18.3395 112.712 18.1306 113.169 17.8648C113.493 17.656 114.122 17.4472 114.541 17.3902C114.959 17.3143 121.948 17.1434 130.061 16.9915C138.173 16.8397 145.638 16.6688 146.628 16.5929C147.618 16.5359 149.256 16.365 150.246 16.2132C151.236 16.0423 152.874 15.6436 153.864 15.3209C154.969 14.9601 156.207 14.3716 157.006 13.84C157.749 13.3464 158.815 12.4541 159.406 11.8466C159.996 11.2201 161.082 9.91015 161.824 8.92293C163.157 7.11936 163.157 7.11936 164.643 6.5688C165.48 6.26504 166.871 5.73346 167.766 5.37274C168.661 5.03101 169.403 4.76523 169.441 4.78421C169.479 4.82218 169.384 5.14492 169.232 5.50564C169.08 5.86635 168.47 6.98647 167.88 7.97368C167.27 8.9609 166.204 10.5556 165.48 11.4859C164.776 12.4162 163.481 13.859 162.605 14.6944C161.291 15.9284 160.644 16.365 158.911 17.1814C157.768 17.732 155.997 18.4534 155.007 18.7761C154.017 19.0989 148.57 20.7316 142.915 22.4023C137.259 24.0729 130.746 26.0094 128.442 26.6929C126.138 27.3763 122.805 28.3635 121.015 28.8761C119.225 29.4077 117.226 29.9962 116.54 30.1861C115.854 30.3759 112.636 31.3062 109.399 32.2365C106.162 33.1857 101.648 34.4577 99.4014 35.0842C97.1543 35.7107 93.498 36.6979 91.3081 37.2865C89.1182 37.856 86.7949 38.4256 86.1665 38.5395C85.3286 38.6913 84.7764 38.7103 84.0718 38.5585C83.5576 38.4445 81.1392 37.818 78.7397 37.1915C76.3403 36.565 70.894 35.0652 66.6475 33.8502C62.4009 32.6541 57.8115 31.3442 56.4595 30.9455C55.1074 30.5468 51.8892 29.5976 49.3184 28.8571C46.7476 28.0977 43.1104 27.0346 41.2251 26.484C39.3398 25.9145 34.4458 24.4716 30.3706 23.2566C26.2954 22.0415 21.4775 20.6177 19.7065 20.0861C17.9356 19.5735 15.8218 18.928 15.041 18.6622C14.2603 18.4154 12.6226 17.732 11.4229 17.1434C9.38526 16.1562 9.09961 15.9474 7.21436 14.0679C5.84327 12.7009 4.73877 11.334 3.69141 9.77726C2.85352 8.52425 1.88233 6.92951 1.52051 6.22707C1.1587 5.52462 0.892095 4.91711 0.949224 4.86015C1.00635 4.8032 2.43458 5.2968 7.2334 7.11936L8.7378 9.11278C9.55664 10.2139 10.8325 11.6758 11.5942 12.3972C12.3369 13.0996 13.4033 13.935 13.9556 14.2387C14.4888 14.5615 15.7266 15.0551 16.6597 15.3588C17.5928 15.6626 19.1543 16.0423 20.0874 16.1942C21.0205 16.365 22.582 16.5359 23.5151 16.5929C24.4482 16.6498 30.104 16.7827 36.0835 16.8966C42.063 17.0105 49.0898 17.1624 51.7368 17.2383C56.0977 17.3523 56.5737 17.4092 57.0308 17.7509C57.3164 17.9598 57.6592 18.2825 57.7734 18.4534C57.9258 18.7002 57.9258 18.8521 57.7353 19.0229C57.564 19.1938 56.4214 19.3077 54.022 19.4026C52.1177 19.4786 49.6611 19.5735 48.5566 19.6494C47.4521 19.7064 43.9863 19.8773 40.8442 20.0291C37.7021 20.181 34.1411 20.3519 32.9414 20.4278C31.7036 20.4848 30.8657 20.5987 31.0371 20.6936C31.1895 20.7695 33.7603 21.5859 36.75 22.4972C39.7397 23.3895 42.9961 24.3957 43.9863 24.7184C44.9766 25.0222 46.8237 25.5538 50.3657 26.465L57.2212 26.484C61.9248 26.503 64.2861 26.56 64.7432 26.7118C65.105 26.8447 65.562 27.1105 65.7334 27.3383C66.0571 27.6991 66.0571 27.737 65.6382 27.9838C65.4097 28.1357 64.21 28.5724 62.9722 28.99C61.7344 29.3887 60.7441 29.7684 60.7441 29.8633C60.7441 29.9393 60.8965 30.0342 61.0679 30.0722C61.2583 30.1291 63.0864 30.6417 65.124 31.2303C67.1616 31.8188 69.9038 32.6351 71.2178 33.0338C72.5317 33.4325 73.979 33.8122 74.4551 33.8882C74.9311 33.9641 75.4263 33.9831 75.5405 33.9071C75.7119 33.8312 75.0264 33.0148 73.6362 31.572C72.4556 30.338 70.9702 28.7053 70.3608 27.9269C69.7324 27.1485 67.5234 24.1109 65.4478 21.1872C63.3911 18.2445 61.144 15.3019 60.4775 14.6184C59.811 13.935 58.7637 13.1186 58.1543 12.7769C57.5259 12.4541 56.4785 12.0175 55.793 11.8086C55.1074 11.5998 53.6602 11.2581 52.5557 11.0492C51.4512 10.8404 49.3184 10.5177 47.7949 10.3468C46.2715 10.1759 42.7295 9.73929 39.8921 9.39756C37.0547 9.03684 31.7036 8.41034 27.9902 7.99267C24.2769 7.575 19.9922 7.10038 18.4688 6.92951C16.9453 6.77763 13.8223 6.47387 7.32862 5.90432L1.80616 3.24643H4.94825C6.68116 3.22744 9.97559 3.32237 12.2798 3.41729C14.584 3.51222 18.5259 3.68308 21.0396 3.79699C23.5532 3.9109 27.2856 4.08177 29.3232 4.17669C31.3608 4.27162 33.9316 4.40451 35.0361 4.46147C36.1406 4.51842 39.4351 4.68929 42.3677 4.84117C45.3003 4.99304 50.8608 5.31579 54.7456 5.52462C58.6304 5.75244 62.439 5.88534 63.2197 5.82838C64.2671 5.77143 65.4858 5.46767 67.79 4.68929C69.5229 4.10075 72.0557 3.2844 73.4077 2.86673C74.7598 2.44906 77.7305 1.63271 79.9775 1.06316C82.3579 0.455639 84.5098 0.018985 85.1191 0ZM9.38526 7.02444C9.48047 7.02444 10.604 7.15733 11.8608 7.30921C13.1367 7.48007 16.7549 7.89774 19.897 8.25846C23.0391 8.61917 28.9424 9.30263 33.0366 9.77726C37.1118 10.2519 42.4819 10.8974 44.9385 11.2011C47.395 11.5239 50.2324 11.9036 51.2227 12.0555C52.2129 12.2263 53.7554 12.5301 54.6504 12.7199C55.7549 12.9857 56.6309 13.3274 57.4116 13.8211C58.04 14.2197 58.9731 14.9601 59.4683 15.4727C59.9634 16.0043 61.0298 17.4092 61.8296 18.6053C62.6294 19.8013 63.9243 21.6429 64.7051 22.687C65.4858 23.7312 66.876 25.4778 67.771 26.5789C68.666 27.6801 69.9228 29.1229 70.5513 29.8064C71.1797 30.4898 71.9033 31.2872 72.1699 31.61C72.5317 32.0276 72.3794 31.9517 71.5986 31.3252C71.0273 30.8695 69.4277 29.3697 68.0757 28.0028C66.7046 26.6359 64.8574 24.5476 63.9624 23.3515C63.0674 22.1555 61.8296 20.4468 61.2012 19.5925C60.5918 18.7192 59.4683 17.4282 58.7446 16.7068C58.0019 16.0043 56.9546 15.207 56.4023 14.9222C55.8691 14.6564 54.7075 14.2197 53.8315 13.9729C52.9746 13.7261 51.5464 13.3844 50.6514 13.2135C49.7563 13.0427 46.3286 12.5111 43.0342 12.0365C39.7397 11.5808 34.2554 10.8594 30.8467 10.4227C27.438 10.0051 22.4297 9.32162 19.7065 8.90395C16.9834 8.50526 13.5557 7.93571 12.0894 7.66992C10.6231 7.40414 9.38526 7.13835 9.32813 7.10038C9.271 7.04342 9.30909 7.02444 9.38526 7.02444ZM159.577 7.25226C159.939 7.25226 160.148 7.27124 160.053 7.30921C159.939 7.36617 158.873 7.575 157.673 7.78383C156.473 7.99267 152.988 8.54323 149.96 9.01786C146.914 9.4735 142.553 10.062 140.249 10.3468C137.944 10.6126 133.279 11.2201 129.87 11.6947C126.461 12.1504 122.653 12.7009 121.396 12.9098C120.139 13.1186 118.254 13.5173 117.207 13.7831C116.159 14.0489 114.788 14.5045 114.16 14.8083C113.493 15.131 112.446 15.9094 111.684 16.6498C110.941 17.3712 109.399 19.2508 108.256 20.8645C107.095 22.4782 105.381 24.6994 104.429 25.8006C103.477 26.9017 102.163 28.3256 101.477 28.9521C100.811 29.5786 99.7251 30.5468 99.0586 31.0974C98.4111 31.6289 97.8208 32.0846 97.7256 32.0846C97.6494 32.1036 98.354 31.3062 99.2871 30.338C100.22 29.3697 101.763 27.6421 102.696 26.484C103.648 25.3259 104.981 23.6173 105.686 22.687C106.39 21.7568 107.647 19.9532 108.485 18.7002C109.323 17.4472 110.541 15.9094 111.17 15.2829C111.798 14.6564 112.712 13.916 113.227 13.6312C113.741 13.3464 114.674 12.9857 115.302 12.8338C115.931 12.663 117.435 12.3592 118.635 12.1694C119.834 11.9605 122.843 11.5429 125.3 11.2201C127.756 10.9164 134.612 10.1 140.534 9.39756C146.457 8.7141 153.007 7.9547 155.102 7.70789C157.197 7.46109 159.215 7.25226 159.577 7.25226Z" fill="#141516"/>
<path d="M83.7671 3.18939C84.0527 2.52492 84.5098 1.57567 84.7573 1.06308C85.0049 0.550483 85.2524 0.208753 85.3286 0.303678C85.3857 0.398603 85.8237 1.34785 87.1187 4.34748L88.8325 4.76514C89.7847 4.99296 91.8032 5.54353 93.3457 5.99917C94.9072 6.45481 97.0591 7.17623 98.1636 7.5939C99.2681 8.01157 100.715 8.60011 101.401 8.92285C102.239 9.30255 102.772 9.70123 103.039 10.1189C103.343 10.5935 103.4 10.9353 103.343 11.6757C103.286 12.2072 102.81 13.9918 102.258 15.6625C101.706 17.3332 100.734 19.9341 100.087 21.4529C99.4395 22.9717 98.5635 24.7183 98.1445 25.3259C97.7446 25.9524 96.8115 26.9965 96.0688 27.68C95.3262 28.3445 93.917 29.4836 92.9268 30.186C91.9365 30.8885 90.2988 31.9326 87.4995 33.5463L86.3569 36.0334C85.7285 37.4193 85.1572 38.4824 85.1001 38.4065C85.043 38.3116 84.5288 37.2104 82.9292 33.5843L80.7393 32.2933C79.5396 31.5719 77.8257 30.4518 76.9307 29.8063C76.0356 29.1418 74.6074 27.9078 73.7695 27.0725C72.3984 25.7245 72.0938 25.2689 71.1797 23.3514C70.5894 22.1554 69.6753 19.9911 69.1421 18.5672C68.6089 17.1244 67.9043 15.036 67.5806 13.9159C67.1426 12.3971 67.0093 11.6377 67.0855 11.0112C67.1616 10.3467 67.314 10.043 67.8281 9.62529C68.1709 9.34052 69.4849 8.69503 70.7417 8.18244C71.9985 7.66984 73.96 6.94841 75.1216 6.5877C76.2642 6.208 78.2446 5.63845 79.5015 5.31571C80.7583 4.99296 82.1104 4.63225 82.4912 4.53732C83.1387 4.38544 83.272 4.23357 83.7671 3.18939Z" fill="#FEFEFE"/>
<path d="M76.0737 7.85984C77.7495 7.30928 80.3584 6.60683 81.8819 6.28409C83.4053 5.98033 84.8145 5.71454 85.0239 5.69556C85.2334 5.69556 86.4712 5.90439 87.7852 6.17018C89.0991 6.43597 90.9844 6.87262 91.9746 7.13841C92.9649 7.4042 94.6787 7.95477 95.7832 8.35345C96.8877 8.75214 98.4302 9.35965 99.211 9.72037C99.9917 10.1001 100.849 10.6127 101.115 10.8974C101.477 11.2961 101.591 11.6189 101.572 12.2074C101.553 12.6441 101.02 14.5805 100.354 16.517C99.7061 18.4535 98.6587 21.0924 98.0303 22.4023C97.002 24.5856 96.7735 24.9083 95.25 26.4082C94.2217 27.4144 92.6602 28.6294 91.1177 29.6546C89.7656 30.5469 87.9185 31.648 87.0235 32.0657C86.1284 32.5023 85.2715 32.8441 85.1192 32.8441C84.9668 32.8441 84.1099 32.4644 83.2149 32.0277C82.3198 31.5721 80.7012 30.6228 79.5967 29.9014C78.4922 29.18 76.9116 28.0029 76.0737 27.3194C75.2359 26.617 74.1885 25.5538 73.7505 24.9463C73.3125 24.3198 72.6651 23.1807 72.2842 22.4023C71.9033 21.6239 71.1226 19.7065 70.5513 18.1307C69.98 16.5739 69.3135 14.5425 69.085 13.6313C68.666 12.0555 68.666 11.9796 68.9898 11.3151C69.2564 10.7456 69.5991 10.4988 71.1607 9.75834C72.189 9.26473 74.398 8.42939 76.0737 7.85984Z" fill="#141516"/>
<path d="M72.7793 12.701C73.0269 12.5302 73.4839 12.3593 73.7886 12.3023C74.0933 12.2644 74.6646 12.3023 75.0264 12.3783C75.3882 12.4542 75.7119 12.5681 75.75 12.6251C75.769 12.682 75.75 12.796 75.6929 12.9099C75.6294 13.0364 75.4707 13.0364 75.2168 12.9099C75.0073 12.796 74.6265 12.72 74.3599 12.72C74.0933 12.72 73.6553 12.9288 73.4077 13.1946C73.103 13.4984 72.9316 13.8971 72.9316 14.2768C72.9126 14.6185 73.084 15.1311 73.3125 15.4159C73.5981 15.8146 73.8457 15.9475 74.3599 15.9475C74.9692 15.9475 75.0264 15.9095 75.0264 15.3779C75.0264 15.0552 74.8931 14.6755 74.7407 14.5236C74.4932 14.2768 74.5313 14.2388 75.7881 14.2388V15.1881C75.7881 16.0424 75.731 16.1563 75.2739 16.3461C74.9692 16.4601 74.3599 16.498 73.8838 16.4411C73.3506 16.3841 72.8555 16.1753 72.5889 15.9095C72.3604 15.6627 72.1128 15.207 72.0557 14.9033C71.9795 14.5805 72.0366 14.03 72.1318 13.6693C72.2461 13.3085 72.5317 12.8719 72.7793 12.701Z" fill="#FEFEFE"/>
<path d="M89.6323 12.682C89.8228 12.5112 90.1846 12.3403 90.4512 12.3023C90.7178 12.2834 91.1939 12.2834 91.4985 12.3213C91.8223 12.3593 92.0889 12.4732 92.127 12.6061C92.146 12.739 91.8413 12.8149 91.27 12.8149C90.5654 12.8149 90.356 12.8909 90.3179 13.1377C90.2798 13.3845 90.5464 13.6123 91.2129 13.954C91.7461 14.2198 92.2793 14.6375 92.4126 14.8843C92.603 15.283 92.584 15.4349 92.3174 15.8335C92.127 16.0993 91.7842 16.3841 91.5557 16.4411C91.3081 16.498 90.7749 16.517 90.356 16.479C89.8608 16.4411 89.5752 16.3272 89.5371 16.1373C89.499 15.9095 89.7085 15.8525 90.4893 15.8525C91.2891 15.8525 91.4985 15.7956 91.5366 15.5108C91.5747 15.321 91.3652 15.0552 91.0034 14.8463C90.6797 14.6755 90.1655 14.3337 89.8608 14.0869C89.5562 13.8591 89.3086 13.5174 89.3086 13.3275C89.2896 13.1567 89.4419 12.8719 89.6323 12.682Z" fill="#FEFEFE"/>
<path d="M95.3071 12.682C95.4785 12.5112 95.8403 12.3213 96.126 12.2834C96.4116 12.2454 96.7544 12.2454 96.8687 12.2834C97.002 12.3023 97.2876 12.3403 97.4971 12.3403C97.7065 12.3403 97.8779 12.4542 97.8779 12.5681C97.8779 12.739 97.5732 12.8149 96.9639 12.8149C96.2212 12.8149 96.0689 12.8719 96.0689 13.1567C96.0689 13.3655 96.4116 13.6882 97.021 14.011C97.8779 14.4666 97.9731 14.5995 98.0112 15.226C98.0493 15.7956 97.9731 16.0044 97.6494 16.2322C97.3638 16.4221 96.8687 16.498 96.2593 16.479C95.5928 16.4411 95.2881 16.3272 95.25 16.1373C95.2119 15.9095 95.4214 15.8525 96.2022 15.8525C97.0781 15.8525 97.2114 15.7956 97.2114 15.4728C97.2114 15.226 96.8877 14.9223 96.2022 14.5236C95.5166 14.1439 95.1548 13.8022 95.0977 13.4794C95.0215 13.1757 95.0977 12.8909 95.3071 12.682Z" fill="#FEFEFE"/>
<path d="M77.1021 14.6945C77.083 13.8022 76.9878 12.9099 76.8926 12.701C76.7212 12.3593 76.7974 12.3403 78.2446 12.3403C79.1016 12.3403 79.8252 12.4163 79.8823 12.5302C79.9395 12.6441 79.5586 12.72 77.8828 12.72V13.3845C77.8828 14.049 77.8828 14.049 78.7398 14.049C79.3682 14.049 79.5967 14.1249 79.5967 14.3337C79.5967 14.5426 79.3682 14.6185 78.7398 14.6185C77.8828 14.6185 77.8828 14.6185 77.8828 15.9475H78.9302C79.5015 15.9475 79.9775 16.0234 79.9775 16.1373C79.9775 16.2512 79.3682 16.3272 77.1211 16.3272L77.1021 14.6945Z" fill="#FEFEFE"/>
<path d="M81.2153 16.3272C80.9868 16.3272 80.9297 15.9664 80.8726 14.3337H80.8916C80.8345 12.4542 80.8535 12.3403 81.2153 12.3403C81.4629 12.3403 81.958 12.8149 83.6909 15.0741L83.71 13.7072C83.729 12.5871 83.8052 12.3403 84.0527 12.3403C84.3193 12.3403 84.3574 12.6251 84.3574 14.3337C84.3574 16.0993 84.3193 16.3272 84.0337 16.3272C83.8433 16.3272 83.272 15.7766 82.7388 15.1121C82.2246 14.4476 81.7295 13.9351 81.6533 13.973C81.5581 14.011 81.501 14.4476 81.52 14.9413V16.0804C81.501 16.2132 81.3677 16.3272 81.2153 16.3272Z" fill="#FEFEFE"/>
<path d="M85.6523 14.6945C85.6333 13.8022 85.5381 12.9099 85.4429 12.701C85.2715 12.3593 85.3477 12.3403 86.7949 12.3403C87.6519 12.3403 88.3755 12.4163 88.4326 12.5302C88.4897 12.6441 88.1089 12.739 87.5376 12.758C86.5474 12.8149 86.5283 12.8339 86.4331 14.049H87.3853C88.0518 14.049 88.3184 14.1249 88.2803 14.2768C88.2422 14.4287 87.8423 14.5426 87.3281 14.5616C86.4331 14.6185 86.4331 14.6185 86.4331 15.9475H87.4805C88.0518 15.9475 88.5278 16.0234 88.5278 16.1373C88.5278 16.2512 87.9185 16.3272 85.6714 16.3272L85.6523 14.6945Z" fill="#FEFEFE"/>
<path d="M93.3457 16.2702C93.3457 16.2512 93.2886 15.3589 93.2505 14.2768L93.1934 12.3403H94.2407L94.2026 14.3717C94.1455 16.3082 94.1265 16.4221 93.7647 16.3651C93.5552 16.3272 93.3647 16.2702 93.3457 16.2702Z" fill="#FEFEFE"/>
</svg>
