<svg width="82" height="70" viewBox="0 0 82 70" fill="none" xmlns="http://www.w3.org/2000/svg">
<g clip-path="url(#clip0_95_342)">
<path fill-rule="evenodd" clip-rule="evenodd" d="M60.3266 6.13794C58.3108 14.6267 57.6605 18.61 56.1649 24.748C54.6692 30.7555 53.4987 36.2406 51.5479 38.8525C49.597 41.4644 46.9309 42.1827 44.915 42.3133C43.9396 42.5092 43.2894 42.5092 41.2735 42.5092C39.2576 42.5092 38.4773 42.5092 37.6319 42.3133C35.8112 42.1174 33.145 41.4644 30.9991 38.8525C28.9832 36.1753 27.8778 30.6902 26.3821 24.748C24.8865 18.61 24.0411 14.6267 22.2204 6.13794C22.2204 6.13794 20.3996 6.13794 19.4242 6.33384C18.2537 6.33384 17.4083 6.33384 16.4329 6.52973C16.4329 6.52973 17.6034 24.1603 18.0586 31.4738C18.5788 39.3096 19.5542 52.3693 20.3996 62.36C20.3996 62.36 22.0253 62.6864 24.6914 62.6864C27.3576 63.0129 28.6581 63.2088 28.6581 63.2088C29.8286 58.8991 31.3242 52.7611 32.8199 50.0838C34.1204 47.929 36.1363 47.7331 37.3068 47.6025C39.1276 47.4066 40.6232 47.276 41.2735 47.276C41.9238 47.276 43.4194 47.276 45.2402 47.6025C46.4107 47.7984 48.3615 47.929 49.7271 50.0838C51.3528 52.7611 52.7184 58.7032 53.8889 63.2088C53.8889 63.2088 55.0594 63.2088 57.8556 63.0129C60.5217 62.817 62.1474 62.6864 62.1474 62.6864C62.9928 52.6958 63.9682 39.5708 64.4884 31.8003C65.0086 24.3562 66.1141 6.85622 66.1141 6.85622C65.1387 6.66033 64.2933 6.66033 63.1228 6.52973C62.3425 6.13794 60.3266 6.13794 60.3266 6.13794Z" fill="black"/>
<path fill-rule="evenodd" clip-rule="evenodd" d="M77.7541 36.0448C77.1038 45.1866 76.2584 50.8022 75.283 54.7854C74.3076 58.2463 73.1371 60.597 71.3163 62.2295C68.325 65.0373 64.2283 65.6903 61.8873 66.0821C56.7501 66.931 47.9714 67.2575 41.2085 67.2575C34.4456 67.2575 25.6668 66.931 20.5296 66.0821C18.1886 65.7556 14.0919 65.1026 11.1006 62.2295C9.27983 60.597 8.10933 58.2463 7.13392 54.7854C5.96342 50.8022 5.24811 45.3172 4.59784 36.0448C4.2727 30.5597 4.2727 21.4179 4.92298 16.5858C5.76834 9.46828 9.21481 5.81157 16.4979 4.4403C19.6192 3.78731 24.3012 3.26493 28.5931 3.13433C32.1046 3.00373 37.892 2.80784 41.0134 2.80784C44.1347 2.80784 49.9222 3.00373 53.4337 3.13433C57.7255 3.33022 62.3425 3.78731 65.854 4.4403C73.1371 5.74627 76.5836 9.40299 77.4289 16.5858C77.8841 21.6138 78.0792 30.5597 77.7541 36.0448ZM81.7207 16.7817C80.5503 5.28918 73.2672 2.80784 66.8294 1.69776C63.513 1.17537 57.9206 0.718284 54.084 0.522388C50.8976 0.195896 43.2893 0 41.0134 0C38.6724 0 31.0641 0.195896 27.9428 0.326493C24.3012 0.522388 18.5138 0.979478 15.1974 1.63246C8.75961 2.80784 1.4765 5.09328 0.306004 16.7164C-0.0191345 19.8507 -0.0191345 24.0299 -0.0191345 28.3396C0.175949 35.653 0.631143 40.6157 0.956282 43.9459C1.15137 46.2966 2.12678 53.4142 3.29728 56.875C4.92298 61.8377 6.41861 63.3396 8.10933 64.8414C11.2307 67.5187 16.5629 68.3022 17.7334 68.694C23.716 69.8694 35.6161 70 40.8833 70C46.1506 70 58.1157 69.8041 64.0332 68.694C65.2037 68.4981 70.3409 67.7146 73.6573 64.8414C75.4781 63.3396 76.7786 61.8377 78.4694 56.875C79.6399 53.2183 80.6153 46.2313 80.8104 43.9459C81.1355 40.4851 81.7858 35.653 81.7858 28.3396C82.0459 23.8993 82.0459 19.916 81.7207 16.7817Z" fill="black"/>
</g>
<defs>
<clipPath id="clip0_95_342">
<rect width="82" height="70" fill="white"/>
</clipPath>
</defs>
</svg>
