<svg width="112" height="55" viewBox="0 0 112 55" fill="none" xmlns="http://www.w3.org/2000/svg">
<path d="M46.0004 0.436112C47.0444 0.331302 49.1672 0.174086 50.6984 0.0867437C52.2296 -0.000598374 55.3617 -0.0180668 57.6585 0.01687C59.9553 0.0692753 63.2091 0.209023 64.8796 0.34877C66.55 0.505986 69.0904 0.768012 70.5346 0.977633C71.9614 1.16979 74.5541 1.6065 76.2767 1.9384C77.9993 2.2703 80.5745 2.84675 82.0187 3.23106C83.4456 3.5979 85.6902 4.24423 86.9778 4.68094C88.2654 5.10018 90.3534 5.86879 91.5888 6.35791C92.8243 6.86449 94.9819 7.86019 96.3739 8.59387C97.7659 9.31007 99.8017 10.5154 100.898 11.284C101.994 12.0351 103.595 13.2754 104.465 14.0265C105.335 14.7952 106.396 15.8433 106.831 16.3498C107.266 16.8739 107.98 17.7997 108.432 18.4286C108.867 19.0574 109.494 20.123 109.824 20.7868C110.155 21.4506 110.607 22.5686 110.816 23.2324C111.112 24.1233 111.234 25.0491 111.303 26.6387C111.373 28.438 111.321 29.0669 111.025 30.2198C110.851 30.9884 110.398 32.2461 110.05 33.0147C109.685 33.7833 109.041 34.9537 108.589 35.635C108.136 36.2988 107.11 37.5565 106.292 38.4125C105.474 39.2684 104.274 40.4213 103.595 40.9628C102.916 41.5044 101.559 42.5175 100.55 43.1988C99.5407 43.8626 97.6615 44.9806 96.3739 45.6619C95.0863 46.3257 92.9635 47.3039 91.6758 47.8279C90.3882 48.352 88.074 49.1905 86.5428 49.6796C85.0116 50.1862 82.5407 50.8849 81.0617 51.2692C79.5827 51.6361 77.3381 52.1426 76.1027 52.3872C74.8673 52.6318 72.7792 52.9986 71.4916 53.1907C70.204 53.3654 68.0116 53.6449 66.6196 53.7847C65.2276 53.9419 62.1825 54.1515 59.8335 54.2563C56.6667 54.3961 54.4916 54.4135 51.3944 54.2563C49.0976 54.1515 46.0004 53.9419 44.5213 53.8021C43.0423 53.6449 40.7629 53.3654 39.4753 53.1733C38.1877 52.9811 35.9604 52.5793 34.5162 52.2999C33.0894 52.0204 30.6882 51.4614 29.2092 51.0771C27.7302 50.6928 25.1375 49.9242 23.4671 49.3477C21.7967 48.7887 19.4825 47.9328 18.3341 47.4436C17.1856 46.937 15.4978 46.1335 14.593 45.6444C13.6882 45.1727 12.0874 44.1945 11.026 43.5132C9.96457 42.8145 8.52035 41.7664 7.80695 41.1899C7.09354 40.6135 5.87553 39.478 5.10992 38.657C4.34431 37.8535 3.3177 36.5957 2.81309 35.8795C2.32589 35.1633 1.59508 33.9231 1.21228 33.1021C0.812073 32.281 0.377064 31.0233 0.220463 30.3071C0.0116606 29.3463 -0.040537 28.4205 0.0290638 26.8134C0.0812643 25.2413 0.220465 24.2805 0.498868 23.4071C0.70767 22.7433 1.17747 21.5904 1.52548 20.8742C1.87348 20.158 2.51729 19.0574 2.93489 18.4286C3.3699 17.7997 4.22251 16.7516 4.84891 16.0878C5.47532 15.424 6.72813 14.2711 7.63294 13.5549C8.53775 12.8212 10.1038 11.6683 11.113 11.0045C12.1222 10.3407 13.9666 9.27513 15.202 8.61133C16.4374 7.965 18.3689 7.05664 19.4651 6.585C20.5613 6.11335 22.6841 5.32727 24.1631 4.83815C25.6421 4.34904 27.7998 3.70271 28.9482 3.40574C30.0966 3.10878 32.5674 2.56726 34.4292 2.18295C36.291 1.81612 39.2317 1.30953 40.9543 1.06498C42.6769 0.820417 44.9563 0.540923 46.0004 0.436112Z" fill="#010101"/>
<path d="M51.7772 5.67656C52.334 5.34466 53.2562 4.94289 53.8304 4.76821C54.5612 4.55858 55.5704 4.47124 57.2235 4.47124C58.5111 4.45377 60.8253 4.54112 62.3565 4.62846C63.8877 4.73327 66.2368 4.92542 67.5766 5.08264C68.9164 5.22238 70.987 5.50188 72.1876 5.69403C73.3882 5.88618 75.3893 6.23555 76.6247 6.48011C77.8601 6.72467 80.0177 7.19632 81.4097 7.52822C82.8017 7.86012 84.2634 8.29683 84.681 8.47151C85.1334 8.6986 85.4466 8.9781 85.5162 9.20518C85.5858 9.50215 85.4814 9.74671 85.116 10.1135C84.855 10.3756 83.6021 11.2839 82.3667 12.1224C81.1313 12.9434 78.8519 14.271 77.3207 15.0571C75.7895 15.8432 73.3186 16.9786 71.8396 17.6075C70.3606 18.2189 67.42 19.3194 65.3146 20.0356C63.2091 20.7693 59.7987 21.7824 57.7455 22.324C55.6922 22.8655 53.4128 23.3895 52.6994 23.5118C51.9686 23.6166 50.4722 23.669 49.3064 23.6341C47.636 23.5817 47.0444 23.4769 46.3483 23.1625C45.8785 22.9528 45.2521 22.5685 44.9911 22.3065C44.7127 22.0445 44.3647 21.5903 44.2081 21.3108C43.9819 20.909 43.9123 20.3326 43.9297 18.9526C43.9297 17.3804 43.9993 16.9262 44.4169 15.8082C44.6953 15.092 45.3565 13.6247 45.8785 12.5766C46.4179 11.511 47.3054 10.0611 47.8448 9.34493C48.3842 8.62873 49.2542 7.63303 49.7936 7.16138C50.3156 6.67226 51.2204 6.00846 51.7772 5.67656Z" fill="#FEFEFE"/>
<path d="M30.2532 7.44087C31.4538 7.14391 33.2112 6.74214 34.1682 6.56745C35.1252 6.3753 36.291 6.23555 36.7782 6.25302C37.5439 6.28796 37.6483 6.34036 37.6483 6.67226C37.6483 6.89935 36.9174 7.89505 35.8038 9.20518C34.7946 10.393 33.2286 12.332 32.3064 13.5374C31.4016 14.7427 30.1488 16.472 29.5224 17.3804C28.896 18.2888 27.8172 19.9483 27.1211 21.0488C26.4251 22.1493 24.9635 24.6123 23.8847 26.4989C22.7885 28.403 20.6831 32.3334 19.1693 35.2331C17.6728 38.1504 16.333 40.6309 16.1764 40.7532C16.0198 40.8754 15.724 40.9628 15.5152 40.9628C15.289 40.9628 14.7496 40.7532 14.2972 40.4911C13.8274 40.2291 12.9226 39.6526 12.244 39.1985C11.5654 38.7443 10.417 37.8359 9.66876 37.1896C8.93795 36.5258 7.89394 35.4428 7.37193 34.7615C6.84993 34.0802 6.13652 33.0321 5.80591 32.4033C5.47531 31.7744 5.05771 30.6389 4.8489 29.8703C4.6575 29.1017 4.5009 27.9313 4.5009 27.2501C4.5009 26.5688 4.6227 25.5556 4.7619 24.9792C4.9011 24.4027 5.37091 23.2149 5.80591 22.3589C6.22352 21.4855 7.00653 20.2278 7.52853 19.564C8.06794 18.8827 9.14675 17.7647 9.92976 17.066C10.7302 16.3672 12.1222 15.3017 13.027 14.6903C13.9318 14.0789 15.3412 13.2229 16.159 12.7862C16.9768 12.3495 18.7343 11.4935 20.0741 10.8996C21.4139 10.3057 23.7629 9.41481 25.2941 8.90822C26.8253 8.40164 29.0526 7.73784 30.2532 7.44087Z" fill="#FEFEFE"/>
<path d="M92.9983 17.5202C94.0945 15.3541 95.0689 13.5374 95.1907 13.4849C95.3125 13.4325 95.5387 13.3801 95.6779 13.3801C95.8171 13.3801 96.2173 13.4675 96.5479 13.5898C96.8785 13.712 97.8181 14.271 98.6359 14.8475C99.4363 15.4239 100.689 16.4371 101.42 17.1184C102.133 17.7822 103.212 18.9176 103.821 19.6513C104.43 20.3675 105.231 21.5903 105.613 22.3589C105.979 23.1275 106.414 24.263 106.57 24.8918C106.779 25.6954 106.831 26.4815 106.762 27.5994C106.71 28.7698 106.536 29.5384 106.135 30.6564C105.822 31.4774 105.231 32.6827 104.813 33.364C104.395 34.0453 103.525 35.1633 102.864 35.8795C102.22 36.5957 101.055 37.6612 100.289 38.2552C99.5233 38.8491 98.2531 39.74 97.4701 40.2466C96.6697 40.7357 95.1907 41.5567 94.1641 42.0808C93.12 42.5873 91.2234 43.4433 89.9358 43.9848C88.6482 44.5263 86.421 45.3124 84.9768 45.7666C83.5499 46.2208 81.4271 46.8147 80.2787 47.0942C79.1303 47.3737 77.2859 47.7405 76.1897 47.8977C75.0935 48.055 74.0494 48.1423 73.8928 48.0724C73.7188 48.0026 73.5796 47.8279 73.5796 47.6881C73.5796 47.5484 74.1886 46.7448 74.9369 45.8889C75.6677 45.0504 76.7639 43.7752 77.3381 43.059C77.9123 42.3428 79.0607 40.8405 79.8785 39.74C80.6963 38.6395 81.9839 36.7878 82.7495 35.6349C83.5152 34.482 84.8724 32.3159 85.7598 30.8311C86.6646 29.3463 88.2132 26.6212 89.205 24.8045C90.1968 22.9703 91.9194 19.7037 92.9983 17.5202Z" fill="#FEFEFE"/>
<path d="M54.7874 31.7045C55.9881 31.4076 57.6237 31.0407 58.4415 30.9184C59.3115 30.7612 60.7905 30.6913 62.0085 30.7263C63.6267 30.7612 64.2705 30.8486 64.8795 31.1281C65.3146 31.3202 65.9584 31.7395 66.3238 32.0714C66.7066 32.4033 67.1068 32.9972 67.2634 33.4514C67.4896 34.0628 67.5244 34.5868 67.4374 35.8096C67.3852 36.7704 67.1764 37.8709 66.9154 38.6045C66.6892 39.2858 66.2194 40.3689 65.8888 41.0501C65.5407 41.7314 64.8447 42.9716 64.3401 43.8451C63.8181 44.7185 62.9133 45.9238 62.2695 46.5701C61.6431 47.2165 60.6339 48.055 60.0075 48.4567C59.3811 48.8585 58.4067 49.3302 57.8325 49.5048C57.2583 49.697 56.5275 49.8891 56.2317 49.9415C55.9184 49.994 53.813 49.959 51.5684 49.8717C49.3238 49.7669 46.3309 49.5747 44.9215 49.435C43.4947 49.2952 41.0935 48.9808 39.5623 48.7362C38.0311 48.5091 35.8386 48.1074 34.6902 47.8803C33.5418 47.6357 31.941 47.2864 31.1232 47.0942C30.3054 46.902 28.983 46.5527 28.1652 46.3256C27.3473 46.0985 26.5121 45.819 26.3033 45.7142C26.0249 45.5744 25.9031 45.3474 25.9031 44.9805C25.9031 44.5438 26.0771 44.3167 26.9645 43.618C27.5387 43.1638 28.809 42.2904 29.7834 41.6615C30.7578 41.0501 32.7414 39.9496 34.1682 39.2159C35.6124 38.4823 38.1877 37.3293 39.9103 36.6481C41.6329 35.9668 45.1999 34.7091 47.8274 33.8357C50.4548 32.9622 53.5868 32.0015 54.7874 31.7045Z" fill="#FEFEFE"/>
</svg>
