<svg width="84" height="62" viewBox="0 0 84 62" fill="none" xmlns="http://www.w3.org/2000/svg">
<path d="M61.8676 2.8459L59.9563 5.6918C72.531 10.8754 77.5609 20.4295 77.5609 30.4918C77.5609 35.5738 76.2531 40.1475 73.537 40.1475H40.7421C36.2152 40.1475 34.9074 38.5213 36.9194 34.4557C40.5409 27.4426 51.3049 13.7213 57.9443 5.38689C58.9503 4.16721 59.7551 2.23607 56.2342 1.32131C52.7132 0.406557 46.8786 0 42.0499 0C17.3028 0 0 13.518 0 31C0 47.059 14.9891 62 41.9493 62C53.9204 62 68.5071 58.6459 76.7561 49.0918H69.6137C61.5658 56.5115 51.0031 58.1377 41.9493 58.1377C20.2202 58.1377 6.43826 46.7541 6.43826 31C6.43826 16.4656 22.0309 3.3541 41.7481 3.3541C44.0618 3.3541 44.8666 3.8623 42.3517 7.01311C37.3218 13.3148 28.3686 25.8164 24.1435 33.1344C19.6166 40.9607 24.2441 47.3639 34.4044 47.3639H75.5489C78.0639 47.3639 79.5728 45.941 80.9812 43.1967C82.1884 41.0623 83.9991 36.7934 83.9991 30.8984C84.0997 19.1082 75.3477 8.23279 61.8676 2.8459Z" fill="black"/>
</svg>
