<svg width="96" height="76" viewBox="0 0 96 76" fill="none" xmlns="http://www.w3.org/2000/svg">
<path d="M39.4041 34.8155C36.5732 30.9876 33.2028 28.8404 29.7326 27.1145C29.1704 26.835 28.6048 26.5661 28.0375 26.3025C29.6813 26.9486 31.2698 27.6867 33.8087 29.133C36.5936 30.7195 39.0965 34.1035 40.678 36.4431C40.8742 36.7334 41.0734 37.0239 41.2737 37.3135C40.6578 36.5152 40.0397 35.675 39.4041 34.8155Z" fill="black"/>
<path fill-rule="evenodd" clip-rule="evenodd" d="M11.3454 41.012C11.4481 41.8751 11.5902 42.9042 11.786 44.0355C18.7081 67.1558 26.7612 68.8725 46.5538 69.7473C61.9287 70.4267 70.7299 66.616 75.9132 61.8442C81.101 57.0683 82.6952 51.3037 83.6034 48.0018C84.256 45.6291 84.6881 43.338 84.8781 41.0126L95.8994 41.012C95.452 48.4796 93.1015 55.7076 88.134 62.1051C81.9919 69.6605 72.3885 73.1354 64.0785 74.7154C55.7641 76.2961 48.7078 75.9879 47.625 75.9536C46.5439 75.9193 42.5903 75.9751 37.7193 75.5536C32.8468 75.1317 27.0417 74.2315 22.2688 72.2778C20.1661 71.417 18.349 70.5331 16.7505 69.6043C12.4276 67.0035 8.43037 63.2204 6.4761 60.4435C4.02267 56.9573 1.07749 50.8506 0.235199 41.013L11.3454 41.012ZM47.3696 41.012C47.7066 41.4781 47.9707 41.7502 48.1139 41.787C48.1988 41.7716 48.2973 41.702 48.4425 41.5277C48.5555 41.3921 48.6786 41.2159 48.8091 41.0126L58.4335 41.012C56.7717 42.2552 55.3329 43.6773 53.979 45.3801C51.7665 48.1626 50.501 50.8995 50.0965 52.2328C49.6755 53.6208 48.8746 54.7906 48.7501 54.9641C48.6024 55.1702 47.9242 55.3458 47.6971 54.9512C47.4634 54.7426 47.2251 54.3127 47.0071 53.75C46.7225 53.0159 46.3671 51.8669 45.6499 50.4221C44.9361 48.9848 43.8615 47.2503 42.1346 45.3365C40.6437 43.6842 39.0929 42.2357 37.5087 41.0126L47.3696 41.012Z" fill="black"/>
<path fill-rule="evenodd" clip-rule="evenodd" d="M0.235203 41.0119C0.0834651 39.2401 0 37.3461 0 35.3244V35.2613L0.000264955 35.2001L0.000529926 35.1386L0.000994637 35.0774C0.075901 25.7485 4.3651 17.2895 7.49049 13.6491C7.9201 13.1487 9.49672 11.3422 10.8585 10.062C14.7726 6.38209 25.3581 -0.597378 48.9501 0.0409587C62.3674 0.072002 70.5393 1.83315 76.0681 4.22874C78.8336 5.42705 80.9339 6.7826 82.6961 8.15495C84.451 9.52204 85.8699 10.9063 87.2796 12.1694L87.3174 12.2033L87.3333 12.2513C87.3423 12.2784 94.0122 20.2925 95.5246 31.6353C95.9429 34.7739 96.0849 37.9132 95.8994 41.0111L84.8781 41.0119C85.0719 38.6382 85.0133 36.2282 84.6791 33.6591C84.4442 32.3213 84.1984 31.2516 84.0209 30.5478C84.0598 30.5215 83.7834 30.7607 83.7834 30.7607C83.7834 30.7607 81.8268 31.9712 72.3494 34.8233C66.0478 36.7196 61.7869 38.5023 58.4335 41.0116L48.8091 41.0118C48.8359 40.9706 48.8631 40.9275 48.8906 40.8834C49.2149 40.3633 49.5615 39.7279 49.8817 39.2071C50.5891 38.0568 52.7372 35.0006 55.7911 32.1418C58.7724 29.3509 65.9279 26.0637 71.2151 24.1023C72.1842 23.7426 73.0624 23.3911 73.8506 23.0566C76.0262 22.0548 78.1799 20.7835 80.1109 19.5118C79.9844 19.0188 79.8412 18.7024 79.7643 18.5426C79.7643 18.5426 79.6715 18.3023 79.4558 17.8973C79.236 17.4846 78.8875 16.8972 78.3728 16.1981C77.3424 14.7984 75.6427 12.9465 72.97 11.1504C71.7283 10.294 69.9299 9.3446 67.5751 8.30236C62.8863 6.37972 56.4916 4.95597 47.8333 4.95597C34.4207 4.95597 26.5764 8.33425 22.0902 11.6924C19.8461 13.3721 18.4382 15.0496 17.5925 16.3037C17.1708 16.9292 16.8881 17.4503 16.7111 17.8152C16.5378 18.1722 16.2794 18.6849 16.2794 18.6849C16.0243 19.3979 16.3139 19.7018 16.8348 20.0401C17.8886 20.7242 19.4678 21.6645 19.7578 21.8365C21.0381 22.4713 22.8024 23.2654 25.0581 24.1024C30.3453 26.0638 37.5007 29.351 40.482 32.1419C43.5395 35.004 45.54 38.1178 46.2437 39.2621C46.5628 39.7809 46.9392 40.4031 47.2955 40.909C47.3205 40.9446 47.3453 40.9792 47.3696 41.0128L37.5087 41.012C35.4124 39.394 33.2579 38.1702 31.1074 37.3916C27.2986 36.0126 23.3946 35.1572 21.6807 34.634C20.8637 34.3847 19.8801 34.0718 19.0733 33.8125C18.5129 33.6322 18.0363 33.4771 17.7619 33.3875L17.5575 33.3171C15.705 32.6718 13.8063 31.8572 12.0162 30.8223C11.9465 30.7819 11.9028 30.7727 11.8791 30.7719C11.8587 30.7711 11.8441 30.7756 11.8278 30.7863C11.8082 30.799 11.7851 30.8213 11.7563 30.8589C11.7239 30.9017 11.6952 30.948 11.6668 30.9906C11.5635 31.1454 11.1584 34.4435 11.0899 38.3419C11.098 38.3417 11.1509 39.378 11.3454 41.0124L0.235203 41.0119Z" fill="black"/>
<path d="M11.4996 43.6677C18.482 67.3165 26.6046 69.0796 46.5745 69.962C77.3953 71.3242 81.9985 54.6864 83.8162 48.0769C85.8225 40.7817 84.6994 31.2424 84.6994 31.2424L87.8296 41.9042L81.6494 61.9452L72.9808 68.3588L63.7505 71.164L48.982 72.8473L30.1204 71.164L19.4454 65.7934L14.0674 58.0977L11.9809 50.8026C11.9809 50.8026 11.0977 45.5922 11.4996 43.6677Z" fill="black"/>
<path d="M84.141 28.7529C84.141 28.7529 87.514 42.7028 82.1313 53.8487C76.7485 64.9948 71.6275 71.8036 47.7025 71.8843C23.7775 71.9649 18.8083 62.0194 15.1122 55.13C11.416 48.2404 10.9411 38.3756 10.9411 38.3756L10.5061 49.9634L17.3544 62.8261L23.0602 68.0409L31.1602 71.5615L52.8332 72.9233L62.3871 71.5615L72.5775 68.9993L82.2928 60.8998L86.141 47.0302L85.7467 31.6474C85.1489 29.2855 84.6135 28.3206 84.141 28.7529Z" fill="black"/>
<path d="M6.69989 21.4465L8.92016 22.9001C8.92016 22.9001 8.57249 39.0387 8.50302 39.3118C8.43344 39.5849 8.50302 48.3117 8.50302 48.3117L11.3444 59.3856L10.0975 60.4272L4.06708 44.5016L4.69279 31.3492L5.93968 23.1084L6.69989 21.4465Z" fill="black"/>
<path d="M84.7964 29.179C84.7964 29.179 88.2206 43.4962 83.0412 54.5603C77.8617 65.6248 74.1286 71.2095 48.8028 72.2049C28.26 72.7193 22.9195 67.3778 19.1227 63.4906C16.1194 60.4158 14.03 55.2713 14.03 55.2713C14.03 55.2713 4.75868 38.1381 5.7413 43.5429C7.02878 50.6246 9.08398 60.7724 17.0694 67.1418C21.9609 71.0434 31.8264 73.4482 31.8264 73.4482L47.2779 74.6694L61.1034 73.8506L82.9712 65.4302L92.3227 45.0119C91.887 35.522 90.9712 27.6715 89.5748 21.4609L86.5248 24.0906L84.7964 29.179Z" fill="#999999"/>
<path d="M7.62225 15.3263C7.62225 15.3263 7.21924 19.6317 8.18328 22.1594C6.88075 24.2429 5.16544 30.4836 4.94298 35.4972C4.72051 40.5109 5.65841 53.5943 12.1291 61.0619C11.0491 63.1034 10.4054 64.3606 10.4054 64.3606C10.4054 64.3606 0.219666 57.4552 0.219666 35.3491C0.219666 24.6873 5.97038 15.107 9.02039 12.5791C8.08861 13.88 7.62225 15.3263 7.62225 15.3263Z" fill="black"/>
<path d="M0.951752 39.5936C0.951752 39.5936 1.24441 50.3051 5.2529 57.1002C9.26138 63.8951 12.878 68.2406 22.3702 72.1261C31.8625 76.0118 45.5002 75.7195 47.6602 75.7878C49.8202 75.8562 75.8137 77.0186 88.0137 62.0113C95.0036 53.0094 96.8214 42.3475 95.3647 31.6858C93.9083 21.0239 88.4929 14.7947 88.4929 14.7947C88.4929 14.7947 89.246 16.728 88.3558 22.0683C89.6756 24.3624 91.8167 31.978 91.406 38.0705C90.9951 44.1629 89.8756 52.4269 85.2375 58.8968C82.256 63.0559 79.8906 65.9653 73.3797 69.0116C66.869 72.0577 56.8976 73.5809 47.8844 73.4442C38.8713 73.3073 30.2005 72.6048 22.918 69.2851C15.6352 65.9653 11.7637 60.9173 8.98757 56.8949C6.21144 52.8727 8.35261 54.9119 4.9603 51.5735C1.568 48.2349 0.951752 39.5936 0.951752 39.5936Z" fill="black"/>
<path d="M7.83405 13.6133C7.83405 13.6133 17.2382 -0.602641 48.974 0.255883C75.784 0.317461 81.5547 7.29388 87.1813 12.3358C87.3031 12.7035 84.9524 14.6072 84.9524 14.6072L81.0934 16.0543L70.04 7.38837L50.4042 3.11322C50.4042 3.11322 31.9256 5.29795 31.1577 5.20346C30.3899 5.10898 18.2847 11.8632 18.2847 11.8632L16.0214 18.7945L8.85062 13.3863L7.83405 13.6133Z" fill="black"/>
<path d="M9.51781 12.534C9.51781 12.534 18.1243 -0.320918 48.9463 0.513009C74.9843 0.57272 81.309 8.01801 86.7738 12.9149C85.0305 14.4019 83.1951 14.1937 83.1951 14.1937L80.141 15.8565L69.4057 7.44006L50.3353 3.28807C50.3353 3.28807 32.3889 5.41004 31.6431 5.3181C30.8974 5.22632 19.1405 11.7861 19.1405 11.7861L12.9032 15.6574L9.13657 13.3909L9.51781 12.534Z" fill="black"/>
<path d="M9.51782 13.9619C9.51782 13.9619 19.9069 2.34814 47.6427 2.34814C75.3787 2.34814 85.5125 11.7257 86.5763 13.1422C85.3712 14.69 83.1944 16.3419 83.1944 16.3419C76.0888 11.8827 69.4168 8.36019 63.1786 5.77529L46.4038 3.30014C46.4038 3.30014 26.5788 7.86943 26.1975 7.86943C25.8163 7.86943 15.5225 15.1042 15.5225 15.1042C15.5225 15.1042 14.6807 16.5186 13.898 16.3436C11.7657 14.6182 9.51782 13.9619 9.51782 13.9619Z" fill="black"/>
<path d="M79.9564 18.4923C79.9564 18.4923 74.754 4.79017 47.8623 4.79017C20.9709 4.79017 16.3161 18.3389 16.3161 18.3389L15.0304 16.0894L19.6054 9.83766L31.7257 4.3028L40.1438 3.01731L48.1815 2.62036L58.4845 3.17982L66.5972 4.90603L77.7947 10.564L83.8602 15.3647L84.2935 15.8504L79.9564 18.4923Z" fill="black"/>
<path d="M79.1959 20.615C79.1959 20.615 76.6002 22.3432 71.3104 24.3056C66.0207 26.2681 58.9002 29.5444 55.9506 32.3056C52.9113 35.1507 50.7736 38.1931 50.0733 39.3319C49.373 40.4704 48.5455 42.1583 48.1055 41.9936C48.0507 42.9677 47.8307 48.7853 47.8307 48.7853L48.1606 49.005L50.9356 44.216L60.1407 34.2131L64.3307 29.7536L78.6055 22.9473L79.1959 20.615Z" fill="black"/>
<path d="M70.7837 24.6544C69.0655 25.4067 61.003 27.9446 57.0104 32.8159C55.649 34.4766 53.2619 38.8501 52.61 39.9082C51.9581 40.9663 48.8033 47.7098 48.0349 48.64C47.2667 49.5702 52.1327 44.7102 52.1327 44.7102C52.1327 44.7102 65.3337 32.9903 65.6249 32.8159C65.916 32.6415 70.6073 28.421 70.6073 28.421C70.6073 28.421 72.1322 24.0639 70.7837 24.6544Z" fill="black"/>
<path d="M87.6266 14.1313C87.6266 14.1313 80.7118 20.224 73.6688 23.3863C66.6259 26.549 57.8411 29.5741 52.5818 41.1296C48.5827 48.1771 58.8264 34.8041 58.8264 34.8041L64.2163 30.9439L76.7188 25.3746L83.1098 21.282L87.6266 14.1313Z" fill="black"/>
<path d="M87.743 14.0149C87.743 14.0149 82.8229 18.9626 75.8923 22.8629C73.599 24.1535 67.501 26.8207 64.6936 28.3043C58.5084 31.573 55.3106 37.3268 54.3095 38.5011C53.3084 39.6754 48.1514 48.9304 48.1514 48.9304L50.3748 48.4537L58.9427 37.1525L65.916 32.9319L81.8178 27.9555L87.033 23.6186C87.033 23.6186 88.2966 24.2587 88.6745 18.3518C88.9073 14.7124 87.743 14.0149 87.743 14.0149Z" fill="black"/>
<path d="M76.0459 33.4294L65.5139 36.8087L59.6045 39.2362L52.1225 44.8052C52.1225 44.8052 50.3591 47.9467 50.2163 48.613C50.0733 49.2793 48.9772 52.8968 48.9772 52.8968L48.8342 54.0868L48.4529 54.5626L48.1193 52.4208L48.3075 49.4978L49.7682 46.7986L51.4554 43.9009L54.6007 40.5214L58.9373 37.9511L66.2764 35.6664L72.3764 34.0958L76.0459 33.4294Z" fill="black"/>
<path d="M83.6992 30.6316C83.6992 30.6316 81.7622 31.8253 72.3236 34.6657C62.8849 37.506 57.9805 40.1025 53.8587 45.2863C51.633 48.0857 50.3552 50.8438 49.9431 52.2022C49.5311 53.5606 48.7442 54.7106 48.6243 54.878C48.5006 55.0504 47.8649 55.124 47.8567 54.7535C47.8538 54.6259 48.4016 55.0997 48.5871 53.7374C48.5811 52.1572 48.7262 49.3603 49.6547 47.7152C50.9324 45.4509 52.8695 42.734 56.0019 40.8816C59.1345 39.0292 63.1735 37.4239 65.8113 36.477C68.4493 35.5301 75.0437 33.7189 77.8877 32.6897C80.7315 31.6606 84.3173 30.0962 84.3173 30.0962L83.6992 30.6316Z" fill="black"/>
<path d="M48.3858 49.2796C48.3858 49.2796 48.5388 53.6198 48.3858 54.0782C48.2329 54.5366 47.4729 53.8489 47.4729 53.8489L44.3845 46.6536L40.039 42.1606L33.4418 38.0448L30.5448 36.9037L25.8933 35.4568L23.9859 34.884L23.6034 33.781L33.3272 36.1445L40.608 39.9498L44.3462 43.4545L47.1286 47.2599L48.3858 49.2796Z" fill="black"/>
<path d="M17.1355 20.615C17.1355 20.615 19.7311 22.3432 25.0208 24.3056C30.3106 26.2681 37.4311 29.5444 40.3808 32.3056C43.4201 35.1507 45.4102 38.2479 46.1103 39.3867C46.8106 40.5254 47.7859 42.1583 48.2258 41.9936C48.2807 42.9677 48.5007 48.7853 48.5007 48.7853L48.1708 49.005L45.3956 44.216L36.1907 34.2131L32.0005 29.7536L17.7257 22.9473L17.1355 20.615Z" fill="black"/>
<path d="M47.224 47.3729L43.4511 42.6682L36.5995 36.7961L14.8311 28.3142L8.1959 22.3237C8.1959 22.3237 6.64568 17.245 7.61662 15.3593C7.58185 14.7676 8.68695 11.6901 9.09896 12.6484C10.2228 13.7898 11.5759 15.4847 16.189 18.4928C15.7913 19.4278 16.1632 19.837 16.76 20.2246C17.9268 20.982 19.7364 22.0529 19.7364 22.0529L23.6226 24.1934L31.1886 28.0026L35.194 30.5245L39.1114 34.6453L42.042 38.2596L45.2115 42.3803L48.4566 48.8478L47.224 47.3729Z" fill="black"/>
<path d="M15.4895 58.1489C13.8105 56.9718 11.7016 55.9967 9.64427 54.6798C7.99021 53.6211 6.6882 49.2385 6.04084 45.5932C3.73537 32.6103 8.29003 23.0665 8.29003 23.0665C8.29003 23.0665 8.36986 22.8419 8.28194 22.7616C7.95119 22.4595 8.18852 21.9156 8.70842 22.2607C14.5241 26.1202 16.0146 26.1536 20.57 28.2756C27.0938 31.3143 33.933 31.286 41.1884 38.5891C44.6419 42.0654 48.0741 48.9102 48.4723 48.8249C48.4437 49.5066 48.3404 52.7255 48.3404 52.7255C48.3404 52.7255 48.5246 49.6293 47.5362 48.0761C43.5275 41.7774 37.6549 39.157 37.6549 39.157C37.6549 39.157 32.5966 36.5265 24.6692 35.0033C21.2516 34.3467 16.3838 33.1353 12.1408 30.6821C11.7898 30.4792 11.6594 30.7265 11.5372 30.9097C11.3064 31.2558 10.3923 39.9813 11.34 45.5932C12.2196 50.8025 13.4256 53.6211 15.4895 58.1489Z" fill="black"/>
<path d="M9.14603 12.6826C9.14603 12.6826 11.6943 15.6969 16.047 18.5076C14.2268 17.8333 13.412 17.7281 11.767 16.4753C10.6626 15.6341 9.14603 12.6826 9.14603 12.6826Z" fill="black"/>
<path d="M87.1203 12.5503C87.1203 12.5503 85.0984 14.7247 83.7437 15.7376C82.389 16.7505 80.1181 18.4102 80.1181 18.4102L84.2546 16.3678L87.1203 12.5503Z" fill="black"/>
<path d="M12.4492 15.3916C12.4492 15.3916 16.0959 10.3465 22.1958 7.39058C28.2958 4.43469 32.3646 3.80263 36.1318 3.24877C39.7496 2.71679 47.0805 2.57854 47.6568 2.56836H47.6928C48.2861 2.5782 56.0352 2.71628 59.657 3.24877C63.4243 3.80263 67.5243 4.31408 73.6243 7.26997C79.7243 10.2259 84.0202 15.5382 84.0202 15.5382C84.0202 15.5382 82.4899 15.8973 81.5555 16.6618C80.6212 17.4264 80.2701 17.0813 80.2701 17.0813C80.2701 17.0813 80.1869 14.9702 77.348 11.8818C74.5087 8.79346 70.121 6.96921 64.4429 4.94054C58.9538 2.97922 48.3899 2.91374 47.6928 2.9117H47.6568C46.9778 2.91391 36.8322 2.98006 31.3459 4.94054C25.6677 6.96921 22.3647 9.29915 19.5256 12.3875C16.6866 15.4759 16.0959 18.6063 16.0959 18.6063C16.0959 18.6063 15.1677 17.4264 14.2334 16.6618C13.2991 15.8973 12.4492 15.3916 12.4492 15.3916Z" fill="black"/>
<path fill-rule="evenodd" clip-rule="evenodd" d="M41.2631 37.3207C40.6683 36.5075 40.05 35.6673 39.4143 34.8077C36.5819 30.9775 33.2095 28.8293 29.7384 27.1029C29.176 26.8233 28.6104 26.5545 28.0429 26.2907C29.6761 26.9602 31.264 27.6981 33.8024 29.1441C36.5842 30.7289 39.0856 34.1104 40.6675 36.4503C40.8635 36.7406 41.0627 37.0311 41.2631 37.3207ZM8.35461 14.1982C8.8515 14.7474 12.7804 18.0585 19.2474 22.2717C25.8553 26.5765 33.5436 27.5122 39.1077 35.0366C43.4415 40.897 43.8863 40.271 47.79 47.5148C47.0649 45.4478 46.2992 44.0086 45.318 42.4739C44.3369 40.939 42.5608 38.5684 40.9834 36.2347C39.406 33.9012 36.8602 30.4449 33.9908 28.8103C31.1213 27.1757 29.4573 26.4396 27.5818 25.6907C25.7061 24.9419 22.6507 23.7565 19.6946 22.072C16.7386 20.3874 11.6585 16.9183 8.35461 14.1982Z" fill="black"/>
<path d="M48.6531 48.8987C51.5761 42.5776 54.3973 38.9476 60.2558 34.7145C63.6462 32.2648 66.0928 31.8134 69.9618 30.2802C72.5245 29.2645 74.0642 28.9388 76.6177 27.9002C81.2844 26.002 83.3635 25.068 88.164 22.1106C88.4976 23.2404 86.0154 27.6765 84.2427 30.2802C79.2548 32.4745 75.2397 33.6923 69.2659 35.0889C65.6822 35.9267 63.046 36.792 59.4044 38.2621C53.3043 40.7247 51.5391 43.7571 48.6531 48.8987Z" fill="black"/>
<path d="M47.0233 48.6132C47.9699 50.4816 48.4054 52.1355 48.4054 53.8013C48.4054 55.4673 47.7857 55.1816 47.2138 53.7062C46.642 52.2307 45.7842 49.0892 42.3053 45.2337C38.8264 41.3784 35.014 38.6178 31.2015 37.2373C27.389 35.8571 23.4811 35.0003 21.7654 34.4766C20.0499 33.9531 17.599 33.1494 17.599 33.1494L21.9084 34.2388C21.9084 34.2388 31.6779 36.4283 37.2538 39.7124C42.8295 42.9967 45.5271 45.6604 47.0233 48.6132Z" fill="black"/>
<path d="M7.61581 15.3343C7.40311 15.5925 1.95354 22.3141 0.219666 35.3492C0.219666 25.259 5.38917 15.9033 8.52876 12.7864C8.08934 13.4412 7.61263 14.9038 7.61581 15.3343Z" fill="black"/>
<path d="M16.0747 18.5758C16.0747 18.5758 14.6973 16.7646 12.9737 15.4147C11.2502 14.0646 9.9368 13.5139 9.9368 13.5139C9.9368 13.5139 10.8911 14.6847 12.8326 16.214C14.7742 17.7434 16.0747 18.5758 16.0747 18.5758Z" fill="black"/>
<path d="M9.94458 13.5266C9.94458 13.5266 11.0451 13.8647 12.6533 15.1636C12.6533 15.1636 16.1074 10.4834 21.2171 7.88542C26.3268 5.2878 31.3747 3.66812 38.3038 2.98364C38.3038 2.98364 29.7542 3.27287 21.0699 7.68356C16.1461 10.1841 12.6145 14.7908 12.6145 14.7908C11.7538 14.1572 10.8638 13.7358 9.94458 13.5266Z" fill="black"/>
<path d="M88.2301 21.8774C88.2301 21.8774 89.1703 23.1024 90.337 27.8087C91.2238 31.3862 91.4164 34.9012 91.4164 34.9012C91.4164 34.9012 90.6636 27.5862 88.1641 22.1165L88.2301 21.8774Z" fill="black"/>
<path d="M47.695 2.35109C48.3231 2.33565 56.0626 2.46033 59.6945 2.99434C61.586 3.27255 63.5608 3.54023 65.8287 4.10919C68.1013 4.67933 70.6675 5.55125 73.7368 7.03862C76.8177 8.53158 79.4376 10.6164 81.2848 12.3238C82.2105 13.1794 82.9761 13.982 83.5105 14.5706C83.7824 14.8702 84.0274 15.1548 84.203 15.3631L84.0202 15.5384C84.0202 15.5384 79.7243 10.2261 73.6243 7.27017C67.5243 4.31428 63.4243 3.80283 59.657 3.24897C56.0352 2.71648 47.695 2.35109 47.695 2.35109Z" fill="black"/>
<path d="M25.1573 66.7456C37.2039 72.4611 61.3901 72.1217 71.748 66.7456C60.858 73.3027 37.0709 73.6421 25.1573 66.7456Z" fill="black"/>
<path d="M83.5438 53.9319H87.7201C87.7201 53.9319 83.1502 65.8194 70.3613 69.9565C65.0095 71.6879 56.9932 71.7824 56.9932 71.7824C71.6189 70.9259 79.1395 66.2557 83.5438 53.9319Z" fill="black"/>
<path d="M50.6156 45.0164C50.6156 45.0164 54.4386 36.9952 63.4978 32.4603C65.8834 31.2661 69.8766 30.3088 69.8766 30.3088L67.5523 31.1813C64.9511 32.1156 62.8879 32.8128 60.2559 34.7146C55.7358 37.9806 53.0238 40.8876 50.678 44.9484L50.6156 45.0164Z" fill="black"/>
<path d="M49.2686 48.5538C49.2686 48.5538 51.0299 40.7399 63.6308 36.998C55.5984 40.0313 52.0217 42.6808 49.2686 48.5538Z" fill="black"/>
<path d="M47.9633 54.3239C47.8688 54.1721 47.7426 53.9293 47.5984 53.5575C47.3095 52.812 46.9474 51.6462 46.2191 50.1794C45.4829 48.6966 44.378 46.9158 42.6116 44.958C41.1441 43.3317 39.6149 41.8951 38.048 40.6707C42.9124 43.6606 45.3007 46.1253 46.6554 48.7991C47.5796 50.623 47.9931 52.2133 47.9931 53.8013C47.9931 54.0226 47.9813 54.1948 47.9633 54.3239Z" fill="black"/>
<path d="M79.9703 18.5548L80.2626 19.4234C80.2626 19.4234 81.7169 18.622 84.3332 16.6081C86.9496 14.594 87.7591 13.9949 87.7591 13.9949C87.7591 13.9949 88.5092 14.5716 91.1553 18.8843C91.1553 18.8843 90.3305 16.3458 87.3318 12.5874L84.2882 16.3385L79.9703 18.5548Z" fill="black"/>
<path d="M38.8163 34.6506C34.6024 30.1225 31.6309 29.0949 26.2352 27.1661C21.0538 25.3141 18.9177 22.4036 18.5125 21.7896C18.7536 21.9488 18.9987 22.1097 19.2474 22.2717C25.7406 26.5018 33.2771 27.4788 38.8163 34.6506Z" fill="black"/>
<path d="M25.5251 35.1692C25.5251 35.1692 26.3957 35.3592 26.6741 35.4243C29.8619 36.1504 32.4835 37.0209 34.3648 37.7388C35.9734 38.4669 37.7773 39.4206 39.7356 40.6698C47.7696 45.7948 47.8136 50.0703 47.8136 50.0703C47.8136 50.0703 47.6993 47.1271 42.7967 43.036C37.8562 38.9132 29.46 36.3 26.9771 35.5894C26.5219 35.4591 25.5251 35.1692 25.5251 35.1692Z" fill="black"/>
</svg>
