<svg width="92" height="78" viewBox="0 0 92 78" fill="none" xmlns="http://www.w3.org/2000/svg">
<g clip-path="url(#clip0_95_501)">
<path d="M13.049 27.2336C17.8367 13.1898 31.0735 3.70073 46 3.70073C60.9265 3.70073 74.1633 13.1898 78.951 27.2336V27.3285H89.4653V26.0949L85.1469 25.6204C82.4245 25.3358 81.8612 24.1022 81.1102 22.5839L80.9225 22.2044C74.6327 8.72993 60.9265 0 46 0C31.0735 0 17.3674 8.72993 10.9837 22.2044L10.7959 22.5839C10.1388 24.1022 9.48164 25.3358 6.85307 25.6204L2.44083 26.0949V27.3285H12.9551L13.049 27.2336Z" fill="black"/>
<path d="M79.0449 50.6716V50.7665C74.1633 64.8103 60.9265 74.2994 46 74.2994C31.0735 74.2994 17.8367 64.8103 13.049 50.7665V50.6716H2.44083V51.9052L6.85307 52.3797C9.57552 52.6643 10.1388 53.8979 10.8898 55.4162L11.0776 55.7957C17.2735 69.2702 31.0735 78.0001 46 78.0001C60.9265 78.0001 74.6327 69.2702 81.0163 55.7957L81.2041 55.4162C81.9551 53.8979 82.5184 52.7592 85.2408 52.3797L89.6531 51.9052V50.6716H79.0449Z" fill="black"/>
<path d="M21.3102 34.0657H18.8694V44.8832H21.3102V34.0657Z" fill="black"/>
<path d="M13.1429 44.7883V34.0657H10.7959V42.1314L3.00408 34.0657H0V44.7883H2.34694V36.7226L10.2327 44.7883H13.1429Z" fill="black"/>
<path d="M66.5592 34.0657L59.9878 44.8832H62.8041L63.9306 42.9854H71.5347L72.6612 44.8832H75.4776L68.9061 34.0657H66.5592ZM70.4082 40.8978H65.151L67.7796 36.5328L70.4082 40.8978Z" fill="black"/>
<path d="M53.3225 42.6057C53.2286 42.6057 52.9469 42.6057 52.8531 42.6057H42.9959V44.7882H52.9469C53.0408 44.7882 53.6041 44.7882 53.698 44.7882C55.7633 44.5984 56.6082 42.9853 56.6082 41.4671C56.6082 39.9488 55.6694 38.4306 53.7918 38.2408C53.5102 38.2408 53.2286 38.2408 53.0408 38.2408H46.5633C46.2816 38.2408 46.0939 38.2408 45.8123 38.1459C45.3429 38.051 45.0612 37.6714 45.1551 37.197C45.1551 36.7225 45.4367 36.343 45.9061 36.2481C46.0939 36.1532 46.3755 36.1532 46.5633 36.1532H55.951V33.9707H46.4694C46.1878 33.9707 45.8123 33.9707 45.5306 34.0656C43.9347 34.2554 42.7143 35.5838 42.7143 37.197C42.7143 38.5254 43.5592 40.1386 45.4367 40.3284C45.8123 40.3284 46.0939 40.4233 46.4694 40.3284H52.7592C52.8531 40.3284 53.1347 40.3284 53.2286 40.3284C53.7918 40.4233 54.1674 40.8977 54.1674 41.3722C54.1674 42.0364 53.7918 42.5108 53.3225 42.6057Z" fill="black"/>
<path d="M36.049 42.6058C35.9551 42.6058 35.6735 42.6058 35.5796 42.6058H25.8163V44.7883H35.6735C35.7674 44.7883 36.3306 44.7883 36.4245 44.7883C38.4898 44.5985 39.4286 42.9854 39.4286 41.562C39.4286 40.1387 38.4898 38.5255 36.6123 38.3357C36.3306 38.3357 36.049 38.3357 35.8612 38.3357H29.3837C29.102 38.3357 28.9143 38.3357 28.6327 38.2409C28.1633 38.146 27.8816 37.7664 27.9755 37.292C27.9755 36.8175 28.2572 36.4379 28.7265 36.343C28.9143 36.2482 29.1959 36.2482 29.3837 36.2482H38.7714V34.0657H29.1959C28.9143 34.0657 28.5388 34.0657 28.2572 34.1606C26.6612 34.3503 25.4408 35.6788 25.4408 37.292C25.4408 38.6204 26.2857 40.2336 28.1633 40.4233C28.5388 40.4233 28.8204 40.5182 29.1959 40.4233H35.4857C35.5796 40.4233 35.8612 40.4233 35.9551 40.4233C36.5184 40.5182 36.8939 40.9927 36.8939 41.4671C36.9878 42.0365 36.5184 42.5109 36.049 42.6058Z" fill="black"/>
<path d="M92 44.7883V34.0657H89.6531V42.1314L81.8612 34.0657H78.8571V44.7883H81.2041V36.7226L89.0898 44.7883H92Z" fill="black"/>
</g>
<defs>
<clipPath id="clip0_95_501">
<rect width="92" height="78" fill="white"/>
</clipPath>
</defs>
</svg>
